<ttFont>
          <CharString index="0">
            26 callgsubr
            hintmask 10101110
            -92 callgsubr
            hintmask 01110110
            -140 87 callgsubr
            -12 callgsubr
            hintmask 01110110
            -88 callsubr
            hintmask 10101110
            -103 callsubr
            return
          </CharString>
          <CharString index="1">
            hstemhm
            hintmask 10111000
            -96 callgsubr
            hintmask 01111000
            -30 -18 callsubr
            101 84 1 101 36 callgsubr
            9 callgsubr
            hintmask 10111000
            -90 callsubr
            hintmask 01111000
            19 -140 rlineto
            hintmask 10111000
            64 callsubr
            hintmask 01111000
            9 callsubr
            return
          </CharString>
          <CharString index="2">
            329 604 rmoveto
            227 12 90 119 177 hhcurveto
            178 67 -153 -176 -7 1 -5 -3 -5 hvcurveto
            109 -399 rmoveto
            -72 -80 -93 -32 -108 hhcurveto
            -207 -127 129 257 -39 callsubr
            252 -185 150 -241 -324 -205 -206 -336 -347 210 -196 323 191 133 58 133 76 hvcurveto
            return
          </CharString>
          <CharString index="3">
            215 vstem
            -105 callsubr
            return
          </CharString>
          <CharString index="4">
            -87 callsubr
            -38 -4 -54 hhcurveto
            -340 504 hlineto
            5 213 63 2 32 hhcurveto
            133 77 -7 -21 47 hvcurveto
            11 -31 7 -34 5 -29 8 -50 rcurveline
            147 6 rlineto
            23 -14 74 -13 67 vhcurveto
            -27 129 rlineto
            return
          </CharString>
          <CharString index="5">
            rmoveto
            131 6 0 1 hvcurveto
            -189 62 callgsubr
            -250 hlineto
            24 -32 30 -35 248 -256 rrcurveto
            336 hmoveto
            130 6 0 1 hvcurveto
            -188 62 callgsubr
            -251 hlineto
            23 -30 36 -41 244 -252 rrcurveto
            endchar
          </CharString>
          <CharString index="6">
            -103 callgsubr
            -89 hlineto
            return
          </CharString>
          <CharString index="7">
            4 callgsubr
            hintmask 10111110
            -107 callgsubr
            hintmask 01111110
            -50 callsubr
            hintmask 10111110
            return
          </CharString>
          <CharString index="8">
            rmoveto
            -27 24 33 -12 36 hhcurveto
            36 38 15 31 28 hvcurveto
            84 104 80 106 85 104 rrcurveto
            9 -31 -25 5 -31 hhcurveto
            -19 -23 -3 -7 -20 hvcurveto
            -203 -208 -204 208 rlineto
            7 -19 -23 3 -26 hhcurveto
            -23 -28 -5 -9 -31 hvcurveto
            endchar
          </CharString>
          <CharString index="9">
            rmoveto
            124 87 -51 -141 27 hvcurveto
            90 37 rlineto
            172 -11 -139 121 -178 hhcurveto
            -178 -139 -121 -172 -11 hvcurveto
            90 -37 rlineto
            141 27 87 51 124 hhcurveto
            endchar
          </CharString>
          <CharString index="10">
            hstem
            -5 callgsubr
            vstem
            -100 callgsubr
            return
          </CharString>
          <CharString index="11">
            240 vstem
            -98 callgsubr
            return
          </CharString>
          <CharString index="12">
            -61 52 -51 61 61 52 51 61 63 -52 50 -61 -61 -52 -50 -63 vhcurveto
            return
          </CharString>
          <CharString index="13">
            277 rmoveto
            -66 callgsubr
            -11 83 rlineto
            -58 hlineto
            -36 -32 callsubr
            799 vlineto
            23 -13 -19 4 -59 hhcurveto
            -137 -110 -12 -15 -65 hvcurveto
            -86 96 vlineto
            35 28 -5 -10 22 42 callgsubr
            2 -28 -31 vvcurveto
            return
          </CharString>
          <CharString index="14">
            -30 callsubr
            596 -20 -104 callgsubr
            return
          </CharString>
          <CharString index="15">
            47 callgsubr
            hintmask 10010110
            -83 callsubr
            hintmask 01100110
            33 callsubr
            hintmask 10100110
            -82 callsubr
            hintmask 10001110
            -34 callsubr
            return
          </CharString>
          <CharString index="16">
            -43 callgsubr
            110 hlineto
            15 -80 -112 6 callgsubr
            -4 -11 -92 hvcurveto
            -110 -58 callsubr
            62 callsubr
            return
          </CharString>
          <CharString index="17">
            9 140 rlineto
            -46 hlineto
            -31 -41 1 20 31 7 33 16 48 hvcurveto
            54 164 rlineto
            577 hlineto
            66 -167 20 -51 8 -39 1 -31 rlinecurve
            -9 -27 -33 13 callgsubr
            -17 hlineto
            return
          </CharString>
          <CharString index="18">
            -39 callgsubr
            -88 callgsubr
            return
          </CharString>
          <CharString index="19">
            162 135 41 callsubr
            222 89 11 24 80 hvcurveto
            4 48 6 76 64 73 callsubr
            vlineto
            -40 -51 2 -33 hhcurveto
            -7 -88 -9 -48 74 callgsubr
            return
          </CharString>
          <CharString index="20">
            -19 -21 -59 -15 -68 hhcurveto
            -456 553 307 hlineto
            72 26 -25 -99 32 hvcurveto
            63 hlineto
            8 108 5 126 121 vvcurveto
            -52 hlineto
            -107 -29 return
          </CharString>
          <CharString index="21">
            97 callsubr
            413 202 vstem
            -91 callgsubr
            return
          </CharString>
          <CharString index="22">
            -116 -225 258 260 -52 hvcurveto
            160 56 127 119 213 vvcurveto
            312 -216 103 -404 -161 -290 -5 -20 -132 vhcurveto
            -110 120 vlineto
            33 32 0 -8 27 hvcurveto
            11 -23 5 -37 -49 vvcurveto
            return
          </CharString>
          <CharString index="23">
            -164 -23 callsubr
            526 -20 -101 callgsubr
            return
          </CharString>
          <CharString index="24">
            463 -3 callsubr
            -101 44 callsubr
            -96 113 vlineto
            31 19 -6 -9 19 hvcurveto
            7 -21 1 -24 -24 vvcurveto
            -647 -20 callgsubr
            -4 -84 rlineto
            return
          </CharString>
          <CharString index="25">
            76 75 -5 -8 96 hvcurveto
            -9 84 rlineto
            -120 19 -1 29 112 vvcurveto
            337 vlineto
            176 161 165 125 15 17 -3 -4 36 vhcurveto
            24 -146 rlineto
            90 hlineto
            25 276 rlineto
            return
          </CharString>
          <CharString index="26">
            hmoveto
            -80 callgsubr
          </CharString>
          <CharString index="27">
            260 -20 callsubr
            555 -20 -94 callgsubr
            return
          </CharString>
          <CharString index="28">
            679 1312 rmoveto
            269 108 -70 -219 -191 -109 -105 -243 -72 -57 1 1 -51 hvcurveto
            583 vlineto
            -217 -1056 rmoveto
            -53 18 callsubr
            -27 vhcurveto
            return
          </CharString>
          <CharString index="29">
            93 callsubr
            525 -20 -97 callsubr
            return
          </CharString>
          <CharString index="30">
            0 -70 callgsubr
            return
          </CharString>
          <CharString index="31">
            -25 callgsubr
            212 323 -105 callgsubr
            return
          </CharString>
          <CharString index="32">
            -20 30 callsubr
            hintmask 10101110
            -28 callsubr
            hintmask 10011110
            -1 callsubr
            hintmask 01101110
            -45 callgsubr
            hintmask 10101110
            44 callgsubr
            hintmask 01101110
            -73 callgsubr
            hintmask 10101110
            -11 89 -2 callgsubr
            return
          </CharString>
          <CharString index="33">
            1122 1212 rmoveto
            -19 -43 -73 -138 -69 -128 -41 -75 -44 -82 -49 -87 -321 547 -6 callgsubr
            -17 110 11 callsubr
            -4 -11 -84 hvcurveto
            29 29 callsubr
            33 hvcurveto
            23 -31 14 -38 31 -51 return
          </CharString>
          <CharString index="34">
            hstem
            237 213 vstem
            237 -94 callsubr
            return
          </CharString>
          <CharString index="35">
            hstem
            125 217 552 227 vstem
            342 1108 -61 callgsubr
            -66 callsubr
            return
          </CharString>
          <CharString index="36">
            -29 140 rlineto
            -44 hlineto
            -35 -30 1 8 -31 hvcurveto
            -20 31 -19 37 -21 56 rrcurveto
            return
          </CharString>
          <CharString index="37">
            113 1405 rmoveto
            4 -57 38 -211 -12 vvcurveto
            1 40 34 1 35 hhcurveto
            -4 43 -1 32 33 vvcurveto
            64 249 13 104 vhcurveto
            276 hlineto
            -814 -1179 rlineto
            -52 vlineto
            -40 5 -21 27 -20 vhcurveto
            782 hlineto
            111 77 0 24 59 hvcurveto
            3 1 -1 3 vvcurveto
            4 19 4 19 19 vvcurveto
            return
          </CharString>
          <CharString index="38">
            rmoveto
            132 -98 93 -135 -135 -97 -93 -132 -132 99 -93 133 131 102 88 137 vhcurveto
            -103 hmoveto
            -80 -54 -47 -76 -80 -48 47 80 80 52 49 76 80 50 -49 -80 vhcurveto
            endchar
          </CharString>
          <CharString index="39">
            253 35 callgsubr
            -167 -21 rlineto
            -32 -4 -15 -6 -35 vvcurveto
            -54 203 -613 vlineto
            -209 100 -101 196 117 109 18 41 83 vhcurveto
            -10 271 -131 -10 -15 -125 -8 -66 return
          </CharString>
          <CharString index="40">
            208 349 104 176 108 178 5 14 rlinecurve
            13 25 17 21 15 21 rrcurveto
            11 35 34 10 callgsubr
            85 hlineto
            40 110 17 callsubr
            -4 -11 -89 hvcurveto
            -24 -110 -7 callsubr
            return
          </CharString>
          <CharString index="41">
            -140 -125 -103 -160 -99 -111 17 62 -67 vhcurveto
            -27 51 -15 72 108 vvcurveto
            -150 6 -47 -268 rlineto
            -125 132 187 -44 197 hhcurveto
            278 229 145 279 238 -206 104 -308 123 hvcurveto
            -163 64 -102 68 124 vvcurveto
            return
          </CharString>
          <CharString index="42">
            903 345 -42 callsubr
            210 1141 rmoveto
            31 -1 26 -7 23 vhcurveto
            22 callsubr
            61 callsubr
            26 -6 -8 25 hvcurveto
            5 -23 2 -29 -35 vvcurveto
            -418 -36 callsubr
            return
          </CharString>
          <CharString index="43">
            -63 callsubr
            113 88 7 17 72 vhcurveto
            90 -164 -43 callsubr
            return
          </CharString>
          <CharString index="44">
            -84 -7 -54 callsubr
            return
          </CharString>
          <CharString index="45">
            -16 callgsubr
            -64 callgsubr
            return
          </CharString>
          <CharString index="46">
            140 -46 callgsubr
            354 vlineto
            -4 92 92 -1 92 hhcurveto
            return
          </CharString>
          <CharString index="47">
            0 45 callsubr
            return
          </CharString>
          <CharString index="48">
            rmoveto
            138 67 callgsubr
            323 rlineto
            -250 hlineto
            endchar
          </CharString>
          <CharString index="49">
            104 callsubr
            34 -11 callsubr
            return
          </CharString>
          <CharString index="50">
            -13 rmoveto
            9 85 73 4 76 hhcurveto
            73 67 -5 -8 92 hvcurveto
            -5 85 rlineto
            -116 19 -4 28 107 vvcurveto
            206 vlineto
            53 38 239 -291 29 -35 21 -27 15 -25 rlinecurve
            -17 -18 0 -31 vhcurveto
            -88 vlineto
            8 88 80 5 84 hhcurveto
            return
          </CharString>
          <CharString index="51">
            vlineto
            39 35 0 -11 -29 callsubr
            vvcurveto
            return
          </CharString>
          <CharString index="52">
            hstem
            434 213 vstem
            647 1032 -85 callgsubr
            return
          </CharString>
          <CharString index="53">
            -59 -65 vvcurveto
            -71 67 -15 59 return
          </CharString>
          <CharString index="54">
            -88 -57 58 161 hvcurveto
            593 251 vlineto
            51 20 7 61 hvcurveto
            52 -322 323 -132 vlineto
            -18 -48 -11 -27 -11 -35 -3 -28 rlinecurve
            return
          </CharString>
          <CharString index="55">
            -25 callsubr
            202 323 -97 callsubr
            return
          </CharString>
          <CharString index="56">
            -54 callgsubr
            93 -37 callsubr
            return
          </CharString>
          <CharString index="57">
            -105 40 -3 109 104 85 8 24 68 vhcurveto
            return
          </CharString>
          <CharString index="58">
            hlineto
            -74 callgsubr
            return
          </CharString>
          <CharString index="59">
            -36 37 -36 45 vhcurveto
            -11 -143 -31 -87 -59 -78 rrcurveto
            -43 24 15 -5 19 hhcurveto
            return
          </CharString>
          <CharString index="60">
            vlineto
            21 -17 -26 5 -64 hhcurveto
            -129 -106 -14 -13 -61 81 callgsubr
            36 28 101 callsubr
            return
          </CharString>
          <CharString index="61">
            -51 18 callsubr
            -29 vhcurveto
            -9 -29 return
          </CharString>
          <CharString index="62">
            -77 callsubr
            437 103 911 -20 return
          </CharString>
          <CharString index="63">
            1 8 -38 callgsubr
            return
          </CharString>
          <CharString index="64">
            vlineto
            -74 callgsubr
            return
          </CharString>
          <CharString index="65">
            rmoveto
            -153 -40 -108 -91 -132 hhcurveto
            -187 -94 130 283 260 79 173 207 87 114 -42 -67 62 hvcurveto
            9 -153 3 -159 -181 vvcurveto
            return
          </CharString>
          <CharString index="66">
            -84 callgsubr
            -345 -81 callsubr
          </CharString>
          <CharString index="67">
            -77 callsubr
            1326 125 return
          </CharString>
          <CharString index="68">
            -15 hvcurveto
            586 hlineto
            103 49 20 152 return
          </CharString>
          <CharString index="69">
            rmoveto
            -427 347 -347 427 427 347 347 427 427 -347 347 -427 -427 -347 -347 -427 vhcurveto
            112 hmoveto
            365 297 297 365 365 297 39 callsubr
            39 callsubr
            297 365 vhcurveto
            return
          </CharString>
          <CharString index="70">
            110 hlineto
            15 return
          </CharString>
          <CharString index="71">
            vlineto
            88 -88 -107 45 -137 hhcurveto
            -285 -170 -205 -361 -350 200 -177 244 131 131 44 112 88 hvcurveto
            -48 vlineto
            return
          </CharString>
          <CharString index="72">
            20 35 48 2 53 hhcurveto
            366 hlineto
            -670 -787 rlineto
            -59 vlineto
            -75 16 -6 31 vhcurveto
            478 hlineto
            return
          </CharString>
          <CharString index="73">
            13 -23 -37 17 -83 hhcurveto
            -174 -84 -113 -158 -99 hvcurveto
            return
          </CharString>
          <CharString index="74">
            86 -161 -43 callsubr
            return
          </CharString>
          <CharString index="75">
            -30 10 16 -23 hvcurveto
            -9 30 -4 37 44 vvcurveto
            return
          </CharString>
          <CharString index="76">
            rmoveto
            303 323 rlineto
            -251 hlineto
            -188 -322 rlineto
            472 -1 rmoveto
            302 323 rlineto
            -250 67 callgsubr
            -322 rlineto
            endchar
          </CharString>
          <CharString index="77">
            184 -45 callsubr
            return
          </CharString>
          <CharString index="78">
            29 hvcurveto
            11 -27 27 callsubr
            return
          </CharString>
          <CharString index="79">
            1153 744 rmoveto
            225 -150 93 -168 -131 -147 -57 -99 -101 vhcurveto
            return
          </CharString>
          <CharString index="80">
            -77 callsubr
            1451 -20 return
          </CharString>
          <CharString index="81">
            rmoveto
            -22 callsubr
            return
          </CharString>
          <CharString index="82">
            -24 -17 callgsubr
            return
          </CharString>
          <CharString index="83">
            76 75 -5 -8 96 hvcurveto
            -8 84 rlineto
            -116 19 -4 27 109 vvcurveto
            521 vlineto
            88 11 146 111 152 hhcurveto
            115 55 -42 -260 hvcurveto
            -363 vlineto
            -84 -6 -54 callsubr
            100 100 8 17 64 vhcurveto
            endchar
          </CharString>
          <CharString index="84">
            -24 -32 callgsubr
            return
          </CharString>
          <CharString index="85">
            421 157 205 271 return
          </CharString>
          <CharString index="86">
            -90 vlineto
            -39 -33 1 8 -31 hvcurveto
            return
          </CharString>
          <CharString index="87">
            -37 124 1250 121 return
          </CharString>
          <CharString index="88">
            51 callsubr
            67 57 -41 -123 35 vhcurveto
            97 224 hlineto
            27 -47 -66 25 -107 -23 callgsubr
            return
          </CharString>
          <CharString index="89">
            35 callsubr
            55 callsubr
            return
          </CharString>
          <CharString index="90">
            0 -129 hhcurveto
            return
          </CharString>
          <CharString index="91">
            140 -91 vlineto
            -39 -35 1 8 -29 hvcurveto
            -9 31 -5 12 callgsubr
            -3 366 -6 388 -5 149 rrcurveto
            return
          </CharString>
          <CharString index="92">
            88 86 -5 -8 76 hvcurveto
            -8 85 rlineto
            -119 19 -1 30 return
          </CharString>
          <CharString index="93">
            -77 callsubr
            627 114 585 135 return
          </CharString>
          <CharString index="94">
            -287 -141 220 404 return
          </CharString>
          <CharString index="95">
            -9 -29 -35 13 callgsubr
            return
          </CharString>
          <CharString index="96">
            0 47 callsubr
            return
          </CharString>
          <CharString index="97">
            1338 1068 rmoveto
            91 10 154 109 vvcurveto
            13 -29 -89 2 -121 -11 -281 -7 -105 -55 -337 7 -43 hhcurveto
            -119 -88 0 -15 -29 hvcurveto
            -109 11 -154 -91 vvcurveto
            138 hlineto
            return
          </CharString>
          <CharString index="98">
            -196 40 88 -426 364 hhcurveto
            151 return
          </CharString>
          <CharString index="99">
            hhcurveto
            54 96 hlineto
            15 -43 -80 5 -97 hhcurveto
            -96 -75 -5 -15 -52 hvcurveto
            return
          </CharString>
          <CharString index="100">
            21 callsubr
            25 hvcurveto
            -5 -25 -11 -28 -15 -36 rrcurveto
            return
          </CharString>
          <CharString index="101">
            25 callgsubr
            480 212 return
          </CharString>
          <CharString index="102">
            33 10 callgsubr
            return
          </CharString>
          <CharString index="103">
            -104 -84 107 -122 hhcurveto
            endchar
          </CharString>
          <CharString index="104">
            17 callgsubr
            -37 -11 callgsubr
            return
          </CharString>
          <CharString index="105">
            120 342 296 return
          </CharString>
          <CharString index="106">
            126 vlineto
            15 -36 -11 callgsubr
            -105 -12 -8 -33 hvcurveto
            return
          </CharString>
          <CharString index="107">
            125 -93 -21 return
          </CharString>
          <CharString index="108">
            rmoveto
            101 25 71 76 62 -47 62 -101 -68 -58 -47 -91 -71 40 -62 73 callgsubr
            endchar
          </CharString>
          <CharString index="109">
            -135 -103 -95 -187 -160 vvcurveto
            -68 31 -45 112 56 70 27 108 vhcurveto
            return
          </CharString>
          <CharString index="110">
            vlineto
            -46 callsubr
            -34 26 callsubr
            -89 return
          </CharString>
          <CharString index="111">
            31 -54 callgsubr
            return
          </CharString>
          <CharString index="112">
            89 -19 callgsubr
            return
          </CharString>
          <CharString index="113">
            36 -37 36 -45 vhcurveto
            11 141 29 91 61 76 rrcurveto
            43 -24 -15 5 -19 hhcurveto
            return
          </CharString>
          <CharString index="114">
            1 109 hhcurveto
            return
          </CharString>
          <CharString index="115">
            296 28 callsubr
            return
          </CharString>
          <CharString index="116">
            75 78 -1 -13 89 hvcurveto
            return
          </CharString>
          <CharString index="117">
            1291 221 rmoveto
            -81 -175 -148 -42 -137 hhcurveto
            -288 -185 198 432 344 141 265 335 hvcurveto
            return
          </CharString>
          <CharString index="118">
            rlineto
            15 -92 -115 0 -133 hhcurveto
            -113 -91 return
          </CharString>
          <CharString index="119">
            1305 101 rmoveto
            -153 -49 callsubr
            476 vlineto
            215 -93 101 -216 -145 -142 -51 -92 -97 vhcurveto
            return
          </CharString>
          <CharString index="120">
            1407 8 callgsubr
            406 -1306 rmoveto
            -144 hlineto
            return
          </CharString>
          <CharString index="121">
            -61 -50 -38 -84 -41 -49 11 13 -44 vhcurveto
            endchar
          </CharString>
          <CharString index="122">
            139 -31 138 hstemhm
            return
          </CharString>
          <CharString index="123">
            226 122 226 return
          </CharString>
          <CharString index="124">
            rlineto
            15 -69 -103 0 -121 hhcurveto
            -113 -90 return
          </CharString>
          <CharString index="125">
            -5 -41 -11 return
          </CharString>
          <CharString index="126">
            108 112 6 8 117 hvcurveto
            37 315 -86 12 rlineto
            return
          </CharString>
          <CharString index="127">
            hvcurveto
            -110 return
          </CharString>
          <CharString index="128">
            rlineto
            70 hlineto
            40 33 0 -11 return
          </CharString>
          <CharString index="129">
            3 -15 -19 37 callsubr
            return
          </CharString>
          <CharString index="130">
            -96 rlineto
            54 hlineto
            35 30 -5 -10 26 hvcurveto
            return
          </CharString>
          <CharString index="131">
            4 -21 957 113 return
          </CharString>
          <CharString index="132">
            -24 0 callsubr
            return
          </CharString>
          <CharString index="133">
            0 -40 hhcurveto
            return
          </CharString>
          <CharString index="134">
            5 -40 -53 return
          </CharString>
          <CharString index="135">
            -134 134 return
          </CharString>
          <CharString index="136">
            -110 rlineto
            74 hlineto
            39 35 0 -11 return
          </CharString>
          <CharString index="137">
            hstemhm
            247 214 479 213 return
          </CharString>
          <CharString index="138">
            -669 1298 123 hstem
            2 1298 rmoveto
            587 123 -587 hlineto
            endchar
          </CharString>
          <CharString index="139">
            -90 -2 -23 -122 -16 vhcurveto
            return
          </CharString>
          <CharString index="140">
            9 81 71 4 72 hhcurveto
            return
          </CharString>
          <CharString index="141">
            27 callsubr
            vvcurveto
            return
          </CharString>
          <CharString index="142">
            -140 rlineto
            return
          </CharString>
          <CharString index="143">
            rmoveto
            33 11 14 21 45 vvcurveto
            68 -913 vlineto
            -64 -15 -11 -66 hvcurveto
            -68 vlineto
            endchar
          </CharString>
          <CharString index="144">
            0 -23 hhcurveto
            -149 -122 -11 -16 -68 hvcurveto
            return
          </CharString>
          <CharString index="145">
            -498 108 -108 402 return
          </CharString>
          <CharString index="146">
            -297 -365 -365 -297 return
          </CharString>
          <CharString index="147" raw="1">
            1ffb03e5 070b  
          </CharString>
          <CharString index="148">
            -14 165 hhcurveto
            return
          </CharString>
          <CharString index="149">
            60 callsubr
            949 100 callgsubr
            return
          </CharString>
          <CharString index="150">
            -96 45 0 93 104 86 10 17 68 vhcurveto
            return
          </CharString>
          <CharString index="151">
            -12 -8 -32 hvcurveto
            return
          </CharString>
          <CharString index="152">
            -70 callgsubr
            693 120 342 8 callsubr
            return
          </CharString>
          <CharString index="153">
            0 105 -94 -21 937 105 return
          </CharString>
          <CharString index="154">
            -11 29 hvcurveto
            return
          </CharString>
          <CharString index="155">
            26 5 35 hhcurveto
            55 hlineto
            -17 96 rlineto
            15 -65 -105 5 -121 hhcurveto
            return
          </CharString>
          <CharString index="156">
            -374 122 1188 116 return
          </CharString>
          <CharString index="157">
            -178 -24 125 846 114 return
          </CharString>
          <CharString index="158">
            138 vlineto
            218 54 64 124 return
          </CharString>
          <CharString index="159">
            0 111 812 120 323 -20 hstemhm
            242 213 return
          </CharString>
          <CharString index="160">
            -153 -123 -8 -19 -91 vhcurveto
            -86 -41 callgsubr
            return
          </CharString>
          <CharString index="161">
            rmoveto
            -175 -110 -103 -288 -287 110 -105 175 return
          </CharString>
          <CharString index="162">
            hintmask 10111000
            13 return
          </CharString>
          <CharString index="163">
            1285 -21 323 -20 hstem
            return
          </CharString>
          <CharString index="164">
            -81 -180 67 hvcurveto
            123 hlineto
            return
          </CharString>
          <CharString index="165">
            88 -19 callgsubr
            return
          </CharString>
          <CharString index="166">
            52 4 37 11 31 vhcurveto
            return
          </CharString>
          <CharString index="167">
            0 101 -93 -21 return
          </CharString>
          <CharString index="168">
            -87 97 vlineto
            36 return
          </CharString>
          <CharString index="169">
            11 -31 5 return
          </CharString>
          <CharString index="170">
            96 422 -20 138 -20 72 callgsubr
            return
          </CharString>
          <CharString index="171">
            13 101 88 7 callsubr
            return
          </CharString>
          <CharString index="172">
            112 hstemhm
            281 214 return
          </CharString>
          <CharString index="173">
            117 188 return
          </CharString>
          <CharString index="174">
            -21 565 return
          </CharString>
          <CharString index="175">
            114 835 116 217 278 hstemhm
            return
          </CharString>
          <CharString index="176">
            -11 31 -4 12 callgsubr
            1053 368 vlineto
            return
          </CharString>
          <CharString index="177">
            -14 140 -105 -21 return
          </CharString>
          <CharString index="178">
            hstemhm
            29 callgsubr
            return
          </CharString>
          <CharString index="179">
            hstemhm
            52 callgsubr
            return
          </CharString>
          <CharString index="180">
            vvcurveto
            116 return
          </CharString>
          <CharString index="181">
            1 101 hhcurveto
            return
          </CharString>
          <CharString index="182">
            -12 callsubr
            -89 89 callgsubr
            return
          </CharString>
          <CharString index="183">
            93 -25 callgsubr
            return
          </CharString>
          <CharString index="184">
            111 105 287 288 -111 103 return
          </CharString>
          <CharString index="185">
            0 117 -115 -21 return
          </CharString>
          <CharString index="186">
            187 -187 269 return
          </CharString>
          <CharString index="187">
            13 101 84 74 callsubr
            return
          </CharString>
          <CharString index="188">
            -4 -11 19 hvcurveto
            return
          </CharString>
          <CharString index="189">
            139 -139 return
          </CharString>
          <CharString index="190">
            111 vlineto
            return
          </CharString>
          <CharString index="191">
            -232 110 -21 914 -20 hstem
            return
          </CharString>
          <CharString index="192">
            hhcurveto
            65 hlineto
            737 1395 19 return
          </CharString>
          <CharString index="193">
            13 120 109 1 123 hhcurveto
            return
          </CharString>
          <CharString index="194">
            -11 -92 hvcurveto
            return
          </CharString>
          <CharString index="195">
            29 -5 -10 return
          </CharString>
          <CharString index="196">
            358 0 124 -117 -21 return
          </CharString>
          <CharString index="197">
            -216 216 746 240 return
          </CharString>
          <CharString index="198">
            -20 hstem
            383 162 vstem
            72 return
          </CharString>
          <CharString index="199">
            -282 -60 -48 1 1 -41 hvcurveto
            return
          </CharString>
          <CharString index="200">
            -78 -25 callsubr
            return
          </CharString>
          <CharString index="201">
            -20 34 -20 hstemhm
            302 125 return
          </CharString>
          <CharString index="202">
            hintmask 10111110
            140 return
          </CharString>
          <CharString index="203">
            307 -162 vlineto
            return
          </CharString>
          <CharString index="204">
            hstem
            66 callsubr
            return
          </CharString>
          <CharString index="205">
            hvcurveto
            hintmask 10111000
            return
          </CharString>
          <CharString index="206">
            0 9 -29 hvcurveto
            return
          </CharString>
          <CharString index="207">
            104 258 103 return
          </CharString>
          <CharString index="208">
            -6 -8 23 hvcurveto
            return
          </CharString>
          <CharString index="209">
            535 -20 return
          </CharString>
          <CharString index="210">
            225 hstemhm
            return
          </CharString>
          <CharString index="211">
            90 vlineto
            40 return
          </CharString>
        <CharString name=".notdef">
          -729 endchar
        </CharString>
        <CharString name="A">
          321 -45 callsubr
          hstemhm
          hintmask 10110000
          -96 callgsubr
          hintmask 01110000
          -30 35 callsubr
          hintmask 10110000
          80 callsubr
          hintmask 01110000
          9 callgsubr
          hintmask 10110000
          -90 callsubr
          hintmask 01110000
          19 35 callsubr
          hintmask 10110000
          64 callsubr
          hintmask 01110000
          9 callsubr
          hintmask 10110000
          -71 callsubr
          endchar
        </CharString>
        <CharString name="AE">
          1005 70 callsubr
          423 103 153 -2 callsubr
          -127 127 hstemhm
          hintmask 01111000
          1330 hmoveto
          hintmask 10111000
          163 137 -14 165 36 callgsubr
          222 87 11 24 75 hvcurveto
          -7 48 -14 76 -12 64 -22 116 rcurveline
          -43 -51 2 -33 hhcurveto
          8 -60 3 -39 -31 vvcurveto
          -15 -1 -11 -1 -11 vhcurveto
          hintmask 10110100
          -19 -16 -56 -15 -68 hhcurveto
          -456 hlineto
          -124 553 rlineto
          307 hlineto
          74 28 -25 -99 56 hvcurveto
          63 hlineto
          -16 108 -23 126 -27 121 rrcurveto
          -52 hlineto
          -107 -5 -38 -4 -54 hhcurveto
          -340 hlineto
          -112 507 rlineto
          3 152 74 1 41 hhcurveto
          157 88 -5 -23 57 hvcurveto
          19 -31 14 -34 11 -29 19 -50 rcurveline
          146 6 -5 23 -29 75 -86 195 rlinecurve
          -896 hlineto
          -279 -524 -146 -277 -168 -291 -43 -89 rlinecurve
          -29 -51 -24 -39 -27 -31 rrcurveto
          -9 -32 -31 0 -33 hhcurveto
          -46 hlineto
          -51 35 callsubr
          hintmask 01111000
          13 102 83 74 callsubr
          hintmask 10111000
          68 67 -1 -13 75 hvcurveto
          30 140 rlineto
          -47 hlineto
          -29 -38 0 18 31 17 36 23 48 hvcurveto
          79 164 rlineto
          575 hlineto
          33 -167 rlineto
          7 -35 4 -30 -23 vvcurveto
          -15 0 -9 -1 -9 vhcurveto
          -9 -29 -33 13 callgsubr
          -22 89 callgsubr
          hintmask 01111000
          12 96 112 2 96 hhcurveto
          -750 526 rmoveto
          369 705 135 -705 rlineto
          endchar
        </CharString>
        <CharString name="Aacute">
          -93 callsubr
          -738 1431 -97 callgsubr
        </CharString>
        <CharString name="Abreve">
          321 162 333 65 198 endchar
        </CharString>
        <CharString name="Acircumflex">
          -93 callsubr
          -314 1449 -102 callgsubr
        </CharString>
        <CharString name="Adieresis">
          -30 callsubr
          308 103 callsubr
          427 16 callsubr
          hintmask 10111110
          -96 callgsubr
          hintmask 01111110
          -30 35 callsubr
          hintmask 10111110
          80 callsubr
          hintmask 01111110
          9 callgsubr
          hintmask 10111110
          -90 callsubr
          hintmask 01111110
          19 35 callsubr
          hintmask 10111110
          64 callsubr
          hintmask 01111110
          9 callsubr
          hintmask 10111110
          -71 callsubr
          -577 1578 -60 callgsubr
        </CharString>
        <CharString name="Agrave">
          -93 callsubr
          -574 1431 -59 callsubr
        </CharString>
        <CharString name="Aogonek">
          321 833 0 65 206 endchar
        </CharString>
        <CharString name="Aring">
          -30 callsubr
          124 99 callgsubr
          hstemhm
          580 100 callsubr
          hintmask 10111111
          -96 callgsubr
          hintmask 01111111
          -30 35 callsubr
          hintmask 10111111
          80 callsubr
          hintmask 01111111
          9 callgsubr
          hintmask 10111111
          -90 callsubr
          hintmask 01111111
          19 35 callsubr
          hintmask 10111111
          64 callsubr
          hintmask 01111111
          9 callsubr
          hintmask 10111111
          -71 callsubr
          -307 1507 -69 callsubr
        </CharString>
        <CharString name="Atilde">
          -30 callsubr
          284 139 -31 138 -106 callsubr
          hintmask 10110100
          -71 callsubr
          -718 1688 -72 callgsubr
          hintmask 10111000
          -79 callgsubr
          hintmask 10110100
          -4 callsubr
        </CharString>
        <CharString name="B">
          197 -77 callsubr
          694 116 528 129 hstemhm
          98 431 -223 223 547 219 -188 225 hintmask 10111001
          529 678 rmoveto
          3 26 25 -1 157 hhcurveto
          256 114 -98 -196 -164 -101 -96 -231 hvcurveto
          -246 hlineto
          hintmask 10111010
          547 938 rmoveto
          -180 -146 -88 -229 -60 -56 4 4 -56 vhcurveto
          512 vlineto
          18 45 8 131 hhcurveto
          253 100 -89 -171 hvcurveto
          hintmask 10110110
          -770 -808 rmoveto
          -53 18 callsubr
          -27 vhcurveto
          -12 callsubr
          hintmask 10111010
          -89 hlineto
          hintmask 01111010
          19 callgsubr
          hintmask 10111001
          9 173 165 5 173 hhcurveto
          375 348 26 367 207 -112 118 -224 30 hvcurveto
          hintmask 10110110
          176 27 123 135 160 vvcurveto
          256 -176 127 -349 -291 -221 -15 -25 -180 vhcurveto
          -114 vlineto
          1 43 47 3 41 hhcurveto
          31 27 -2 -3 23 hvcurveto
          11 -35 5 -48 -61 vvcurveto
          endchar
        </CharString>
        <CharString name="C">
          115 -37 54 callgsubr
          hintmask 10110000
          10 callsubr
          hintmask 11010000
          -10 callgsubr
          endchar
        </CharString>
        <CharString name="CR">
          -578 endchar
        </CharString>
        <CharString name="Cacute">
          115 76 429 67 194 endchar
        </CharString>
        <CharString name="Ccaron">
          115 189 408 67 207 endchar
        </CharString>
        <CharString name="Ccedilla">
          -3 38 callsubr
          59 54 callgsubr
          491 167 hintmask 10101110
          10 callsubr
          hintmask 01110110
          -10 callgsubr
          -725 -448 -62 callsubr
          hintmask 10110110
          14 callsubr
        </CharString>
        <CharString name="D">
          89 callsubr
          1328 139 hstemhm
          91 424 90 callsubr
          hintmask 10101100
          -4 callgsubr
          -888 vlineto
          64 callgsubr
          hintmask 01110100
          -90 -141 hlineto
          hintmask 10110100
          8 108 104 6 107 hhcurveto
          105 1310 rmoveto
          63 callgsubr
          -481 -229 -111 -456 -20 -20 -1 3 -21 hvcurveto
          endchar
        </CharString>
        <CharString name="Dcaron">
          358 167 401 68 207 endchar
        </CharString>
        <CharString name="Dcroat">
          89 callsubr
          22 -21 685 132 510 139 hstemhm
          91 424 -397 397 90 callsubr
          hintmask 1001100110000000
          -4 callgsubr
          -341 -99 vlineto
          hintmask 1001101010000000
          65 callgsubr
          hintmask 1001100110000000
          181 -415 hlineto
          64 callgsubr
          hintmask 0101110010000000
          -90 -141 hlineto
          hintmask 0011110010000000
          5 4 1 5 hhcurveto
          hintmask 1001110010000000
          7 104 97 6 104 hhcurveto
          105 672 rmoveto
          136 hlineto
          66 callgsubr
          -184 506 vlineto
          63 callgsubr
          -461 -216 -131 -429 hvcurveto
          -50 hlineto
          -17 -17 1 1 -17 hvcurveto
          endchar
        </CharString>
        <CharString name="E">
          96 -60 callsubr
          26 callgsubr
          hintmask 10101100
          -92 callgsubr
          hintmask 01110100
          19 callgsubr
          hintmask 10110100
          -12 callgsubr
          hintmask 01110100
          -88 callsubr
          hintmask 10101100
          -103 callsubr
          endchar
        </CharString>
        <CharString name="Eacute">
          -95 callgsubr
          -674 253 -97 callgsubr
        </CharString>
        <CharString name="Ecaron">
          99 -60 callsubr
          573 -20 -107 callsubr
          -616 238 -99 callsubr
        </CharString>
        <CharString name="Ecircumflex">
          -95 callgsubr
          -251 271 -102 callgsubr
        </CharString>
        <CharString name="Edieresis">
          16 -60 callsubr
          288 225 26 callgsubr
          -173 16 callsubr
          hintmask 1010111010000000
          -92 callgsubr
          hintmask 0111010110000000
          19 callgsubr
          hintmask 1011010110000000
          -12 callgsubr
          hintmask 0111010110000000
          -88 callsubr
          hintmask 1010111010000000
          -103 callsubr
          -514 400 -84 callgsubr
          hintmask 1011010110000000
          -69 callgsubr
        </CharString>
        <CharString name="Egrave">
          -95 callgsubr
          -510 253 -59 callsubr
        </CharString>
        <CharString name="Eogonek">
          99 -436 106 330 45 callsubr
          26 callgsubr
          227 166 hintmask 11010111
          -92 callgsubr
          hintmask 10111011
          19 callgsubr
          hintmask 11011011
          -12 callgsubr
          hintmask 10111011
          -88 callsubr
          hintmask 11010111
          -103 callsubr
          -199 -1413 -71 callgsubr
        </CharString>
        <CharString name="Eth">
          390 0 122 553 118 523 126 hstemhm
          86 437 -219 219 745 239 hintmask 11101100
          84 1303 rmoveto
          23 41 2 44 hhcurveto
          35 36 0 -7 25 hvcurveto
          11 -28 5 -35 -51 vvcurveto
          -391 -141 vlineto
          hintmask 11110100
          -47 -30 -1 -62 hvcurveto
          -55 vlineto
          hintmask 11101100
          218 -405 hlineto
          -120 -39 -23 -70 -38 vhcurveto
          -88 22 -1 72 vhcurveto
          443 hlineto
          428 347 172 536 621 -354 113 -432 -260 -206 -22 -24 -171 hvcurveto
          731 -721 rmoveto
          25 7 13 21 35 vvcurveto
          55 -331 520 vlineto
          95 73 3 51 hhcurveto
          365 162 -149 -452 -452 -209 -141 -341 -64 -63 2 5 -68 hvcurveto
          546 vlineto
          endchar
        </CharString>
        <CharString name="Euro">
          160 -37 139 404 119 152 120 440 131 hstem
          1266 246 rmoveto
          -100 -96 -104 -44 -121 hhcurveto
          -220 -132 153 251 -48 hvcurveto
          371 18 -1 19 hhcurveto
          75 -7 27 93 29 hvcurveto
          -523 hlineto
          -5 43 0 52 57 vvcurveto
          430 hlineto
          48 70 0 45 13 hvcurveto
          23 75 rlineto
          -574 hlineto
          293 37 118 147 197 hhcurveto
          164 90 -100 -144 69 hvcurveto
          124 18 rlineto
          -1 76 -1 76 73 vvcurveto
          80 -51 -185 52 -189 hhcurveto
          -325 -222 -215 -356 -59 hvcurveto
          -116 hlineto
          -31 -17 -5 -45 -11 hvcurveto
          -15 -70 rlineto
          176 hlineto
          -2 -31 -1 -32 -32 vvcurveto
          -20 0 -18 1 -19 vhcurveto
          -114 hlineto
          -39 -17 -1 -48 -11 hvcurveto
          -17 -70 rlineto
          212 hlineto
          -379 61 246 -164 301 hhcurveto
          215 157 73 165 84 hvcurveto
          endchar
        </CharString>
        <CharString name="F">
          79 -77 callsubr
          22 -21 685 131 338 8 callsubr
          hstemhm
          305 218 hintmask 10010110
          523 1303 rmoveto
          5 214 62 2 32 hhcurveto
          129 74 -7 -21 44 hvcurveto
          21 -60 6 -57 -27 vvcurveto
          146 6 -3 23 -4 73 -32 197 rlinecurve
          -440 hlineto
          -299 -234 -11 -19 -161 hvcurveto
          -108 119 vlineto
          35 30 1 -11 27 hvcurveto
          11 -25 5 -37 -49 vvcurveto
          -935 vlineto
          -46 -5 -36 -10 -26 vhcurveto
          -12 callsubr
          -89 hlineto
          hintmask 01011010
          19 callgsubr
          hintmask 00111010
          7 7 1 7 hhcurveto
          hintmask 10011010
          7 100 94 6 101 hhcurveto
          hintmask 01011010
          100 100 -7 -7 117 hvcurveto
          hintmask 10010110
          48 callgsubr
          413 264 vlineto
          71 27 -20 -97 32 hvcurveto
          63 hlineto
          8 108 4 126 121 vvcurveto
          -52 hlineto
          -98 -29 -38 -9 -53 hhcurveto
          -297 hlineto
          endchar
        </CharString>
        <CharString name="G">
          135 -37 134 430 126 684 121 hstemhm
          117 241 782 210 vstemhm
          896 1458 rmoveto
          -475 -304 -252 -523 -497 318 -223 407 216 175 58 80 117 hvcurveto
          352 vlineto
          23 1 49 5 127 vhcurveto
          1 -39 -34 0 -32 hhcurveto
          -216 -88 -15 -3 -46 hvcurveto
          -108 118 vlineto
          43 35 -3 47 callsubr
          11 -33 3 -47 -49 vvcurveto
          -232 vlineto
          -39 -80 -99 -16 -117 hhcurveto
          -316 -170 245 363 391 164 241 351 hvcurveto
          hintmask 11111000
          174 62 57 callsubr
          25 279 rlineto
          43 -67 -169 60 -192 hhcurveto
          endchar
        </CharString>
        <CharString name="H">
          436 7 -21 35 -21 676 135 626 -20 hstemhm
          288 218 683 217 hintmask 10111100
          1189 256 rmoveto
          -53 18 callsubr
          -27 vhcurveto
          75 callsubr
          hintmask 01111100
          15 117 108 -1 120 hhcurveto
          hintmask 10111100
          89 91 -1 -13 73 callgsubr
          48 callgsubr
          922 vlineto
          52 7 37 9 31 vhcurveto
          11 29 35 22 callgsubr
          39 35 -11 callsubr
          62 callsubr
          -37 -52 vvcurveto
          -370 -683 370 vlineto
          52 5 37 9 31 vhcurveto
          11 31 33 22 callgsubr
          40 34 0 -11 29 hvcurveto
          11 -31 6 -37 -52 vvcurveto
          -925 3 callsubr
          89 callgsubr
          hintmask 01111100
          15 117 109 -1 120 hhcurveto
          hintmask 10111100
          89 90 -1 -13 73 callgsubr
          97 callgsubr
          -33 0 9 -31 hvcurveto
          -9 31 -5 12 callgsubr
          417 683 vlineto
          endchar
        </CharString>
        <CharString name="I">
          -468 -27 callsubr
          72 callsubr
          hintmask 01110000
          79 -14 rmoveto
          hintmask 10110000
          -26 callgsubr
          hintmask 01110000
          58 callsubr
          hintmask 10110000
          -101 callsubr
          endchar
        </CharString>
        <CharString name="IJ">
          312 -177 126 51 126 1311 -20 hstem
          52 callgsubr
          797 218 vstem
          79 -14 rmoveto
          -26 callgsubr
          58 callsubr
          -101 callsubr
          1441 1054 rmoveto
          51 5 41 11 29 -50 callgsubr
          -84 -114 -17 callsubr
          -121 -98 38 callgsubr
          40 35 0 -11 28 hvcurveto
          11 -27 34 callsubr
          -830 vlineto
          -248 -19 -154 -148 -27 -28 3 4 -24 vhcurveto
          -41 8 -6 27 -6 28 -5 28 rlinecurve
          -9 48 -11 60 -5 53 -141 6 rcurveline
          -16 -229 -4 -80 -11 vvcurveto
          -48 72 205 -23 75 hhcurveto
          219 137 165 328 hvcurveto
          endchar
        </CharString>
        <CharString name="Iacute">
          11 callgsubr
          596 -20 72 callsubr
          hintmask 01111000
          79 -14 rmoveto
          hintmask 10111000
          -26 callgsubr
          hintmask 01111000
          58 callsubr
          hintmask 10111000
          -101 callsubr
          hintmask 01111000
          185 102 callgsubr
          -97 callgsubr
        </CharString>
        <CharString name="Icircumflex">
          11 callgsubr
          596 -20 hstemhm
          330 218 hintmask 01111000
          122 -14 rmoveto
          hintmask 10111000
          -26 callgsubr
          hintmask 01111000
          58 callsubr
          hintmask 10111000
          -101 callsubr
          hintmask 01111000
          608 1582 -102 callgsubr
        </CharString>
        <CharString name="Idieresis">
          11 callgsubr
          308 103 callsubr
          79 219 -11 218 -88 226 hintmask 01111010
          79 -14 rmoveto
          hintmask 10111010
          -26 callgsubr
          hintmask 01111010
          58 callsubr
          hintmask 10110100
          -103 callgsubr
          hintmask 10111010
          -89 hlineto
          hintmask 01111010
          338 1711 -41 callsubr
        </CharString>
        <CharString name="Igrave">
          11 callgsubr
          596 -20 72 callsubr
          hintmask 01111000
          79 -14 rmoveto
          hintmask 10111000
          -26 callgsubr
          hintmask 01111000
          58 callsubr
          hintmask 10111000
          -101 callsubr
          hintmask 01111000
          346 102 callgsubr
          -59 callsubr
        </CharString>
        <CharString name="Itilde">
          -465 -27 callsubr
          284 15 callsubr
          287 218 hintmask 01110100
          79 -14 rmoveto
          hintmask 10110100
          -26 callgsubr
          hintmask 01110100
          58 callsubr
          hintmask 10110100
          -101 callsubr
          hintmask 01101100
          147 1821 -72 callgsubr
          hintmask 10110100
          -79 callgsubr
          hintmask 10101100
          -4 callsubr
        </CharString>
        <CharString name="J">
          -237 91 callgsubr
          hstem
          537 218 vstem
          755 1180 rmoveto
          51 5 41 11 29 -50 callgsubr
          -84 -114 -17 callsubr
          -121 -98 38 callgsubr
          40 35 0 -11 28 hvcurveto
          11 -27 34 callsubr
          -830 vlineto
          -248 -19 -154 -148 -27 -28 3 4 -24 vhcurveto
          -41 8 -6 27 -6 28 -5 28 rlinecurve
          -9 48 -11 60 -5 53 -141 6 rcurveline
          -16 -229 -4 -80 -11 vvcurveto
          -48 72 205 -23 75 hhcurveto
          219 137 165 328 hvcurveto
          endchar
        </CharString>
        <CharString name="Jcircumflex">
          -483 91 callgsubr
          596 -20 hstem
          508 218 vstem
          726 1180 rmoveto
          51 5 41 11 29 -50 callgsubr
          -84 -114 -17 callsubr
          -121 -98 38 callgsubr
          40 35 0 -11 28 hvcurveto
          11 -27 34 callsubr
          -830 vlineto
          -248 -19 -154 -148 -27 -28 3 4 -24 vhcurveto
          -41 8 -6 27 -6 28 -5 28 rlinecurve
          -9 48 -11 60 -5 53 -141 6 rcurveline
          -16 -229 -4 -80 -11 vvcurveto
          -48 72 205 -23 75 hhcurveto
          219 137 165 328 hvcurveto
          197 1392 -102 callgsubr
        </CharString>
        <CharString name="K">
          205 -40 callsubr
          72 callsubr
          208 130 hintmask 10111000
          505 45 callgsubr
          52 6 37 -91 callsubr
          -37 -52 vvcurveto
          -938 vlineto
          -46 -5 -36 -10 -26 vhcurveto
          -12 callsubr
          -89 hlineto
          hintmask 01111000
          19 callgsubr
          hintmask 10111000
          12 108 100 2 108 36 callgsubr
          108 101 -2 -12 108 98 callsubr
          140 -89 vlineto
          -39 -35 99 callsubr
          -11 29 -5 41 51 vvcurveto
          258 495 rmoveto
          84 91 61 65 98 107 152 165 rlinecurve
          48 53 43 36 40 33 rrcurveto
          11 33 27 0 35 hhcurveto
          78 hlineto
          7 61 callgsubr
          -60 -85 0 -104 hhcurveto
          -124 -101 -4 -11 -101 hvcurveto
          -9 -110 rlineto
          55 hlineto
          36 28 0 -11 21 hvcurveto
          -18 -1 -17 -42 -45 vhcurveto
          -211 -224 -112 -124 -59 -68 -35 -40 -22 -27 -9 -13 3 -7 4 -6 5 -7 7 -11 10 -15 11 -11 309 -412 rcurveline
          39 -52 25 -38 12 -31 rrcurveto
          -9 -23 -35 13 callgsubr
          -19 hlineto
          hintmask 01111000
          19 callgsubr
          hintmask 10111000
          12 108 107 2 121 36 callgsubr
          95 87 -2 -12 99 98 callsubr
          -14 140 rlineto
          -79 hlineto
          -35 -32 0 9 -32 hvcurveto
          -33 31 -35 39 -40 51 rrcurveto
          endchar
        </CharString>
        <CharString name="L">
          71 70 callsubr
          1437 -20 hstemhm
          287 219 hintmask 01110000
          396 hmoveto
          hintmask 10110000
          57 callgsubr
          hintmask 01110000
          19 callsubr
          hintmask 10110000
          43 callgsubr
          1055 hlineto
          52 5 37 9 31 -63 callgsubr
          -4 -11 -92 hvcurveto
          -110 -58 callsubr
          62 callsubr
          -37 -52 vvcurveto
          -925 3 callsubr
          89 callgsubr
          hintmask 01110000
          46 callgsubr
        </CharString>
        <CharString name="Lacute">
          71 54 425 76 194 endchar
        </CharString>
        <CharString name="Lcaron">
          71 780 283 76 39 endchar
        </CharString>
        <CharString name="Ldotaccent">
          71 70 callsubr
          609 225 603 -20 hstemhm
          287 219 172 226 hintmask 01111100
          678 721 -84 callgsubr
          -282 -721 rmoveto
          hintmask 10111100
          57 callgsubr
          hintmask 01111100
          19 callsubr
          hintmask 10111100
          43 callgsubr
          1055 hlineto
          52 5 37 9 31 -63 callgsubr
          -4 -11 -92 hvcurveto
          -110 -58 callsubr
          62 callsubr
          -37 -52 vvcurveto
          -925 3 callsubr
          89 callgsubr
          hintmask 01111100
          46 callgsubr
        </CharString>
        <CharString name="Lslash">
          81 70 callsubr
          1437 -20 hstemhm
          82 424 -219 219 hintmask 01110000
          396 hmoveto
          hintmask 10110000
          57 callgsubr
          hintmask 01110000
          19 callsubr
          hintmask 10110000
          43 callgsubr
          533 hlineto
          377 235 rlineto
          149 vlineto
          -377 -235 rlineto
          373 vlineto
          52 5 37 9 31 -63 callgsubr
          -4 -11 -92 hvcurveto
          -110 -58 callsubr
          hintmask 10101000
          62 callsubr
          -37 -52 vvcurveto
          -510 vlineto
          hintmask 10110000
          -205 -127 rlineto
          -148 vlineto
          hintmask 10101000
          205 127 rlineto
          -267 3 callsubr
          89 callgsubr
          hintmask 01110000
          46 callgsubr
        </CharString>
        <CharString name="M">
          944 -40 callsubr
          hstemhm
          428 122 1076 231 -180 180 hintmask 10110100
          1677 199 rmoveto
          -59 -17 -14 -88 vhcurveto
          -81 hlineto
          hintmask 01111000
          12 -18 callsubr
          108 96 1 92 36 callgsubr
          115 100 -1 -13 112 98 callsubr
          -22 140 rlineto
          -53 hlineto
          -52 -41 3 9 -40 hvcurveto
          -9 31 -13 35 -4 52 -70 911 rcurveline
          -3 31 -2 25 23 vvcurveto
          18 1 15 3 13 vhcurveto
          15 19 43 5 43 hhcurveto
          86 hlineto
          -10 88 callgsubr
          -3 -2 1 -3 hhcurveto
          7 -71 -75 7 -97 hhcurveto
          -56 -111 -7 -8 -54 hvcurveto
          -64 -162 -138 -380 -216 -656 -13 14 -275 886 -126 298 rrcurveto
          8 -51 -72 7 -96 hhcurveto
          -118 -78 -4 -11 -77 20 callsubr
          104 vlineto
          47 33 -5 -11 28 hvcurveto
          7 -19 3 -19 -35 vvcurveto
          -17 -1 -22 -2 -26 vhcurveto
          -8 -135 -41 -555 -28 -212 -7 -52 -19 -38 -17 -31 rrcurveto
          -9 -32 -34 13 callgsubr
          -100 hlineto
          hintmask 01111000
          -22 -18 callsubr
          109 96 1 112 36 callgsubr
          92 93 -1 -13 111 98 callsubr
          12 140 rlineto
          -81 hlineto
          -83 -20 15 80 5 15 242 16 239 hvcurveto
          31 477 51 -153 51 -150 49 -145 rlinecurve
          83 -248 102 -297 72 -191 rrcurveto
          188 hlineto
          38 97 108 297 99 275 58 161 63 175 67 189 33 -431 rcurveline
          hintmask 10110100
          16 -227 18 -248 -89 vvcurveto
          endchar
        </CharString>
        <CharString name="N">
          406 -40 callsubr
          hstemhm
          308 166 768 82 callsubr
          168 hintmask 10111000
          7 callgsubr
          hintmask 01111000
          19 callgsubr
          hintmask 10111000
          94 callgsubr
          hintmask 01111000
          80 callgsubr
          hintmask 10111000
          -16 callsubr
          hintmask 01111000
          23 callgsubr
          hintmask 10110100
          -81 callgsubr
          endchar
        </CharString>
        <CharString name="NULL">
          endchar
        </CharString>
        <CharString name="Nacute">
          372 -40 callsubr
          576 -20 hstemhm
          308 166 768 82 callsubr
          168 hintmask 10111100
          7 callgsubr
          hintmask 01111100
          19 callgsubr
          hintmask 10111100
          94 callgsubr
          hintmask 01111100
          80 callgsubr
          hintmask 10111100
          -16 callsubr
          hintmask 01111100
          23 callgsubr
          hintmask 10111010
          -81 callgsubr
          369 509 -97 callgsubr
        </CharString>
        <CharString name="Ncaron">
          406 191 408 78 207 endchar
        </CharString>
        <CharString name="Ntilde">
          303 -40 callsubr
          264 15 callsubr
          308 166 768 82 callsubr
          168 hintmask 10110110
          7 callgsubr
          hintmask 01110110
          -140 87 callgsubr
          94 callgsubr
          hintmask 01110110
          80 callgsubr
          hintmask 10110110
          -16 callsubr
          hintmask 01110110
          23 callgsubr
          hintmask 10101101
          -81 callgsubr
          331 766 -72 callgsubr
          hintmask 10110110
          -79 callgsubr
          hintmask 10101110
          -4 callsubr
        </CharString>
        <CharString name="O">
          307 -20 callsubr
          -94 callgsubr
          endchar
        </CharString>
        <CharString name="OE">
          898 -37 124 -87 45 callsubr
          -100 100 21 -20 hstemhm
          41 callgsubr
          766 217 hintmask 1001010111000000
          2028 1437 rmoveto
          -906 hlineto
          -85 -110 21 -143 hhcurveto
          -59 callgsubr
          hvcurveto
          hintmask 0101100111000000
          204 85 37 158 hhcurveto
          hintmask 0011100111000000
          -88 callsubr
          hintmask 0101010111000000
          -87 callsubr
          -37 -4 -55 hhcurveto
          -340 504 hlineto
          5 213 63 2 32 hhcurveto
          133 77 -7 -21 47 hvcurveto
          11 -31 7 -34 5 -29 8 -50 rcurveline
          147 6 -3 23 -11 74 -13 67 rlinecurve
          -1699 -597 rmoveto
          hintmask 1001001111000000
          -22 callsubr
          153 109 -8 -19 76 vhcurveto
          -1188 vlineto
          -23 -76 -109 -12 -153 hhcurveto
          -13 callsubr
          hvcurveto
          endchar
        </CharString>
        <CharString name="Oacute">
          -80 callsubr
          -788 976 -97 callgsubr
        </CharString>
        <CharString name="Ocircumflex">
          -80 callsubr
          -364 994 -102 callgsubr
        </CharString>
        <CharString name="Odieresis">
          260 -20 callsubr
          267 225 hstem
          41 callgsubr
          119 16 callsubr
          161 -96 callsubr
          -627 1123 -60 callgsubr
        </CharString>
        <CharString name="Ograve">
          -80 callsubr
          -624 976 -59 callsubr
        </CharString>
        <CharString name="Ohungarumlaut">
          307 187 426 79 205 endchar
        </CharString>
        <CharString name="Omega">
          298 0 140 1220 63 hstem
          162 206 821 206 vstem
          1480 294 rmoveto
          -53 2 rlineto
          -138 -48 -23 -18 -89 hhcurveto
          -234 hlineto
          161 150 201 211 291 vvcurveto
          392 -256 239 -356 -352 -269 -253 -396 -328 216 -194 136 -112 vhcurveto
          -224 hlineto
          -82 -34 23 133 -45 hvcurveto
          -50 -2 49 -294 rlineto
          495 hlineto
          17 40 rlineto
          -139 232 -133 223 264 vvcurveto
          441 186 160 221 211 203 -155 -441 -300 -186 -261 -91 -163 vhcurveto
          15 -40 rlineto
          500 hlineto
          endchar
        </CharString>
        <CharString name="Oslash">
          260 -79 -21 63 122 1252 121 65 -20 hstem
          92 callgsubr
          vstem
          1450 714 rmoveto
          260 -81 216 -144 117 vhcurveto
          64 108 12 20 7 17 15 19 rlinecurve
          -11 35 -39 6 -64 11 -85 -145 rcurveline
          52 -100 -107 28 -133 hhcurveto
          -22 callgsubr
          -283 90 -201 161 -135 hvcurveto
          -50 -85 -15 -20 -11 -17 -11 -19 rlinecurve
          11 -37 39 -8 65 -9 77 130 rcurveline
          35 -16 rlineto
          -37 83 91 -14 104 hhcurveto
          -13 callgsubr
          hvcurveto
          -1094 -3 -26 callsubr
          105 87 -31 -62 68 vhcurveto
          -585 -992 rlineto
          -69 107 -34 153 199 vvcurveto
          428 -626 rmoveto
          -96 -80 24 47 -63 hvcurveto
          581 983 rlineto
          56 -103 28 -142 -180 vvcurveto
          -426 -154 -203 -272 vhcurveto
          endchar
        </CharString>
        <CharString name="Otilde">
          260 -20 callsubr
          243 15 callsubr
          92 callgsubr
          hintmask 11011100
          -98 callgsubr
          -826 1233 -27 callgsubr
        </CharString>
        <CharString name="P">
          85 -77 callsubr
          597 124 605 136 40 callgsubr
          517 224 hintmask 10111100
          695 1312 rmoveto
          237 109 -76 -225 -183 -86 -121 92 callsubr
          603 vlineto
          -217 -1056 -18 callgsubr
          hintmask 01111100
          19 callgsubr
          hintmask 10111100
          -31 callgsubr
          hintmask 01111100
          5 callsubr
          hintmask 10111100
          140 -46 callgsubr
          329 vlineto
          -4 64 53 -1 47 hhcurveto
          408 169 162 267 341 -215 95 -403 -232 -188 -6 -20 -149 20 callsubr
          110 vlineto
          39 42 -2 -5 21 hvcurveto
          11 -26 34 callsubr
          endchar
        </CharString>
        <CharString name="Q">
          356 -205 82 callsubr
          289 1253 121 hstemhm
          115 238 852 235 hintmask 10111000
          1440 736 rmoveto
          451 -3 -280 271 -378 hhcurveto
          -408 -256 -272 -460 -469 220 -248 361 -40 hvcurveto
          -144 152 150 -30 130 hhcurveto
          129 121 34 53 121 hvcurveto
          -27 105 rlineto
          -37 -135 -53 -16 -46 hhcurveto
          -85 -120 10 56 -67 hvcurveto
          344 92 130 345 299 vvcurveto
          -1087 -25 rmoveto
          419 156 207 270 270 156 -209 -416 vhcurveto
          hintmask 01111000
          -433 -156 -195 -270 -277 -149 208 419 vhcurveto
          endchar
        </CharString>
        <CharString name="R">
          183 -14 callsubr
          15 callgsubr
          hintmask 10111100
          -79 callsubr
          -12 callsubr
          -89 hlineto
          hintmask 01111100
          19 callgsubr
          hintmask 10111100
          -31 callgsubr
          hintmask 01111100
          5 callsubr
          hintmask 10111100
          -61 callsubr
          hintmask 01111100
          -9 callsubr
          hlineto
          hintmask 10111100
          140 -56 vlineto
          -85 callsubr
          endchar
        </CharString>
        <CharString name="Racute">
          -7 callgsubr
          566 -20 -99 callgsubr
          263 495 -97 callgsubr
        </CharString>
        <CharString name="Rcaron">
          -7 callgsubr
          564 -20 -99 callgsubr
          270 481 -99 callsubr
        </CharString>
        <CharString name="Rcommaaccent">
          156 -641 67 callsubr
          97 -77 callsubr
          140 487 0 114 585 135 40 callgsubr
          107 101 -101 271 154 225 hintmask 1100011110100000
          -79 callsubr
          hintmask 1001101110100000
          75 callsubr
          hintmask 1010011110100000
          -31 callgsubr
          hintmask 1001101110100000
          5 callsubr
          -61 callsubr
          -9 callsubr
          140 -56 hlineto
          -85 callsubr
          367 -1857 rmoveto
          hintmask 1100101101100000
          -83 callgsubr
        </CharString>
        <CharString name="S">
          -35 55 callgsubr
          -72 callsubr
          endchar
        </CharString>
        <CharString name="Sacute">
          -35 1 426 83 194 endchar
        </CharString>
        <CharString name="Scaron">
          -91 55 callgsubr
          571 -20 -72 callsubr
          116 586 -99 callsubr
        </CharString>
        <CharString name="Scedilla">
          -35 269 0 83 203 endchar
        </CharString>
        <CharString name="T">
          129 -77 callsubr
          1082 369 -125 77 callgsubr
          402 135 hintmask 10101110
          -10 callsubr
          hintmask 10011110
          113 13 86 21 45 vhcurveto
          368 -1069 hlineto
          -46 -5 -36 -10 -26 -29 callgsubr
          hlineto
          hintmask 01101110
          19 callgsubr
          hintmask 10101110
          86 callsubr
          hintmask 01101110
          88 90 -1 -13 104 hvcurveto
          hintmask 10011110
          76 callgsubr
          69 callsubr
          hintmask 10101110
          21 -45 13 -86 -113 vvcurveto
          endchar
        </CharString>
        <CharString name="Tcaron">
          129 52 410 84 207 endchar
        </CharString>
        <CharString name="Tcommaaccent">
          129 495 -437 84 44 endchar
        </CharString>
        <CharString name="Thorn">
          33 78 callsubr
          390 124 570 136 -136 378 hstemhm
          317 218 517 224 hintmask 10110110
          318 247 -18 callgsubr
          hintmask 01110110
          -136 87 callgsubr
          58 callgsubr
          hintmask 01110110
          100 100 -4 -15 117 hvcurveto
          hintmask 10110110
          136 -46 callgsubr
          126 vlineto
          -4 52 43 -1 39 hhcurveto
          77 hlineto
          352 178 154 255 325 -217 96 -341 -64 -61 -1 -2 -58 hvcurveto
          51 6 37 -43 callgsubr
          100 hlineto
          hintmask 10101110
          15 -80 -112 6 callgsubr
          -2 87 callsubr
          -102 -58 callsubr
          62 callsubr
          -37 -52 vvcurveto
          389 -132 rmoveto
          237 109 -75 -211 -171 -86 -113 92 callsubr
          563 vlineto
          4 51 56 1 64 hhcurveto
          endchar
        </CharString>
        <CharString name="U">
          345 21 callgsubr
          hstem
          240 219 736 170 vstem
          1365 45 callgsubr
          52 4 37 11 31 -50 callgsubr
          -76 -102 0 -117 hhcurveto
          -116 -90 -3 -11 -88 hvcurveto
          -111 90 -56 callsubr
          -604 vlineto
          -336 -118 -156 -253 -220 -145 137 279 vhcurveto
          680 vlineto
          51 5 40 9 29 -63 callgsubr
          -3 -11 -92 hvcurveto
          -111 -58 callsubr
          11 -27 34 callsubr
          -595 vlineto
          -379 154 -244 400 333 238 189 364 vhcurveto
          endchar
        </CharString>
        <CharString name="Uacute">
          208 21 callgsubr
          596 -20 hstem
          240 219 736 170 vstem
          1365 45 callgsubr
          52 4 37 11 31 -50 callgsubr
          -76 -102 0 -117 hhcurveto
          -116 -90 -3 -11 -88 hvcurveto
          -111 90 -56 callsubr
          -604 vlineto
          -336 -118 -156 -253 -220 -145 137 279 vhcurveto
          680 vlineto
          51 5 40 9 29 -63 callgsubr
          -3 -11 -92 hvcurveto
          -111 -58 callsubr
          11 -27 34 callsubr
          -595 vlineto
          -379 154 -244 400 333 238 189 364 vhcurveto
          -739 1174 -97 callgsubr
        </CharString>
        <CharString name="Ucircumflex">
          208 21 callgsubr
          596 -20 hstem
          240 219 736 170 vstem
          1365 45 callgsubr
          52 4 37 11 31 -50 callgsubr
          -76 -102 0 -117 hhcurveto
          -116 -90 -3 -11 -88 hvcurveto
          -111 90 -56 callsubr
          -604 vlineto
          -336 -118 -156 -253 -220 -145 137 279 vhcurveto
          680 vlineto
          51 5 40 9 29 -63 callgsubr
          -3 -11 -92 hvcurveto
          -111 -58 callsubr
          11 -27 34 callsubr
          -595 vlineto
          -379 154 -244 400 333 238 189 364 vhcurveto
          -216 1192 -102 callgsubr
        </CharString>
        <CharString name="Udieresis">
          208 21 callgsubr
          308 103 callsubr
          240 219 -20 16 callsubr
          182 170 hintmask 11110110
          1365 45 callgsubr
          52 4 37 11 31 -50 callgsubr
          -76 -102 0 -117 hhcurveto
          -116 -90 -3 -11 -88 hvcurveto
          -111 90 -56 callsubr
          -604 vlineto
          -336 -118 -156 -253 -220 -145 137 279 vhcurveto
          680 vlineto
          51 5 40 9 29 -63 callgsubr
          -3 -11 -92 hvcurveto
          -111 -58 callsubr
          11 -27 34 callsubr
          -595 vlineto
          -379 154 -244 400 333 238 189 364 vhcurveto
          -578 1321 -84 callgsubr
          hintmask 11101110
          -69 callgsubr
        </CharString>
        <CharString name="Ugrave">
          208 21 callgsubr
          596 -20 hstem
          240 219 736 170 vstem
          1365 45 callgsubr
          52 4 37 11 31 -50 callgsubr
          -76 -102 0 -117 hhcurveto
          -116 -90 -3 -11 -88 hvcurveto
          -111 90 -56 callsubr
          -604 vlineto
          -336 -118 -156 -253 -220 -145 137 279 vhcurveto
          680 vlineto
          51 5 40 9 29 -63 callgsubr
          -3 -11 -92 hvcurveto
          -111 -58 callsubr
          11 -27 34 callsubr
          -595 vlineto
          -379 154 -244 400 333 238 189 364 vhcurveto
          -575 1174 -59 callsubr
        </CharString>
        <CharString name="Uhungarumlaut">
          345 206 425 85 205 endchar
        </CharString>
        <CharString name="Uring">
          345 476 328 85 202 endchar
        </CharString>
        <CharString name="V">
          373 21 -21 1312 125 hstem
          889 215 rmoveto
          -10 hlineto
          -372 966 rlineto
          -20 52 -18 37 31 vvcurveto
          -1 callgsubr
          23 -37 21 -52 454 -1135 rcurveline
          -40 16 39 -6 60 hhcurveto
          104 hlineto
          149 363 164 440 138 378 19 52 17 37 19 104 callgsubr
          33 34 10 callgsubr
          52 hlineto
          24 61 callgsubr
          -65 -92 95 callgsubr
          -81 hvcurveto
          -5 85 callgsubr
          27 hvcurveto
          -1 -31 -5 -37 -19 -52 rrcurveto
          endchar
        </CharString>
        <CharString name="W">
          1143 21 -21 1437 -20 hstem
          2013 45 callgsubr
          -52 -200 -64 -216 -168 -556 rrcurveto
          -10 hlineto
          -365 1130 rlineto
          36 -14 -14 18 -51 hhcurveto
          -121 hlineto
          -13 -80 2 -96 -32 -114 -152 -561 -54 -168 -57 -158 rrcurveto
          -10 hlineto
          -313 965 -20 52 -14 37 -4 31 rlinecurve
          -1 callgsubr
          25 -36 19 -53 384 -1135 rcurveline
          -36 12 25 -10 35 hhcurveto
          160 hlineto
          137 333 108 332 93 341 295 -907 rcurveline
          3 -5 0 -5 1 -4 rrcurveto
          -68 21 7 -17 46 hhcurveto
          167 hlineto
          155 385 126 429 104 367 15 52 15 37 15 104 callgsubr
          32 34 10 callgsubr
          52 hlineto
          14 61 callgsubr
          -68 -91 95 callgsubr
          -80 hvcurveto
          6 85 callgsubr
          28 hvcurveto
          1 -7 0 -7 -8 vvcurveto
          -27 -3 -31 -11 -40 vhcurveto
          endchar
        </CharString>
        <CharString name="X">
          355 -40 callsubr
          hstemhm
          hintmask 10100000
          997 259 rmoveto
          39 -56 19 -37 13 -31 rrcurveto
          -8 -24 -34 -1 -39 hhcurveto
          -50 84 callgsubr
          109 105 1 104 hhcurveto
          hintmask 01100000
          98 78 -1 -13 98 hvcurveto
          hintmask 10100000
          140 -48 vlineto
          -36 -31 0 9 -32 hvcurveto
          -35 31 -25 38 -39 52 -367 497 rcurveline
          73 81 99 117 185 230 41 51 33 38 32 104 callgsubr
          37 35 10 callgsubr
          82 hlineto
          12 61 callgsubr
          -55 -78 0 -96 hhcurveto
          -117 -92 -4 -11 -96 hvcurveto
          -14 -110 rlineto
          40 hlineto
          40 32 0 -11 23 hvcurveto
          -13 -31 -23 -38 -40 -51 -252 -322 rcurveline
          -235 347 -34 50 -13 14 -8 31 rlinecurve
          11 23 33 0 40 hhcurveto
          61 hlineto
          -14 61 callgsubr
          -100 -121 0 -141 hhcurveto
          -101 -82 -4 -11 -72 hvcurveto
          15 29 callsubr
          35 hvcurveto
          31 -31 20 -38 36 -51 336 -477 rcurveline
          -376 -448 -45 -47 -28 -43 -32 -31 rlinecurve
          -9 -32 -31 0 -36 hhcurveto
          -88 84 callgsubr
          99 82 1 98 hhcurveto
          hintmask 01100000
          101 105 -1 -13 73 callgsubr
          hintmask 10100000
          140 -51 vlineto
          -39 -34 1 8 -24 hvcurveto
          12 31 16 40 39 53 239 330 rcurveline
          endchar
        </CharString>
        <CharString name="Y">
          328 -40 callsubr
          hstemhm
          677 214 hintmask 10110000
          -55 callgsubr
          hintmask 01110000
          19 callgsubr
          hintmask 10110000
          -31 callgsubr
          hintmask 01110000
          5 callsubr
          hintmask 10110000
          140 -91 vlineto
          -39 -34 -44 callsubr
          258 vlineto
          -67 callsubr
          endchar
        </CharString>
        <CharString name="Yacute">
          74 -40 callsubr
          576 -20 hstemhm
          677 214 hintmask 10111000
          -55 callgsubr
          hintmask 01111000
          19 callgsubr
          hintmask 10111000
          -31 callgsubr
          hintmask 01111000
          5 callsubr
          hintmask 10111000
          140 -91 vlineto
          -39 -34 -44 callsubr
          258 vlineto
          -67 callsubr
          -594 478 -97 callgsubr
        </CharString>
        <CharString name="Ydieresis">
          20 -40 callsubr
          288 103 callsubr
          466 221 -10 214 -5 213 hintmask 10111010
          -74 callsubr
          rrcurveto
          hintmask 10110100
          409 -691 rlineto
          14 callgsubr
          hintmask 10111010
          -89 hlineto
          hintmask 01111010
          19 callgsubr
          hintmask 10111010
          -31 callgsubr
          hintmask 01111010
          5 callsubr
          hintmask 10111010
          140 -91 vlineto
          -39 98 callgsubr
          hintmask 10110100
          -9 -34 callgsubr
          258 vlineto
          hintmask 10111010
          -67 callsubr
          -236 625 -84 callgsubr
          -425 -81 callsubr
        </CharString>
        <CharString name="Z">
          -30 37 callgsubr
          hstemhm
          982 162 hintmask 10110000
          -70 callsubr
          hintmask 01110000
          96 callsubr
          hintmask 10110000
          -33 callgsubr
          endchar
        </CharString>
        <CharString name="Zacute">
          -30 4 422 90 194 endchar
        </CharString>
        <CharString name="Zcaron">
          15 37 callgsubr
          592 -20 hstemhm
          982 162 hintmask 10111000
          -70 callsubr
          hintmask 01111000
          96 callsubr
          hintmask 10111000
          -33 callgsubr
          398 289 -99 callsubr
        </CharString>
        <CharString name="Zdotaccent">
          -30 37 callgsubr
          256 271 hstemhm
          478 274 230 162 hintmask 10111100
          -70 callsubr
          hintmask 01111100
          96 callsubr
          hintmask 10111100
          -33 callgsubr
          513 288 1 callsubr
        </CharString>
        <CharString name="a">
          -13 -44 callgsubr
          4 callgsubr
          hintmask 10111100
          -107 callgsubr
          hintmask 01111100
          -50 callsubr
          endchar
        </CharString>
        <CharString name="aacute">
          -89 callgsubr
          -688 1245 -97 callgsubr
        </CharString>
        <CharString name="abreve">
          -13 -44 callgsubr
          205 138 192 -20 4 callgsubr
          hintmask 10111111
          -107 callgsubr
          hintmask 01111111
          -50 callsubr
          hintmask 10111111
          -529 1385 -8 callgsubr
        </CharString>
        <CharString name="acircumflex">
          -89 callgsubr
          -264 1263 -102 callgsubr
        </CharString>
        <CharString name="acute">
          -35 56 callsubr
          528 1264 -97 callgsubr
        </CharString>
        <CharString name="adieresis">
          -107 -44 callgsubr
          238 103 callsubr
          102 215 -39 16 callsubr
          -82 212 hintmask 1011110010000000
          -107 callgsubr
          hintmask 0111110100000000
          -50 callsubr
          hintmask 1011101100000000
          -533 1392 -60 callgsubr
        </CharString>
        <CharString name="ae">
          568 -28 121 394 116 362 103 hstem
          18 callgsubr
          218 523 215 vstem
          1618 205 rmoveto
          -80 -76 -91 -32 -104 hhcurveto
          -212 -132 130 264 -39 callsubr
          259 -185 150 -241 -161 -128 -49 -92 -92 hvcurveto
          93 -64 -112 48 -177 hhcurveto
          -256 -161 -110 -115 -19 hvcurveto
          139 -88 rlineto
          107 61 87 103 161 hhcurveto
          142 50 -87 -207 -65 callgsubr
          -195 135 -104 190 143 102 72 71 79 hvcurveto
          72 56 19 19 10 5 rrcurveto
          -149 89 155 -74 208 hhcurveto
          188 136 56 139 76 hvcurveto
          -717 437 rmoveto
          233 12 90 121 177 hhcurveto
          176 69 -158 -179 -7 1 -5 -3 -5 hvcurveto
          -755 -399 rmoveto
          -65 -80 -89 -47 -84 hhcurveto
          -112 -72 60 127 -76 callgsubr
          endchar
        </CharString>
        <CharString name="agrave">
          -89 callgsubr
          -524 1245 -59 callsubr
        </CharString>
        <CharString name="ampersand">
          139 -37 131 563 131 251 382 -115 115 hstemhm
          74 231 -189 189 646 182 -182 416 hintmask 11010110
          935 657 rmoveto
          8 -75 rlineto
          5 -45 3 -56 -60 vvcurveto
          -226 -138 -101 -188 -233 -87 115 160 181 120 107 180 vhcurveto
          20 131 rmoveto
          -207 -94 128 132 140 82 118 194 hvcurveto
          hintmask 11100110
          148 55 -80 -187 59 hvcurveto
          123 hlineto
          24 279 rlineto
          42 -66 -166 61 -192 hhcurveto
          -315 -154 -151 -213 -172 105 -111 164 -40 hvcurveto
          -5 vlineto
          hintmask 11101010
          -209 -46 -102 -150 -159 vvcurveto
          -244 142 -167 391 332 194 140 240 108 -16 113 -13 93 vhcurveto
          70 hlineto
          72 26 -25 -122 32 hvcurveto
          hintmask 11101001
          63 278 hlineto
          endchar
        </CharString>
        <CharString name="aogonek">
          -13 -436 106 306 -49 callgsubr
          16 callgsubr
          159 -159 212 hintmask 11011101
          -107 callgsubr
          hintmask 10111110
          -50 callsubr
          hintmask 11011110
          -133 5 -71 callgsubr
        </CharString>
        <CharString name="approxequal">
          -71 266 113 36 112 90 115 35 114 hstem
          999 881 rmoveto
          -96 -56 -54 -53 -81 hhcurveto
          -69 -42 30 40 -75 hvcurveto
          30 -57 -64 49 -100 hhcurveto
          -120 -109 -79 -117 -59 hvcurveto
          76 -64 rlineto
          77 53 54 69 93 hhcurveto
          69 53 -30 -36 61 hvcurveto
          -54 92 59 -30 83 hhcurveto
          123 84 86 109 61 hvcurveto
          -75 -285 rmoveto
          -95 -58 -51 -53 -82 hhcurveto
          -64 -50 28 53 -88 hvcurveto
          29 -52 -64 38 -89 hhcurveto
          -117 -112 -78 -118 -59 hvcurveto
          76 -65 rlineto
          77 51 56 72 93 hhcurveto
          67 53 -33 -35 62 hvcurveto
          -53 90 64 -28 81 hhcurveto
          125 82 85 109 61 hvcurveto
          endchar
        </CharString>
        <CharString name="aring">
          -107 -44 callgsubr
          174 99 callgsubr
          hstemhm
          102 215 42 100 callsubr
          -54 212 hintmask 1011111101000000
          -107 callgsubr
          hintmask 0111111110000000
          -50 callsubr
          hintmask 1011111110000000
          -335 1441 -69 callsubr
        </CharString>
        <CharString name="asciicircum">
          -69 383 -21 846 -20 hstem
          677 1172 rmoveto
          36 -21 -32 0 -17 hhcurveto
          -67 hlineto
          -396 -703 -17 -31 -12 -30 -11 -29 rlinecurve
          11 -15 19 -13 31 -7 69 -16 rcurveline
          363 639 370 -641 102 18 rlineto
          10 14 5 15 17 vvcurveto
          28 -13 27 -12 24 vhcurveto
          endchar
        </CharString>
        <CharString name="asciitilde">
          -55 394 144 -8 141 hstemhm
          hintmask 10000000
          1026 645 rmoveto
          -44 -26 -68 -63 -109 hhcurveto
          hintmask 01000000
          -120 -192 133 -141 hhcurveto
          -86 -144 -68 -108 -27 hvcurveto
          11 -24 26 -32 39 -41 rrcurveto
          76 47 61 56 77 hhcurveto
          hintmask 10000000
          147 153 -136 173 hhcurveto
          98 113 49 100 32 hvcurveto
          -11 28 -22 34 -31 40 rrcurveto
          endchar
        </CharString>
        <CharString name="asterisk">
          -334 691 -21 770 -20 hstem
          457 670 rmoveto
          27 312 175 -245 132 106 -242 198 281 58 -39 153 -270 -126 117 263 -178 51 -30 -301 -177 224 -131 -114 248 -169 -286 -66 42 -155 268 135 -114 -251 rlineto
          endchar
        </CharString>
        <CharString name="at">
          599 -172 100 295 101 681 91 -44 -20 330 106 hstemhm
          133 180 257 184 879 118 hintmask 11011111
          1515 73 rmoveto
          -97 -157 -170 -48 -181 hhcurveto
          -380 -314 272 423 474 330 265 358 383 249 -260 -330 -239 -135 -209 -136 -76 -32 40 89 31 5 33 8 35 hvcurveto
          116 500 rlineto
          -107 hlineto
          -39 -65 rlineto
          hintmask 11101111
          77 -39 -63 32 -76 hhcurveto
          -288 -201 -271 -292 -216 130 -94 142 120 91 71 101 56 hvcurveto
          8 hlineto
          -96 27 73 -76 123 hhcurveto
          240 171 277 267 424 -325 277 -423 -478 -392 -343 -495 -436 346 -366 513 189 196 59 113 177 hvcurveto
          -800 533 rmoveto
          229 154 243 156 72 37 -38 -61 11 vhcurveto
          -265 -36 -55 -311 -192 hhcurveto
          -90 -57 88 115 hvcurveto
          endchar
        </CharString>
        <CharString name="atilde">
          -107 -44 callgsubr
          214 139 -31 138 4 callgsubr
          hintmask 10111011
          -107 callgsubr
          hintmask 01111011
          -50 callsubr
          hintmask 10110111
          -726 1502 -72 callgsubr
          hintmask 10111011
          -79 callgsubr
          hintmask 10110111
          -4 callsubr
        </CharString>
        <CharString name="b">
          77 0 87 -79 -21 32 -21 949 115 393 114 72 callgsubr
          557 226 hintmask 10011110
          999 544 rmoveto
          -300 -114 -157 -181 -72 -96 6 8 -81 vhcurveto
          -8 129 -5 143 125 vvcurveto
          121 5 106 15 100 vhcurveto
          81 89 96 41 102 hhcurveto
          167 83 -134 -269 hvcurveto
          hintmask 00111110
          -880 -546 rmoveto
          hintmask 10011110
          18 65 2 16 hhcurveto
          hintmask 01011110
          209 128 -13 213 hhcurveto
          241 216 201 363 327 -167 184 -265 -133 -118 -45 -104 -100 hvcurveto
          551 vlineto
          37 -2 36 -7 29 vhcurveto
          2 -18 -23 1 -28 hhcurveto
          -149 -114 -10 -17 -64 hvcurveto
          61 callsubr
          27 -6 -8 24 hvcurveto
          5 -37 2 -40 -41 vvcurveto
          -1086 vlineto
          -80 -29 -30 -68 -22 vhcurveto
          endchar
        </CharString>
        <CharString name="backslash">
          -369 -45 -21 1556 -20 hstem
          194 1443 rmoveto
          29 -24 -20 18 -48 hhcurveto
          -102 hlineto
          706 -1527 rlineto
          -19 18 25 -10 33 hhcurveto
          109 hlineto
          endchar
        </CharString>
        <CharString name="bar">
          -92 -227 -21 1843 -20 hstem
          510 146 vstem
          656 1548 rmoveto
          33 -11 -21 14 -44 hhcurveto
          -70 -1661 hlineto
          -61 2 -57 7 -53 vhcurveto
          -7 17 21 -4 29 hhcurveto
          70 hlineto
          endchar
        </CharString>
        <CharString name="braceleft">
          -558 -211 -21 1726 70 hstem
          232 164 vstem
          393 1317 rmoveto
          127 22 39 184 11 vhcurveto
          16 vlineto
          48 -44 6 -45 -171 -107 -44 -197 vhcurveto
          -427 vlineto
          -99 -38 -49 -94 -45 vhcurveto
          3 -15 -2 -23 1 -19 rrcurveto
          93 -35 37 -62 -112 vvcurveto
          -420 vlineto
          -201 103 -48 165 33 30 3 7 24 vhcurveto
          8 9 4 15 21 vvcurveto
          16 vlineto
          -43 4 -38 5 -32 11 rrcurveto
          -56 19 -34 18 120 vvcurveto
          406 vlineto
          137 -50 78 -88 28 vhcurveto
          92 29 43 87 129 vvcurveto
          endchar
        </CharString>
        <CharString name="braceright">
          -559 -232 71 1655 70 hstemhm
          102 363 -158 158 hintmask 11100000
          191 102 callgsubr
          rmoveto
          -47 -42 -6 -48 hvcurveto
          -16 vlineto
          hintmask 11010000
          154 -11 51 -11 -179 vvcurveto
          -369 vlineto
          -116 27 -114 109 -29 vhcurveto
          -116 -37 -20 -116 -154 vvcurveto
          -342 vlineto
          hintmask 11100000
          -133 -29 -33 -176 -11 vhcurveto
          -16 vlineto
          -49 42 -6 47 168 106 40 209 vhcurveto
          353 vlineto
          151 15 85 118 40 vhcurveto
          86 vlineto
          -112 43 -21 52 95 vvcurveto
          373 vlineto
          215 -77 54 -197 vhcurveto
          endchar
        </CharString>
        <CharString name="bracketleft">
          -612 90 callgsubr
          205 161 -161 370 hintmask 11100000
          366 -125 rmoveto
          1586 vlineto
          hintmask 11010000
          209 33 hlineto
          70 -41 0 -59 vhcurveto
          -270 -1793 279 hlineto
          52 39 2 67 hvcurveto
          35 vlineto
          endchar
        </CharString>
        <CharString name="bracketright">
          -609 90 callgsubr
          76 370 -161 161 hintmask 11100000
          76 -125 rmoveto
          -35 vlineto
          -69 54 0 64 vhcurveto
          252 1793 -324 hlineto
          -35 -8 -11 -18 -44 vvcurveto
          -33 vlineto
          hintmask 11010000
          209 -1586 hlineto
          endchar
        </CharString>
        <CharString name="breve">
          -1 1266 138 192 -20 hstem
          631 1404 -8 callgsubr
        </CharString>
        <CharString name="brokenbar">
          -709 -426 -21 1982 -20 hstem
          209 134 vstem
          343 1488 rmoveto
          33 -11 -22 14 -45 hhcurveto
          -56 -713 hlineto
          -60 1 -30 75 vhcurveto
          58 hlineto
          -424 vmoveto
          33 -11 -22 13 -45 hhcurveto
          -56 -712 hlineto
          -60 1 -29 75 vhcurveto
          58 hlineto
          endchar
        </CharString>
        <CharString name="bullet">
          -510 386 -21 548 -20 hstem
          100 638 rmoveto
          -151 122 -122 152 151 125 121 152 152 -125 123 -151 -152 -122 -123 -152 vhcurveto
          endchar
        </CharString>
        <CharString name="c">
          50 callsubr
          -75 callgsubr
          endchar
        </CharString>
        <CharString name="cacute">
          50 callsubr
          526 -20 -75 callgsubr
          -375 1210 -97 callgsubr
        </CharString>
        <CharString name="caron">
          24 1250 -21 374 -20 hstem
          551 1268 -99 callsubr
        </CharString>
        <CharString name="ccaron">
          50 callsubr
          542 -20 -75 callgsubr
          -548 1214 -99 callsubr
        </CharString>
        <CharString name="ccedilla">
          -252 38 callsubr
          72 125 846 114 hstemhm
          113 219 392 167 hintmask 01111100
          -82 callgsubr
          -546 -420 -62 callsubr
          hintmask 10111100
          14 callsubr
        </CharString>
        <CharString name="cedilla">
          -565 38 callsubr
          107 -20 hstemhm
          397 167 hintmask 01110000
          129 -366 -62 callsubr
          hintmask 10110000
          14 callsubr
        </CharString>
        <CharString name="cent">
          -54 -55 -21 166 123 1134 -20 hstem
          162 220 219 112 vstem
          601 235 rmoveto
          -131 51 -88 132 218 vvcurveto
          233 84 142 135 53 vhcurveto
          398 -714 rmoveto
          -92 -80 -89 -45 -117 hhcurveto
          859 vlineto
          100 -11 60 -51 47 -104 100 -21 rcurveline
          49 176 rlineto
          2 17 1 15 15 vvcurveto
          69 -44 -225 10 -41 hhcurveto
          -15 -15 0 -3 -19 hvcurveto
          90 vlineto
          53 -7 20 -61 vhcurveto
          -44 -179 hlineto
          -258 -56 -181 -193 -317 vvcurveto
          -296 167 -185 272 -29 vhcurveto
          -90 vlineto
          -54 0 -24 67 vhcurveto
          45 166 hlineto
          160 11 148 63 56 148 rrcurveto
          endchar
        </CharString>
        <CharString name="circumflex">
          -31 56 callsubr
          940 1282 -102 callgsubr
        </CharString>
        <CharString name="colon">
          -652 -34 278 535 276 hstem
          166 276 vstem
          305 -3 callgsubr
          endchar
        </CharString>
        <CharString name="comma">
          -798 -295 86 callgsubr
          118 -316 rmoveto
          -83 callgsubr
        </CharString>
        <CharString name="copyright">
          514 -54 112 224 96 684 90 230 112 hstem
          113 112 245 174 905 112 vstem
          1165 450 rmoveto
          -49 -73 -81 -23 -97 hhcurveto
          -148 -122 109 262 185 102 128 144 97 65 -47 -104 51 hvcurveto
          57 hlineto
          13 160 rlineto
          52 -57 -101 29 -108 hhcurveto
          -251 -186 -160 -287 -268 177 -155 248 109 104 24 41 68 hvcurveto
          -1063 373 -38 callsubr
          endchar
        </CharString>
        <CharString name="currency">
          -9 261 -21 39 129 647 129 40 -20 hstem
          176 132 639 132 vstem
          1096 1108 rmoveto
          1 1 0 5 7 vvcurveto
          35 -29 28 -32 31 vhcurveto
          -9 9 -132 -132 rlineto
          60 -81 -92 32 -97 hhcurveto
          -98 -90 -30 -61 -81 hvcurveto
          -80 80 -17 17 -17 11 -16 9 rlinecurve
          -31 -13 -31 -38 -31 -28 133 -131 rcurveline
          -60 -76 -30 -90 -103 vvcurveto
          -103 30 -90 60 -76 vhcurveto
          -82 -81 -17 -17 -12 -17 -9 -19 rlinecurve
          15 -27 36 -33 29 -28 131 129 rcurveline
          -57 76 91 -33 100 hhcurveto
          100 96 34 56 77 hvcurveto
          39 -39 53 -65 35 -13 28 12 31 31 27 27 8 8 rcurveline
          -130 132 rlineto
          61 75 30 89 104 vvcurveto
          103 -30 91 -60 78 vhcurveto
          -681 -271 rmoveto
          185 139 139 180 181 139 -141 -183 -181 -139 -142 -181 -176 -143 135 188 vhcurveto
          endchar
        </CharString>
        <CharString name="d">
          79 28 callgsubr
          hintmask 10111110
          -65 callsubr
          hintmask 01111110
          43 callsubr
          hintmask 10111110
          86 -173 -43 callsubr
          endchar
        </CharString>
        <CharString name="dagger">
          -333 21 -21 957 111 319 91 callsubr
          957 rmoveto
          311 -957 162 957 310 111 -310 319 -162 -319 -311 hlineto
          endchar
        </CharString>
        <CharString name="daggerdbl">
          -333 21 -21 280 112 603 111 281 91 callsubr
          995 rmoveto
          311 -603 -311 -112 311 -280 162 280 310 112 -310 603 310 111 -310 281 -162 -281 -311 hlineto
          endchar
        </CharString>
        <CharString name="dcaron">
          426 28 callgsubr
          182 33 callgsubr
          hintmask 1011111100000000
          -65 callsubr
          hintmask 0111111100000000
          43 callsubr
          hintmask 1011111100000000
          86 -173 -43 callsubr
          221 732 rmoveto
          -51 callgsubr
          hintmask 1011111010000000
          -48 callsubr
          endchar
        </CharString>
        <CharString name="degree">
          -421 805 111 421 110 hstem
          98 110 419 112 vstem
          98 1126 rmoveto
          -176 143 -145 176 180 142 145 176 176 -142 145 -180 -176 -143 -142 -179 vhcurveto
          110 hmoveto
          114 94 97 115 116 94 -97 -114 -116 -94 -94 -116 -110 -99 92 118 vhcurveto
          endchar
        </CharString>
        <CharString name="dieresis">
          -383 1299 225 hstem
          155 226 119 226 vstem
          500 1411 -41 callsubr
        </CharString>
        <CharString name="divide">
          -2 -34 278 246 145 144 276 hstem
          473 276 vstem
          612 -3 callgsubr
          610 -429 36 callsubr
        </CharString>
        <CharString name="dollar">
          42 -217 -21 1834 -20 hstem
          164 200 220 140 219 215 vstem
          724 1550 rmoveto
          33 -9 -21 13 -43 hhcurveto
          -67 -138 hlineto
          -260 -35 -160 -129 -226 vvcurveto
          -211 156 -98 264 -117 vhcurveto
          -551 vlineto
          -133 15 -87 72 -61 157 -100 40 rcurveline
          -59 -131 rlineto
          -6 -37 -3 -38 -37 vvcurveto
          11 -28 19 -13 35 -19 117 -65 128 -35 139 -7 rrcurveto
          -124 vlineto
          -59 3 -20 69 vhcurveto
          68 204 hlineto
          254 19 180 150 222 vvcurveto
          219 -173 111 -261 109 vhcurveto
          544 vlineto
          116 -19 67 -72 42 -101 93 -25 rcurveline
          46 151 4 31 1 32 1 31 rlinecurve
          65 -49 -152 35 -169 hhcurveto
          -352 -301 rmoveto
          23 96 68 64 121 16 rrcurveto
          -490 vlineto
          -137 56 -83 68 131 vvcurveto
          21 1 19 7 19 vhcurveto
          571 -843 rmoveto
          -127 -89 -89 -130 -19 vhcurveto
          494 vlineto
          136 -67 83 -69 -123 vvcurveto
          endchar
        </CharString>
        <CharString name="dotaccent">
          -554 1329 271 hstem
          223 274 vstem
          371 1329 1 callsubr
        </CharString>
        <CharString name="dotaccentcmb">
          -619 -37 279 hstem
          189 272 vstem
          327 -37 32 callgsubr
        </CharString>
        <CharString name="dotlessi">
          39 callgsubr
          -73 callsubr
          endchar
        </CharString>
        <CharString name="dotlessj">
          -395 49 callsubr
          -55 callsubr
          endchar
        </CharString>
        <CharString name="dslash">
          79 50 callgsubr
          118 132 -132 382 -114 -20 71 callsubr
          367 404 -213 213 -213 403 hintmask 1011011001000000
          900 1187 rmoveto
          -251 -36 callsubr
          hintmask 0111011001000000
          43 callsubr
          hintmask 1011011001000000
          86 -173 vlineto
          hintmask 1011011100000000
          -74 callgsubr
          918 134 vlineto
          66 callgsubr
          -182 167 vlineto
          31 -1 26 -7 23 vhcurveto
          hintmask 1010101100000000
          22 callsubr
          hintmask 1011011100000000
          61 callsubr
          26 -6 -8 25 hvcurveto
          hintmask 1011011010000000
          5 -23 2 -29 -35 vvcurveto
          -35 -104 vlineto
          65 callgsubr
          189 -842 -42 callsubr
          endchar
        </CharString>
        <CharString name="e">
          -89 -23 callsubr
          -101 callgsubr
          endchar
        </CharString>
        <CharString name="eacute">
          -84 callsubr
          -602 1097 -97 callgsubr
        </CharString>
        <CharString name="ecaron">
          -89 -23 callsubr
          542 -20 -101 callgsubr
          -547 1101 -99 callsubr
        </CharString>
        <CharString name="ecircumflex">
          -84 callsubr
          -178 1115 -102 callgsubr
        </CharString>
        <CharString name="edieresis">
          -164 -23 callsubr
          238 103 callsubr
          113 217 -79 16 callsubr
          28 215 hintmask 11111011
          -105 callsubr
          -447 1244 -84 callgsubr
          hintmask 11110111
          -69 callgsubr
        </CharString>
        <CharString name="egrave">
          -84 callsubr
          -438 1097 -59 callsubr
        </CharString>
        <CharString name="eight">
          -86 -20 callsubr
          hstemhm
          116 173 -173 198 523 193 -162 212 hintmask 11101000
          1030 1108 rmoveto
          229 -214 121 -241 -247 -212 -121 -226 -161 68 -119 195 -96 vhcurveto
          -199 -90 -86 -144 -178 vvcurveto
          -227 206 -133 275 vhcurveto
          hintmask 11100100
          283 222 123 281 196 -150 108 -155 69 hvcurveto
          hintmask 11101000
          131 101 124 93 174 vvcurveto
          -438 -466 rmoveto
          hintmask 11100100
          175 -69 101 -105 -133 vvcurveto
          -129 -94 -119 -199 -163 -123 90 179 141 80 110 137 69 vhcurveto
          hintmask 11011000
          331 423 rmoveto
          -151 -107 -83 -116 -65 vhcurveto
          -180 56 -120 99 144 vvcurveto
          153 104 85 157 156 106 -87 -151 vhcurveto
          endchar
        </CharString>
        <CharString name="ellipsis">
          728 -26 264 hstem
          164 243 465 243 466 243 vstem
          164 106 rmoveto
          -84 40 -48 81 81 41 48 84 84 -41 48 -81 -81 -40 -48 -84 vhcurveto
          708 hmoveto
          -84 38 -48 84 80 41 48 84 84 -41 48 -80 -84 -38 -48 -84 vhcurveto
          709 hmoveto
          -84 40 -48 81 80 42 48 84 84 -42 48 -80 -81 -40 -48 -84 vhcurveto
          endchar
        </CharString>
        <CharString name="emdash">
          496 96 callgsubr
          1719 519 rmoveto
          35 11 12 17 43 vvcurveto
          61 -1679 78 callgsubr
        </CharString>
        <CharString name="endash">
          -270 96 callgsubr
          952 519 rmoveto
          35 11 13 17 43 vvcurveto
          61 -913 78 callgsubr
        </CharString>
        <CharString name="eogonek">
          -89 -436 106 306 -32 callgsubr
          hstem
          113 217 157 166 200 -104 callsubr
          -296 -143 -71 callgsubr
        </CharString>
        <CharString name="equal">
          28 332 143 258 145 hstem
          1108 733 rmoveto
          33 11 14 20 47 vvcurveto
          67 -924 vlineto
          -61 -37 0 -76 hvcurveto
          -69 vlineto
          975 -401 rmoveto
          33 11 14 20 47 vvcurveto
          65 -942 vlineto
          -67 -13 -9 -67 hvcurveto
          -67 vlineto
          endchar
        </CharString>
        <CharString name="estimated">
          503 endchar
        </CharString>
        <CharString name="eth">
          49 -29 111 832 107 571 -20 hstem
          133 229 578 221 vstem
          313 1474 rmoveto
          105 -15 99 -35 92 -56 -164 -96 rcurveline
          -21 -12 -15 -14 -9 -15 3 -12 10 -9 11 -13 28 -36 rcurveline
          246 144 105 -80 83 -123 39 -177 rlinecurve
          71 -87 -92 25 -107 hhcurveto
          -281 -225 -186 -329 -343 221 -192 285 377 145 327 332 322 -107 281 -210 162 hvcurveto
          64 35 104 53 23 39 -5 11 -9 10 -7 13 -28 36 rcurveline
          -233 -139 -113 64 -126 34 -149 11 rlinecurve
          210 -1464 rmoveto
          -145 37 -68 129 244 vvcurveto
          265 92 141 185 124 103 -54 -144 59 vhcurveto
          9 -53 6 -53 -56 vvcurveto
          -291 -94 -181 -183 -35 -29 5 11 -24 vhcurveto
          endchar
        </CharString>
        <CharString name="exclam">
          -556 -22 278 1201 -20 hstemhm
          211 280 -234 180 -180 209 hintmask 11010000
          429 403 rmoveto
          -3 27 -1 31 32 vvcurveto
          69 5 100 7 129 vhcurveto
          hintmask 11001000
          28 516 1 27 24 vvcurveto
          68 -29 31 -84 -64 -40 -13 -25 -29 vhcurveto
          -1 -9 0 -9 -9 vvcurveto
          -33 14 -91 7 -133 vhcurveto
          35 -665 rlineto
          -59 3 12 -20 68 hhcurveto
          26 24 4 8 21 hvcurveto
          -78 -425 rmoveto
          hintmask 11100000
          94 46 68 69 68 -48 73 -92 -92 -48 -73 -68 -69 45 -68 95 hvcurveto
          endchar
        </CharString>
        <CharString name="exclamdown">
          -556 -1 -21 1201 278 hstemhm
          211 226 -226 255 -255 280 hintmask 11010000
          429 35 callgsubr
          8 -21 -24 4 -26 hhcurveto
          -68 -12 -20 -59 -3 hvcurveto
          -35 -665 rlineto
          -7 -133 -14 -91 -33 vvcurveto
          -9 0 -9 1 -9 vhcurveto
          -25 29 40 -13 64 hhcurveto
          84 29 31 68 hvcurveto
          hintmask 11100000
          24 -1 27 -28 516 vhcurveto
          -7 129 -5 100 69 vvcurveto
          32 1 31 3 27 vhcurveto
          -78 425 rmoveto
          -95 -45 -68 -69 -68 48 -73 92 hvcurveto
          hintmask 11001000
          92 48 73 68 69 -46 68 -94 hvcurveto
          endchar
        </CharString>
        <CharString name="f">
          -474 8 -21 34 -21 912 120 420 65 callsubr
          hintmask 10111000
          134 -13 rmoveto
          hintmask 01111000
          9 93 80 4 81 hhcurveto
          hintmask 10111000
          3 callgsubr
          236 vlineto
          33 8 15 19 41 vvcurveto
          52 -284 -19 callsubr
          -144 -16 vhcurveto
          endchar
        </CharString>
        <CharString name="fi">
          173 60 callsubr
          925 140 217 295 -112 65 callsubr
          489 79 callgsubr
          hintmask 01101110
          495 35 callgsubr
          -19 callsubr
          -146 -16 vhcurveto
          -84 87 callgsubr
          9 93 80 4 81 hhcurveto
          hintmask 01110101
          3 callgsubr
          514 vlineto
          5 -23 2 -31 -27 vvcurveto
          -550 vlineto
          -66 callgsubr
          hintmask 10110101
          -10 90 -2 callgsubr
          763 vlineto
          15 -15 -16 5 -20 -144 -45 -20 -163 hhcurveto
          hintmask 10110110
          158 375 8 callgsubr
          endchar
        </CharString>
        <CharString name="five">
          -26 -37 124 674 133 371 172 24 -20 hstem
          217 165 516 206 vstem
          386 1312 rmoveto
          -32 169 133 -15 117 hhcurveto
          135 63 12 40 32 hvcurveto
          -7 144 rlineto
          -21 -115 -113 -3 -154 hhcurveto
          -322 hlineto
          -48 -35 -7 -36 -24 hvcurveto
          -703 vlineto
          69 -19 rlineto
          65 77 86 24 84 hhcurveto
          239 126 -118 -215 -164 -83 -177 -228 -113 -67 26 34 -66 hvcurveto
          -46 242 -122 12 rlineto
          -316 vlineto
          -53 59 125 -69 251 hhcurveto
          305 191 185 301 270 -205 175 -260 -89 -78 -14 -44 -93 hvcurveto
          endchar
        </CharString>
        <CharString name="fl">
          161 103 callgsubr
          -80 -21 912 120 420 65 callsubr
          510 211 hintmask 10111100
          1005 281 rmoveto
          -64 callsubr
          1244 vlineto
          47 -108 -218 4 -181 -23 callgsubr
          -144 -16 vhcurveto
          -84 vlineto
          hintmask 01111100
          9 92 79 4 81 hhcurveto
          hintmask 10111100
          3 callgsubr
          236 vlineto
          33 8 15 19 41 vvcurveto
          52 -284 51 callsubr
          121 112 -5 -11 91 vhcurveto
          7 -31 1 -33 -33 vvcurveto
          endchar
        </CharString>
        <CharString name="florin">
          -432 -282 122 834 111 513 123 hstem
          112 674 rmoveto
          204 hlineto
          -104 -552 rlineto
          -260 -48 -45 -22 -186 hhcurveto
          -15 -118 rlineto
          -3 32 34 -1 32 hhcurveto
          214 87 94 275 53 hvcurveto
          110 587 rlineto
          226 hlineto
          20 111 rlineto
          -225 hlineto
          42 236 rlineto
          182 32 50 95 131 hhcurveto
          27 20 -1 -3 19 hvcurveto
          22 114 rlineto
          9 -27 -34 4 -27 hhcurveto
          -176 -136 -69 -231 -43 hvcurveto
          -64 -336 rlineto
          -205 hlineto
          endchar
        </CharString>
        <CharString name="four">
          -50 78 callsubr
          404 127 925 -20 hstemhm
          702 198 -198 479 hintmask 10111000
          900 385 rmoveto
          201 hlineto
          hintmask 10110100
          57 23 3 70 hvcurveto
          54 vlineto
          hintmask 10111000
          -281 848 hlineto
          61 -13 16 -80 vhcurveto
          -88 hlineto
          -58 -63 -172 -239 -424 -610 -13 -19 -12 -15 -5 -19 rrcurveto
          -37 13 -29 27 -21 vhcurveto
          627 -138 hlineto
          -46 callsubr
          -35 0 -39 hhcurveto
          -89 hlineto
          hintmask 01111000
          -136 vlineto
          hintmask 10111000
          58 callgsubr
          hintmask 01111000
          92 97 -4 -15 108 98 callsubr
          136 -21 callsubr
          -11 31 -3 12 callgsubr
          -674 262 rmoveto
          18 32 458 650 rlineto
          -682 vlineto
          endchar
        </CharString>
        <CharString name="foursuperior">
          -50 586 71 -62 -21 245 77 560 -20 hstemhm
          659 120 hintmask 10111000
          779 819 -62 callgsubr
          hlineto
          hintmask 01111000
          -83 vlineto
          hintmask 10111000
          8 65 59 4 68 36 callgsubr
          56 58 -3 -9 65 98 callsubr
          -30 callgsubr
          endchar
        </CharString>
        <CharString name="fraction">
          -1058 -59 -21 1609 -20 hstem
          436 1529 rmoveto
          -752 -1489 -20 -32 -18 -31 -15 -31 rlinecurve
          -17 9 24 -9 37 hhcurveto
          65 hlineto
          753 1489 19 36 17 32 16 28 rlinecurve
          16 -9 -25 8 -40 hhcurveto
          endchar
        </CharString>
        <CharString name="g">
          -158 -449 116 373 140 138 131 469 144 -115 115 -10 -20 hstemhm
          47 188 -125 189 -148 148 448 190 -190 328 -234 188 hintmask 1111000101000000
          750 1018 rmoveto
          24 -65 -78 20 -76 hhcurveto
          -252 -169 -144 -221 -125 52 -110 113 -68 hvcurveto
          -4 vlineto
          hintmask 1111000011000000
          -84 -21 -40 -81 -99 vvcurveto
          -61 26 -58 52 -5 vhcurveto
          -5 vlineto
          hintmask 1111001000010000
          -119 -35 -63 -74 -104 vvcurveto
          -156 131 -140 324 392 135 135 176 268 -227 50 -288 -184 -17 21 46 21 5 21 7 16 vhcurveto
          3 9 5 9 5 9 15 -3 16 -2 16 -2 rrcurveto
          -4 27 34 -3 29 hhcurveto
          hintmask 1111001001000000
          328 134 155 228 72 -24 73 -60 72 hvcurveto
          hintmask 1111001000100000
          222 18 hlineto
          hintmask 1110011000010000
          90 0 26 -72 vhcurveto
          -162 -1201 rmoveto
          -104 -53 -80 -266 -240 -47 100 84 35 23 45 24 37 vhcurveto
          14 22 16 22 18 22 65 3 rcurveline
          1 39 47 2 41 hhcurveto
          283 36 -75 -114 hvcurveto
          hintmask 1110100101000000
          -94 835 rmoveto
          -171 -95 -66 -130 -126 -97 62 175 175 66 86 160 141 81 -84 -177 vhcurveto
          endchar
        </CharString>
        <CharString name="germandbls">
          65 -22 107 -82 -21 1487 95 hstemhm
          218 213 159 188 174 199 -63 198 hintmask 10111100
          431 1041 rmoveto
          299 118 129 165 133 105 -85 -176 -49 -14 -40 -36 -48 vhcurveto
          -213 -31 -99 -88 -152 vvcurveto
          -145 78 -81 116 -53 vhcurveto
          hintmask 10111010
          162 -77 142 -48 -129 vvcurveto
          -101 -64 -81 -115 -103 -56 46 111 -45 vhcurveto
          -89 27 rlineto
          -40 -140 -10 -36 -21 vvcurveto
          -40 206 -54 114 195 205 93 242 177 -129 65 -170 80 vhcurveto
          -123 56 -86 45 103 vvcurveto
          80 66 66 137 27 39 -4 -7 31 vhcurveto
          hintmask 01111100
          52 47 21 46 87 vvcurveto
          268 -161 142 -279 -280 -213 -180 -367 vhcurveto
          -19 -19 2 -19 hhcurveto
          -44 -11 -9 -52 hvcurveto
          58 hlineto
          27 27 0 1 hvcurveto
          -732 vlineto
          -44 -4 -37 -9 -30 vhcurveto
          -16 -23 -30 -10 -35 hhcurveto
          -60 hlineto
          -10 -83 rlineto
          -17 66 89 -8 111 hhcurveto
          56 68 16 71 hvcurveto
          65 -6 59 84 vvcurveto
          endchar
        </CharString>
        <CharString name="glyph265">
          -236 endchar
        </CharString>
        <CharString name="glyph268">
          -236 endchar
        </CharString>
        <CharString name="grave">
          -37 56 callsubr
          694 1264 -59 callsubr
        </CharString>
        <CharString name="greater">
          126 45 -21 1091 -20 hstem
          195 1115 rmoveto
          -62 -131 906 -413 -904 -416 16 -92 15 -29 20 -10 rlinecurve
          22 5 23 11 1022 469 rrcurveto
          64 vlineto
          35 -5 26 -20 9 vhcurveto
          endchar
        </CharString>
        <CharString name="greaterequal">
          -69 2 120 1102 -20 hstem
          143 1224 rmoveto
          -136 vlineto
          792 -374 rlineto
          -4 vlineto
          -790 -374 rlineto
          -135 vlineto
          913 451 rlineto
          122 vlineto
          -772 vmoveto
          120 -915 vlineto
          -10 -120 rlineto
          endchar
        </CharString>
        <CharString name="guillemotleft">
          84 callsubr
          754 134 rmoveto
          -11 15 13 -1 15 hhcurveto
          23 17 13 36 45 hvcurveto
          -220 377 233 377 -53 23 rlineto
          13 -31 -11 7 -19 hhcurveto
          -4 hlineto
          -11 -11 -12 -10 -13 -19 -222 -316 rcurveline
          -19 -27 -15 -27 -3 -27 rrcurveto
          -48 -430 rmoveto
          -8 14 14 -4 15 hhcurveto
          20 19 14 35 45 hvcurveto
          -248 410 261 411 -53 22 rlineto
          17 -28 -18 5 -17 hhcurveto
          -11 -11 -13 -11 -13 -19 -250 -350 rcurveline
          -20 -28 -11 -28 -7 -25 rrcurveto
          endchar
        </CharString>
        <CharString name="guillemotright">
          84 callsubr
          547 531 rmoveto
          -5 27 -12 27 -21 27 -215 316 rcurveline
          -13 19 -13 10 -11 11 rrcurveto
          -16 -20 -9 -11 -25 hvcurveto
          -50 -23 220 -377 -233 -377 60 -31 rlineto
          -12 23 16 -6 17 hhcurveto
          11 11 11 10 13 19 rrcurveto
          611 369 rmoveto
          -5 27 -13 27 -21 27 -243 350 rcurveline
          -12 17 -13 13 -11 11 -15 -1 -22 -6 -25 -15 -50 -22 rcurveline
          250 -411 -259 -410 rlineto
          -36 55 27 -13 30 hhcurveto
          11 11 11 9 15 20 rrcurveto
          endchar
        </CharString>
        <CharString name="guilsinglleft">
          -581 98 -21 938 -20 hstem
          133 579 rmoveto
          -98 vlineto
          331 -404 31 11 23 13 15 13 rlinecurve
          -8 25 -13 28 -181 377 197 393 10 20 8 23 -18 12 -25 12 -31 11 rrcurveto
          endchar
        </CharString>
        <CharString name="guilsinglright">
          -580 98 -21 938 -20 hstem
          549 514 rmoveto
          95 vlineto
          -333 406 -28 -9 -23 -12 -17 -15 rlinecurve
          4 -18 9 -20 188 -391 -200 -401 -10 -15 -4 -20 19 -15 25 -13 31 -9 rrcurveto
          endchar
        </CharString>
        <CharString name="h">
          102 60 callsubr
          959 115 394 115 72 callgsubr
          479 214 hintmask 10111100
          12 callsubr
          557 31 callgsubr
          7 -27 1 -30 -31 vvcurveto
          -1153 vlineto
          32 callsubr
          hintmask 01111100
          -4 -84 rlineto
          hintmask 10111100
          9 80 71 4 72 hhcurveto
          hintmask 01111100
          -24 callsubr
        </CharString>
        <CharString name="hbar">
          96 60 callsubr
          959 115 89 123 182 115 hstemhm
          43 399 -214 214 479 214 hintmask 10111101
          12 callsubr
          232 188 123 -188 202 31 callgsubr
          hintmask 10111011
          7 -27 1 -30 -31 vvcurveto
          -80 vlineto
          hintmask 10111101
          -185 -123 hlineto
          hintmask 01111011
          185 -950 hlineto
          32 callsubr
          -4 -84 rlineto
          hintmask 10111101
          9 80 71 4 72 hhcurveto
          hintmask 01111101
          -24 callsubr
        </CharString>
        <CharString name="hungarumlaut">
          -66 1264 323 hstem
          345 1264 -31 callsubr
        </CharString>
        <CharString name="hyphen">
          -577 96 callgsubr
          584 519 rmoveto
          66 callgsubr
          -499 vlineto
          65 callgsubr
          endchar
        </CharString>
        <CharString name="i">
          -620 -13 68 callsubr
          198 79 callgsubr
          hintmask 11110000
          198 13 callsubr
          hintmask 11101000
          -24 callgsubr
          endchar
        </CharString>
        <CharString name="iacute">
          -605 -318 0 245 194 endchar
        </CharString>
        <CharString name="icircumflex">
          39 callgsubr
          534 -20 hstem
          282 213 vstem
          282 -94 callsubr
          397 443 -102 callgsubr
        </CharString>
        <CharString name="idieresis">
          39 callgsubr
          246 103 callsubr
          -6 226 -7 213 -87 226 hintmask 11101000
          213 -94 callsubr
          hintmask 11110100
          126 572 -41 callsubr
        </CharString>
        <CharString name="igrave">
          39 callgsubr
          534 -20 hstem
          234 213 vstem
          234 -94 callsubr
          132 425 -59 callsubr
        </CharString>
        <CharString name="ij">
          70 -374 122 239 68 callsubr
          205 79 callgsubr
          458 274 -243 213 hintmask 11111010
          205 13 callsubr
          hintmask 11110101
          -24 callgsubr
          531 1021 -85 callgsubr
          hintmask 11111010
          27 callgsubr
        </CharString>
        <CharString name="increment">
          51 0 96 1325 -20 hstem
          1248 hmoveto
          51 vlineto
          -558 1370 -83 -21 -544 -1349 rlineto
          -51 vlineto
          962 96 rmoveto
          -851 hlineto
          423 1074 rlineto
          endchar
        </CharString>
        <CharString name="infinity">
          251 249 111 432 108 hstem
          72 118 1134 115 vstem
          1439 581 rmoveto
          188 -127 131 -173 -161 -99 -110 -103 -93 vhcurveto
          -20 -22 rlineto
          129 -107 -110 106 -152 hhcurveto
          -187 -138 -139 -189 -188 144 -135 165 165 107 113 123 107 hvcurveto
          -167 138 105 -69 123 hhcurveto
          163 150 127 205 hvcurveto
          -1042 -221 rmoveto
          -123 -84 94 116 123 71 99 124 134 83 -105 -104 82 hvcurveto
          12 -15 -24 -27 rlineto
          -84 -74 -89 -97 -112 hhcurveto
          729 432 rmoveto
          116 82 -83 -137 -100 -71 -112 -120 -106 -75 69 149 -128 hvcurveto
          75 69 102 139 131 hhcurveto
          endchar
        </CharString>
        <CharString name="integral">
          -436 -406 91 -91 193 1748 184 -87 87 hstemhm
          41 487 -241 197 -197 484 -438 195 hintmask 10100001
          333 -47 rmoveto
          -163 -29 -105 -58 vhcurveto
          hintmask 01101000
          -44 0 102 -57 hhcurveto
          -59 -45 -43 -53 -51 70 -46 107 201 109 239 504 hvcurveto
          hintmask 10010100
          553 -44 211 249 vvcurveto
          181 31 101 56 vhcurveto
          hintmask 10100010
          48 -5 -97 68 hhcurveto
          45 44 29 60 63 -94 32 -61 -165 -164 -131 -556 hvcurveto
          hintmask 10100001
          -236 46 -600 -243 vvcurveto
          endchar
        </CharString>
        <CharString name="itilde">
          -572 24 callsubr
          222 15 callsubr
          237 213 hintmask 11011000
          237 -94 callsubr
          -65 682 -72 callgsubr
          hintmask 11101000
          -79 callgsubr
          hintmask 11011000
          -4 callsubr
        </CharString>
        <CharString name="j">
          -450 49 callsubr
          217 278 hstemhm
          348 274 -243 213 hintmask 11101000
          592 1032 -85 callgsubr
          hintmask 11110000
          27 callgsubr
        </CharString>
        <CharString name="jcircumflex">
          -395 49 callsubr
          102 callsubr
          -55 callsubr
          116 1196 -102 callgsubr
        </CharString>
        <CharString name="k">
          -15 0 81 -74 -21 950 63 callsubr
          hintmask 10111100
          101 -57 callsubr
          hintmask 01111100
          51 callgsubr
          hintmask 10111100
          -52 callgsubr
          endchar
        </CharString>
        <CharString name="kcommaaccent">
          -13 71 callgsubr
          76 0 81 855 63 callsubr
          53 271 hintmask 11011111
          101 -57 callsubr
          51 callgsubr
          hintmask 10111111
          -52 callgsubr
          433 -713 rmoveto
          -39 callgsubr
          hintmask 11011111
          2 callgsubr
        </CharString>
        <CharString name="kgreenlandic">
          -15 0 81 -74 -21 950 96 24 -20 hstemhm
          225 214 hintmask 10111000
          98 -57 callsubr
          hintmask 01111000
          51 callgsubr
          hintmask 10111000
          -53 callgsubr
          417 -28 callgsubr
          -620 vlineto
          32 callsubr
          endchar
        </CharString>
        <CharString name="l">
          -622 60 callgsubr
          114 -36 callgsubr
          endchar
        </CharString>
        <CharString name="lacute">
          -625 60 callgsubr
          -20 264 -20 -36 callgsubr
          440 37 -97 callgsubr
        </CharString>
        <CharString name="lcaron">
          -280 60 callgsubr
          114 hstemhm
          219 211 196 33 callgsubr
          hintmask 11110000
          -78 callgsubr
          446 -338 rmoveto
          -51 callgsubr
          hintmask 11101000
          -48 callsubr
          endchar
        </CharString>
        <CharString name="ldot">
          -170 103 callgsubr
          384 225 745 114 hstem
          219 211 252 226 vstem
          -78 callgsubr
          463 -742 rmoveto
          -80 callgsubr
        </CharString>
        <CharString name="less">
          127 46 -21 1089 -20 hstem
          163 644 rmoveto
          -27 -12 -4 -20 -17 -8 1 -7 -70 vvcurveto
          608 -279 353 -162 107 -44 14 11 11 21 26 100 -905 412 rcurveline
          907 416 -29 98 -10 20 -14 11 rlinecurve
          -33 -11 -34 -16 -971 -443 rrcurveto
          endchar
        </CharString>
        <CharString name="lessequal">
          -62 2 120 1102 -20 hstem
          1058 201 rmoveto
          135 vlineto
          -793 376 rlineto
          4 vlineto
          793 372 rlineto
          136 vlineto
          -913 -450 rlineto
          -122 vlineto
          920 -650 rmoveto
          120 -932 -120 vlineto
          endchar
        </CharString>
        <CharString name="logicalnot">
          -3 276 -21 430 144 hstem
          980 144 vstem
          980 301 rmoveto
          -33 9 23 -13 44 hhcurveto
          68 574 -897 hlineto
          -61 -33 0 -77 hvcurveto
          -67 847 vlineto
          endchar
        </CharString>
        <CharString name="lozenge">
          -173 -123 -21 141 -21 1528 -20 hstem
          1026 676 rmoveto
          -414 828 rlineto
          -134 hlineto
          -417 -828 415 -820 rlineto
          136 hlineto
          283 820 rmoveto
          -347 -700 rlineto
          -4 hlineto
          -352 702 349 701 rlineto
          9 hlineto
          endchar
        </CharString>
        <CharString name="lslash">
          -594 60 callgsubr
          114 hstemhm
          42 388 -211 211 -211 385 hintmask 11010000
          219 845 rmoveto
          hintmask 11100000
          -177 -113 rlineto
          -131 vlineto
          hintmask 11010000
          177 112 rlineto
          -432 vlineto
          -64 callsubr
          577 vlineto
          hintmask 11001000
          174 111 rlineto
          133 vlineto
          hintmask 11100000
          -174 -111 rlineto
          564 -47 callsubr
          hintmask 11010000
          7 -32 2 -35 -35 vvcurveto
          endchar
        </CharString>
        <CharString name="m">
          746 103 callgsubr
          -80 -21 936 100 callgsubr
          hstemhm
          247 214 443 214 444 216 hintmask 10101110
          102 callgsubr
          281 rmoveto
          69 callgsubr
          89 8 17 69 vhcurveto
          -10 89 -2 callgsubr
          479 vlineto
          217 -93 97 -205 -196 -118 -104 -73 -65 vhcurveto
          118 -37 -87 59 -135 hhcurveto
          -151 -118 -53 -104 -117 hvcurveto
          hintmask 10011110
          127 vlineto
          15 -37 -63 5 -64 hhcurveto
          -97 -106 44 callsubr
          hintmask 10101110
          105 callgsubr
          34 88 callsubr
          23 hvcurveto
          5 -24 2 -29 -27 vvcurveto
          -632 vlineto
          -95 0 -26 -125 -16 vhcurveto
          -3 -85 rlineto
          hintmask 01101110
          44 callgsubr
          hintmask 10101110
          -15 callsubr
          115 vvcurveto
          510 vlineto
          83 29 130 107 126 hhcurveto
          121 37 -55 -221 hvcurveto
          -461 vlineto
          -92 -1 -19 -123 -16 vhcurveto
          -4 -85 rlineto
          hintmask 01101110
          9 68 76 4 81 hhcurveto
          hintmask 10101110
          88 88 -5 -8 80 hvcurveto
          -9 85 rlineto
          -129 19 -1 29 117 vvcurveto
          509 vlineto
          80 35 111 110 141 hhcurveto
          119 38 -57 -219 hvcurveto
          endchar
        </CharString>
        <CharString name="middot">
          -706 485 225 hstem
          166 226 vstem
          166 597 rmoveto
          -80 callgsubr
        </CharString>
        <CharString name="minus">
          48 490 145 hstem
          1103 490 36 callsubr
        </CharString>
        <CharString name="mu">
          261 -364 455 -118 118 -81 -21 952 113 hstemhm
          353 213 479 212 hintmask 10011100
          1045 531 rmoveto
          -21 callgsubr
          -9 -3 -147 -105 -133 hhcurveto
          -147 -32 81 112 hvcurveto
          723 vlineto
          23 -2 24 -21 53 callsubr
          34 callgsubr
          4 -30 -39 vvcurveto
          -904 vlineto
          -63 callsubr
          80 66 7 17 49 vhcurveto
          83 vlineto
          -35 -32 callsubr
          119 vlineto
          hintmask 01011100
          -19 43 42 -7 40 hhcurveto
          124 112 73 69 99 hvcurveto
          2 -34 rlineto
          hintmask 00111100
          -85 41 -7 102 101 88 9 17 75 vhcurveto
          83 -71 vlineto
          -31 -28 1 3 -25 hvcurveto
          -16 40 -7 51 76 vvcurveto
          742 vlineto
          23 -2 20 -20 53 callsubr
          23 hvcurveto
          8 -26 4 -32 -38 vvcurveto
          endchar
        </CharString>
        <CharString name="multiply">
          -31 227 -21 914 -20 hstem
          281 1091 rmoveto
          1 -7 -3 0 -7 hhcurveto
          -39 -20 -20 -47 -47 hvcurveto
          362 -363 -310 -309 -21 -21 -12 -18 -8 -17 rlinecurve
          5 -16 14 -12 19 -19 45 -44 rcurveline
          362 362 310 -309 rlineto
          -21 19 10 -19 25 hhcurveto
          16 4 12 14 20 19 45 43 rcurveline
          -362 363 309 310 19 19 13 16 9 19 rlinecurve
          -15 29 -35 33 -32 32 -363 -363 rcurveline
          endchar
        </CharString>
        <CharString name="n">
          122 42 callsubr
          30 callsubr
          hintmask 10101100
          -28 callsubr
          hintmask 10011100
          -1 callsubr
          hintmask 01101100
          -45 callgsubr
          hintmask 10101100
          44 callgsubr
          hintmask 01101100
          -73 callgsubr
          hintmask 10101100
          -11 89 -2 callgsubr
          endchar
        </CharString>
        <CharString name="nacute">
          121 42 callsubr
          555 -75 callsubr
          -602 995 -97 callgsubr
        </CharString>
        <CharString name="ncaron">
          122 42 callsubr
          571 -75 callsubr
          -553 999 -99 callsubr
        </CharString>
        <CharString name="nine">
          -37 -37 124 454 129 667 121 hstem
          104 209 566 219 vstem
          879 945 rmoveto
          -112 -5 -136 -163 -205 hhcurveto
          -132 -88 113 207 221 111 126 163 177 115 -132 -260 hvcurveto
          8 -238 rmoveto
          3 -20 1 -18 -20 vvcurveto
          -330 -137 -232 -220 -62 -66 15 31 -69 vhcurveto
          -42 230 -127 11 rlineto
          -304 vlineto
          -68 63 162 -39 144 hhcurveto
          392 169 288 541 464 -175 202 -325 -300 -194 -195 -276 -276 176 -170 230 141 119 58 108 117 hvcurveto
          endchar
        </CharString>
        <CharString name="notequal">
          -8 61 367 -138 138 249 82 callsubr
          363 hstemhm
          hintmask 10100000
          1074 290 rmoveto
          31 9 14 22 44 vvcurveto
          63 -467 vlineto
          106 249 rlineto
          316 hlineto
          31 11 14 19 45 vvcurveto
          64 -301 vlineto
          46 108 13 31 10 30 11 29 rlinecurve
          hintmask 10010000
          17 -10 -26 9 -43 hhcurveto
          -68 hlineto
          hintmask 10100000
          -96 -224 rlineto
          -428 hlineto
          -59 -35 0 -73 hvcurveto
          -66 463 vlineto
          -106 -249 rlineto
          -280 hlineto
          -64 -13 -10 -64 hvcurveto
          hintmask 01100000
          -64 298 vlineto
          -48 -113 -13 -31 -10 -28 -11 -28 rlinecurve
          hintmask 10100000
          -19 11 26 -10 41 hhcurveto
          69 hlineto
          hintmask 01100000
          97 229 rlineto
          endchar
        </CharString>
        <CharString name="ntilde">
          61 42 callsubr
          243 139 -31 138 30 callsubr
          hintmask 10101011
          -28 callsubr
          hintmask 10011011
          -1 callsubr
          hintmask 01101011
          -45 callgsubr
          hintmask 10101011
          44 callgsubr
          hintmask 01101011
          -73 callgsubr
          hintmask 10100111
          -11 89 -2 callgsubr
          -640 1252 -72 callgsubr
          hintmask 10101011
          -79 callgsubr
          hintmask 10100111
          -4 callsubr
        </CharString>
        <CharString name="numbersign">
          -20 73 509 -137 137 266 137 -137 503 hstemhm
          hintmask 10100000
          1038 445 rmoveto
          33 7 14 15 43 vvcurveto
          72 -213 vlineto
          57 266 rlineto
          154 hlineto
          72 3 24 61 hvcurveto
          52 -203 vlineto
          44 203 15 64 4 40 3 27 rlinecurve
          11 -1 4 7 vvcurveto
          hintmask 10010000
          9 -19 -27 1 -35 hhcurveto
          -53 hlineto
          hintmask 10100000
          -78 -366 rlineto
          -262 hlineto
          55 260 7 27 0 27 7 23 rlinecurve
          hintmask 10010000
          27 -12 -29 2 -45 hhcurveto
          -55 hlineto
          hintmask 10100000
          -77 -366 rlineto
          -165 hlineto
          -52 -24 -4 -61 hvcurveto
          -72 212 vlineto
          -55 -266 rlineto
          -156 hlineto
          -72 -3 -25 -59 hvcurveto
          hintmask 01100000
          -53 205 vlineto
          -44 -205 rlineto
          -16 -73 -7 -40 -28 vvcurveto
          hintmask 10100000
          -24 39 -2 33 vhcurveto
          64 hlineto
          hintmask 01100000
          77 372 rlineto
          265 hlineto
          -41 -205 -11 -56 -12 -45 -4 -32 rlinecurve
          hintmask 10100000
          -27 12 27 -7 45 hhcurveto
          54 hlineto
          hintmask 01100000
          77 372 rlineto
          -328 403 rmoveto
          264 hlineto
          -55 -266 rlineto
          -265 hlineto
          endchar
        </CharString>
        <CharString name="o">
          25 -25 callsubr
          -97 callsubr
          endchar
        </CharString>
        <CharString name="oacute">
          -78 callsubr
          146 745 -97 callgsubr
        </CharString>
        <CharString name="ocircumflex">
          -78 callsubr
          625 763 -102 callgsubr
        </CharString>
        <CharString name="odieresis">
          93 callsubr
          237 225 71 callsubr
          -47 16 callsubr
          74 229 hintmask 11110110
          -100 callgsubr
          301 892 -84 callgsubr
          hintmask 11101110
          -69 callgsubr
        </CharString>
        <CharString name="oe">
          593 -34 124 398 116 356 108 hstem
          29 callgsubr
          534 212 465 216 vstem
          1685 205 rmoveto
          -80 -72 -90 -35 -93 hhcurveto
          -203 -128 138 260 -11 hvcurveto
          539 hlineto
          96 46 23 148 259 -176 150 -227 -173 -125 -80 -109 -83 hvcurveto
          126 -77 -125 63 -172 hhcurveto
          -298 -200 -215 -335 -343 196 -209 298 179 116 71 105 78 hvcurveto
          -125 104 129 -51 149 hhcurveto
          196 135 60 141 76 hvcurveto
          -893 351 rmoveto
          -307 -90 -138 -176 -171 -97 138 307 307 98 135 168 170 98 -135 -307 vhcurveto
          211 86 rmoveto
          229 12 80 125 160 hhcurveto
          141 73 -148 -158 -17 -1 -16 -1 -15 hvcurveto
          endchar
        </CharString>
        <CharString name="ogonek">
          -279 -436 106 354 -20 hstem
          352 166 vstem
          615 24 -71 callgsubr
        </CharString>
        <CharString name="ograve">
          -78 callsubr
          309 745 -59 callsubr
        </CharString>
        <CharString name="ohungarumlaut">
          25 -52 callsubr
          49 745 -31 callsubr
        </CharString>
        <CharString name="one">
          -274 0 119 -117 -21 1294 183 hstemhm
          403 207 hintmask 10110000
          610 1428 rmoveto
          17 -11 -13 13 -39 hhcurveto
          -104 -151 -55 -56 -157 hvcurveto
          19 -94 95 17 rlineto
          4 21 20 1 17 hhcurveto
          43 28 -9 -20 25 hvcurveto
          -997 vlineto
          -52 -7 -38 -9 -31 vhcurveto
          -12 callsubr
          -89 hlineto
          hintmask 01110000
          -138 vlineto
          hintmask 10110000
          58 callgsubr
          hintmask 01110000
          96 98 -4 -15 113 hvcurveto
          hintmask 10110000
          138 -91 vlineto
          -39 -33 1 8 -31 hvcurveto
          -9 31 -5 12 callgsubr
          endchar
        </CharString>
        <CharString name="onehalf">
          537 -19 -21 40 88 492 70 167 75 566 94 callsubr
          1066 128 hintmask 11110111
          1155 1472 rmoveto
          -247 -469 -241 -460 -248 -467 -21 -40 -21 -32 -11 -29 rrcurveto
          -10 8 19 -5 29 85 callsubr
          36 17 31 15 31 rlinecurve
          13 -9 -21 6 -35 hhcurveto
          -783 -42 callgsubr
          924 86 -56 callgsubr
        </CharString>
        <CharString name="onequarter">
          456 -19 -21 52 71 162 77 258 70 808 94 callsubr
          866 120 hintmask 11110111
          1141 1472 rmoveto
          -265 -503 -264 -491 -261 -503 rrcurveto
          -10 8 19 -5 30 85 callsubr
          35 18 32 13 31 rlinecurve
          13 -8 -22 6 -35 hhcurveto
          -768 -42 callgsubr
          986 -486 -57 callgsubr
          endchar
        </CharString>
        <CharString name="onesuperior">
          -553 580 70 -61 -21 890 -20 hstemhm
          330 125 hintmask 10110000
          455 1440 rmoveto
          -48 callgsubr
          hlineto
          hintmask 01110000
          -82 vlineto
          hintmask 10110000
          8 65 61 4 65 hhcurveto
          hintmask 01110000
          57 60 -3 -9 68 hvcurveto
          hintmask 10110000
          20 callgsubr
          endchar
        </CharString>
        <CharString name="ordfeminine">
          -467 798 96 225 73 223 68 hstem
          72 146 289 145 vstem
          759 881 rmoveto
          -45 -31 1 8 -27 hvcurveto
          -5 35 0 43 56 68 1 76 76 vvcurveto
          131 -59 108 -231 -167 -104 -75 -64 vhcurveto
          10 -8 31 -19 53 -30 rrcurveto
          79 58 52 49 96 hhcurveto
          72 44 -42 -125 hvcurveto
          -56 -93 vlineto
          -236 -106 -70 -137 -123 86 -64 129 96 65 42 56 59 hvcurveto
          3 -51 rlineto
          -24 8 28 -12 48 hhcurveto
          65 53 5 12 47 hvcurveto
          -263 130 rmoveto
          -35 -52 -60 -27 -53 hhcurveto
          -69 -44 41 57 85 64 42 125 hvcurveto
          100 hlineto
          -60 -3 -47 -8 -56 vhcurveto
          endchar
        </CharString>
        <CharString name="ordmasculine">
          -415 798 77 532 76 hstem
          72 172 358 171 vstem
          773 1139 rmoveto
          216 -150 128 -199 -199 -153 -127 -217 -216 151 -125 201 199 150 125 216 vhcurveto
          -348 268 rmoveto
          121 56 -83 -183 -183 -56 -83 -121 -120 -61 81 184 184 56 83 125 hvcurveto
          endchar
        </CharString>
        <CharString name="oslash">
          -78 -146 -21 139 114 874 108 132 -20 hstem
          -5 callgsubr
          vstem
          1172 518 rmoveto
          201 -74 148 -121 93 vhcurveto
          76 136 15 20 12 20 11 19 rlinecurve
          -4 19 -18 11 -33 4 -44 11 rcurveline
          -104 -185 rlineto
          35 -75 -81 18 -89 hhcurveto
          -298 -232 -202 -348 -218 92 -160 142 -89 hvcurveto
          -64 -114 -13 -19 -13 -19 -11 -20 rlinecurve
          4 -19 18 -12 31 -4 45 -11 rcurveline
          97 173 rlineto
          -23 61 68 -11 73 hhcurveto
          287 242 189 357 hvcurveto
          -830 1 rmoveto
          292 87 149 213 77 60 -19 -39 45 vhcurveto
          -403 -719 rlineto
          -56 72 -23 107 157 vvcurveto
          601 hmoveto
          -289 -84 -144 -217 -57 -46 9 19 -37 vhcurveto
          391 696 rlineto
          33 -74 17 -97 -120 vvcurveto
          endchar
        </CharString>
        <CharString name="otilde">
          93 callsubr
          213 15 callsubr
          -5 callgsubr
          hintmask 11011100
          -100 callgsubr
          108 1002 -27 callgsubr
        </CharString>
        <CharString name="overscore">
          31 callsubr
        </CharString>
        <CharString name="p">
          67 56 callgsubr
          219 218 551 227 hintmask 11101100
          442 802 rmoveto
          110 105 117 34 91 hhcurveto
          161 72 -141 -283 -255 -86 -166 -198 -124 -83 66 125 -65 hvcurveto
          hintmask 11011100
          -4 740 rmoveto
          15 -36 -60 5 -64 hhcurveto
          -100 -109 44 callsubr
          105 callgsubr
          35 88 callsubr
          34 callgsubr
          0 -32 -31 vvcurveto
          -1097 vlineto
          -96 0 -20 -124 -19 vhcurveto
          -5 -88 rlineto
          16 76 65 2 76 hhcurveto
          73 81 -2 -16 100 hvcurveto
          -8 88 rlineto
          -120 19 -1 31 111 vvcurveto
          331 vlineto
          -72 96 105 -43 125 hhcurveto
          245 212 182 379 hvcurveto
          hintmask 11101100
          332 -166 193 -261 -145 -125 -53 -92 -88 vhcurveto
          endchar
        </CharString>
        <CharString name="paragraph">
          -52 -181 -21 1513 76 hstemhm
          272 348 -140 140 154 140 -140 348 hintmask 11011000
          655 1387 rmoveto
          -387 -186 -107 -276 -248 118 -161 280 hvcurveto
          -531 vlineto
          -46 callsubr
          -34 26 callsubr
          hintmask 11101000
          -89 -136 hlineto
          11 108 132 8 108 hhcurveto
          1494 154 -1494 vlineto
          hintmask 11100100
          108 132 -8 -11 73 callgsubr
          136 -89 vlineto
          -40 -34 99 callsubr
          hintmask 11101000
          -11 29 -5 41 51 vvcurveto
          1077 vlineto
          59 callsubr
          11 28 35 0 40 hhcurveto
          92 100 hlineto
          15 -84 -114 -17 callsubr
          endchar
        </CharString>
        <CharString name="parenleft">
          75 callgsubr
          117 188 vstem
          117 672 rmoveto
          -319 103 -317 168 -216 vhcurveto
          -25 23 25 -8 24 hhcurveto
          4 6 2 3 9 hvcurveto
          43 20 rlineto
          -149 245 -68 311 304 vvcurveto
          304 68 311 149 245 vhcurveto
          -43 20 rlineto
          3 -9 -6 2 -4 hhcurveto
          -24 -28 -6 -27 -20 hvcurveto
          -168 -221 -103 -311 -320 vvcurveto
          endchar
        </CharString>
        <CharString name="parenright">
          75 callgsubr
          283 188 vstem
          471 672 rmoveto
          318 -104 316 -167 218 vhcurveto
          27 -21 -27 6 -24 hhcurveto
          -4 -6 -2 -3 -9 hvcurveto
          -43 -20 rlineto
          149 -245 68 -311 -304 vvcurveto
          -304 -68 -311 -149 -245 vhcurveto
          43 -20 rlineto
          -3 9 6 -2 4 hhcurveto
          24 25 8 25 23 hvcurveto
          168 216 103 317 319 vvcurveto
          endchar
        </CharString>
        <CharString name="partialdiff">
          -189 -30 64 760 81 591 93 hstem
          70 179 586 150 vstem
          529 875 rmoveto
          -137 -120 -63 -89 -79 hvcurveto
          -69 -80 -54 -116 -144 vvcurveto
          -256 153 -157 232 388 142 472 356 124 -22 190 -83 158 vhcurveto
          181 -96 -136 108 -201 hhcurveto
          -128 -98 -40 -45 -72 hvcurveto
          -3 -5 -1 -8 -12 vvcurveto
          -51 39 -53 28 vhcurveto
          61 77 104 60 111 hhcurveto
          123 111 -102 -96 40 hvcurveto
          43 -101 14 -108 -96 vvcurveto
          -84 -10 -80 -7 -72 vhcurveto
          104 -69 -120 44 -100 hhcurveto
          46 -81 rmoveto
          112 88 -96 -56 27 hvcurveto
          -24 -167 -22 -105 -59 -123 rrcurveto
          -105 -51 -76 -108 -115 hhcurveto
          -130 -76 117 149 139 29 139 64 96 hvcurveto
          89 69 73 31 91 hhcurveto
          endchar
        </CharString>
        <CharString name="percent">
          383 -26 82 -69 -21 677 82 -18 82 586 82 3 -20 hstemhm
          92 154 316 156 203 159 315 156 hintmask 0110011111000000
          1312 1392 rmoveto
          -25 17 9 19 -103 32 -424 -694 -219 -363 -115 -187 -67 -110 -40 -68 -14 -25 126 -47 rcurveline
          hintmask 1001101111000000
          -35 1409 rmoveto
          105 52 -87 -207 -204 -52 -88 -105 -107 -52 88 204 207 51 87 73 callgsubr
          313 -294 rmoveto
          263 -140 113 -173 -173 -140 -114 -260 -259 143 -117 176 39 38 7 19 43 vhcurveto
          121 53 66 107 188 vvcurveto
          hintmask 1010101111000000
          519 -438 rmoveto
          107 51 -87 -207 -205 -52 -88 -105 -107 -51 88 205 207 52 87 105 hvcurveto
          -669 vmoveto
          181 133 132 243 247 -127 129 -187 -188 -128 -130 -246 -243 132 -132 184 hvcurveto
          endchar
        </CharString>
        <CharString name="period">
          -660 -34 279 hstem
          164 272 vstem
          302 -34 32 callgsubr
        </CharString>
        <CharString name="perthousand">
          839 -41 -21 28 89 583 111 583 89 28 -20 hstem
          92 141 288 140 142 141 288 140 65 140 289 141 vstem
          1088 749 54 callsubr
          173 77 callsubr
          -173 hvcurveto
          -89 vmoveto
          99 45 -79 -223 -224 -45 -79 -99 -99 -45 79 224 223 45 79 99 hvcurveto
          -711 761 rmoveto
          -174 -111 -105 -287 -285 111 -106 174 175 109 106 285 287 -109 105 -175 hvcurveto
          -89 vmoveto
          99 45 -80 -223 -221 -45 -81 -99 -99 -45 81 221 223 45 80 99 hvcurveto
          1345 -583 54 callsubr
          174 77 callsubr
          -174 hvcurveto
          -89 vmoveto
          96 48 -79 -223 -224 -48 -79 -96 -98 -47 79 224 223 47 79 98 hvcurveto
          -1487 -722 rmoveto
          123 hlineto
          874 1511 rlineto
          -124 hlineto
          endchar
        </CharString>
        <CharString name="pi">
          -18 -26 119 676 133 68 -20 hstem
          365 79 311 176 vstem
          1109 970 rmoveto
          -57 -35 -27 -11 -62 -208 -214 5 -152 hhcurveto
          -196 -80 -98 -74 -58 hvcurveto
          -4 -5 -3 -5 -4 -4 29 -47 rcurveline
          59 75 55 36 140 hhcurveto
          -205 -40 -369 -156 -184 vhcurveto
          13 -37 35 5 52 17 37 15 rlinecurve
          29 35 109 218 465 vvcurveto
          38 vlineto
          84 124 -1 -3 124 hvcurveto
          -11 -161 -10 -175 -191 vvcurveto
          -205 76 -57 108 77 84 44 96 56 vhcurveto
          -27 42 rlineto
          -39 -36 -26 -24 -43 hhcurveto
          -89 -4 104 194 126 1 145 11 96 hvcurveto
          57 50 1 8 35 hvcurveto
          27 35 33 72 13 80 rrcurveto
          endchar
        </CharString>
        <CharString name="plus">
          29 114 -21 440 144 438 -20 hstem
          571 145 vstem
          716 1068 rmoveto
          35 -11 -21 12 -45 hhcurveto
          -68 -438 -349 hlineto
          -60 -29 0 -76 hvcurveto
          -68 438 -356 vlineto
          -57 1 -27 76 vhcurveto
          68 440 355 hlineto
          56 29 1 76 hvcurveto
          67 -440 vlineto
          endchar
        </CharString>
        <CharString name="plusminus">
          -3 35 144 494 143 375 -20 hstem
          556 145 vstem
          1076 673 rmoveto
          35 11 13 21 45 vvcurveto
          66 -423 295 vlineto
          67 -11 13 -67 vhcurveto
          -67 -375 -341 hlineto
          -62 -20 -5 -71 hvcurveto
          -67 423 -295 vlineto
          -63 6 -16 70 vhcurveto
          69 374 hlineto
          375 -638 rmoveto
          35 11 13 21 45 vvcurveto
          67 -911 vlineto
          -67 -13 -9 -67 hvcurveto
          -68 vlineto
          endchar
        </CharString>
        <CharString name="product">
          221 -174 52 1462 68 hstem
          270 181 585 176 vstem
          1403 1408 rmoveto
          -1325 -53 hlineto
          181 -13 11 -10 -120 vvcurveto
          -1172 vlineto
          -132 -15 -17 -171 -13 vhcurveto
          -52 525 52 vlineto
          -157 16 -1 17 129 vvcurveto
          1241 vlineto
          52 9 7 58 vhcurveto
          443 hlineto
          60 15 -7 -61 hvcurveto
          -1232 vlineto
          -139 -13 -10 -164 -13 vhcurveto
          -52 540 52 vlineto
          -172 13 -15 18 133 vvcurveto
          1170 vlineto
          117 11 13 180 13 vhcurveto
          endchar
        </CharString>
        <CharString name="q">
          77 56 callgsubr
          113 227 546 223 hintmask 11101100
          900 947 rmoveto
          72 -92 -123 43 -145 hhcurveto
          -261 -166 -193 -332 -379 212 -182 245 125 105 43 72 96 hvcurveto
          -326 vlineto
          -115 -1 -32 -120 -19 vhcurveto
          -8 -88 rlineto
          16 100 81 2 73 hhcurveto
          76 65 -2 -16 76 hvcurveto
          -5 88 rlineto
          -124 19 0 20 96 vvcurveto
          1097 vlineto
          31 0 32 7 27 vhcurveto
          10 24 29 5 35 hhcurveto
          97 hlineto
          hintmask 11011100
          96 vlineto
          15 -37 -11 callgsubr
          -107 44 callsubr
          -14 -820 rmoveto
          -61 -59 -84 -50 -119 hhcurveto
          -198 -86 166 255 hvcurveto
          hintmask 11101100
          283 72 141 161 91 117 -28 -86 105 vhcurveto
          endchar
        </CharString>
        <CharString name="question">
          -276 -38 278 921 297 28 callsubr
          hstemhm
          329 180 -180 258 71 222 hintmask 11001100
          587 94 rmoveto
          74 -59 72 -79 -84 -54 -47 -100 -64 40 -67 107 58 71 39 93 vhcurveto
          -47 283 rmoveto
          hintmask 11010100
          -19 62 -12 73 40 132 371 128 296 vvcurveto
          221 -163 129 -242 -158 -225 -56 -241 -4 vhcurveto
          137 hlineto
          hintmask 10110100
          147 40 107 16 99 hhcurveto
          112 75 -80 -132 hvcurveto
          -250 -329 -95 -200 vvcurveto
          -87 77 -71 56 -32 vhcurveto
          endchar
        </CharString>
        <CharString name="questiondown">
          -276 -24 134 -134 297 784 -20 157 278 hstemhm
          88 222 71 258 -180 180 hintmask 10111100
          381 1340 rmoveto
          -74 59 -72 79 84 54 47 100 64 -40 67 -107 -58 -71 -39 -93 vhcurveto
          47 -283 rmoveto
          hintmask 01111010
          19 -62 12 -73 -40 -132 -371 -128 -296 vvcurveto
          -221 163 -129 242 158 225 56 241 4 vhcurveto
          -137 hlineto
          hintmask 10111100
          -147 -40 -107 -16 -99 hhcurveto
          -112 -75 80 132 hvcurveto
          250 329 95 200 vvcurveto
          87 -77 71 -56 32 vhcurveto
          endchar
        </CharString>
        <CharString name="quotedbl">
          -468 980 -21 102 callsubr
          hstem
          307 68 callgsubr
          -21 29 -64 -52 -34 -17 -27 -23 vhcurveto
          -69 6 -61 5 -60 vhcurveto
          16 -188 rlineto
          -56 5 4 -57 62 hhcurveto
          31 16 11 13 15 hvcurveto
          395 354 rmoveto
          2 21 1 24 27 vvcurveto
          56 -20 29 -64 -52 -34 -17 -27 -24 vhcurveto
          1 -69 6 -61 5 -60 16 -193 rcurveline
          -53 5 5 70 callgsubr
        </CharString>
        <CharString name="quotedblbase">
          -399 -301 -21 357 208 hstemhm
          77 270 -187 187 128 271 hintmask 11101000
          118 -322 rmoveto
          124 108 105 163 182 vvcurveto
          72 -34 40 -108 -56 -72 -24 -112 vhcurveto
          hintmask 11011000
          -35 38 -37 45 vhcurveto
          -3 -139 -40 -96 -56 -73 rrcurveto
          -43 23 14 -6 20 hhcurveto
          397 hmoveto
          124 110 107 157 182 vvcurveto
          69 -33 47 -111 -64 -58 -39 -88 -5 vhcurveto
          -52 38 -29 45 vhcurveto
          -13 -142 -29 -85 -57 -81 rrcurveto
          -43 23 14 -6 19 hhcurveto
          endchar
        </CharString>
        <CharString name="quotedblleft">
          -399 1001 207 356 -20 hstemhm
          105 79 callsubr
          129 79 callsubr
          hintmask 11100100
          733 102 callgsubr
          rmoveto
          2 callsubr
          hintmask 11011000
          6 callsubr
          -398 hmoveto
          2 callsubr
          hintmask 11101000
          6 callsubr
          endchar
        </CharString>
        <CharString name="quotedblright">
          -400 1022 -21 356 207 hstemhm
          124 33 callgsubr
          129 33 callgsubr
          hintmask 11101000
          163 1001 rmoveto
          -51 callgsubr
          hintmask 11011000
          -48 callsubr
          398 hmoveto
          -51 callgsubr
          hintmask 11100100
          -48 callsubr
          endchar
        </CharString>
        <CharString name="quoteleft">
          -796 1022 -21 563 -20 hstemhm
          115 79 callsubr
          hintmask 11010000
          345 102 callgsubr
          rmoveto
          2 callsubr
          hintmask 11100000
          6 callsubr
          endchar
        </CharString>
        <CharString name="quoteright">
          -797 1022 -21 563 -20 hstemhm
          84 33 callgsubr
          hintmask 11100000
          123 1001 rmoveto
          -51 callgsubr
          hintmask 11010000
          -48 callsubr
          endchar
        </CharString>
        <CharString name="quotesinglbase">
          -798 -301 86 callgsubr
          117 -322 rmoveto
          123 107 107 162 182 vvcurveto
          69 -31 45 -112 -55 -73 -24 -112 -35 38 -37 46 vhcurveto
          -13 -147 -30 -83 -56 -78 rrcurveto
          -43 21 15 -6 20 hhcurveto
          endchar
        </CharString>
        <CharString name="quotesingle">
          -831 980 -21 102 callsubr
          hstem
          117 195 vstem
          308 68 callgsubr
          -24 29 -61 -54 -56 -22 -37 -64 6 -55 5 -56 vhcurveto
          17 -193 rlineto
          -53 5 4 70 callgsubr
        </CharString>
        <CharString name="r">
          -266 -14 callgsubr
          47 callgsubr
          hintmask 10010100
          -83 callsubr
          hintmask 01100100
          33 callsubr
          hintmask 10100100
          -82 callsubr
          hintmask 10001100
          -34 callsubr
          endchar
        </CharString>
        <CharString name="racute">
          -266 -14 callgsubr
          545 -20 -92 callsubr
          21 473 -97 callgsubr
        </CharString>
        <CharString name="radical">
          -189 -300 -21 2142 -20 hstem
          1117 1802 rmoveto
          -81 19 -287 -1789 rlineto
          -4 hlineto
          -353 900 -326 -153 23 -69 181 90 457 -1121 43 23 rlineto
          endchar
        </CharString>
        <CharString name="rcaron">
          -249 -14 callgsubr
          561 -20 -92 callsubr
          -84 477 -99 callsubr
        </CharString>
        <CharString name="rcommaaccent">
          -249 -641 67 callsubr
          97 936 116 10 -20 47 callgsubr
          -125 271 hintmask 11101000
          -83 callsubr
          33 callsubr
          -82 callsubr
          hintmask 11010100
          -34 callsubr
          -76 -1453 rmoveto
          -83 callgsubr
        </CharString>
        <CharString name="registered">
          514 -54 112 235 67 284 68 341 78 251 112 hstem
          113 112 408 145 287 150 334 112 vstem
          113 720 -38 callsubr
          408 -285 rmoveto
          -29 -3 -23 -6 -17 vhcurveto
          -5 -13 -16 -1 -16 hhcurveto
          -66 -78 hlineto
          7 64 55 4 64 hhcurveto
          64 62 -3 -8 76 hvcurveto
          78 -52 vlineto
          -23 -19 1 5 -17 hvcurveto
          -5 19 -4 20 32 vvcurveto
          210 vlineto
          -3 47 48 0 48 hhcurveto
          75 -91 56 -96 52 -127 rrcurveto
          -53 21 46 -1 32 hhcurveto
          48 58 34 37 45 hvcurveto
          -16 46 rlineto
          -37 -72 -4 0 -2 hhcurveto
          -16 -10 26 25 -13 hvcurveto
          -37 71 -32 61 -63 87 -75 24 rlinecurve
          113 32 88 79 127 vvcurveto
          180 -125 63 -233 -72 -69 1 -7 -68 vhcurveto
          -77 -7 -39 -9 -31 -3 rrcurveto
          -60 75 vlineto
          16 16 1 -3 16 hvcurveto
          6 -15 3 -21 -27 vvcurveto
          235 72 rmoveto
          141 56 -42 -128 -109 -55 -62 -128 -40 -33 1 1 -31 hvcurveto
          336 vlineto
          2 27 30 1 33 hhcurveto
          endchar
        </CharString>
        <CharString name="ring">
          -605 1235 99 callgsubr
          hstem
          94 100 callsubr
          vstem
          559 1460 -69 callsubr
        </CharString>
        <CharString name="s">
          -250 -25 callsubr
          -86 callsubr
          endchar
        </CharString>
        <CharString name="sacute">
          -250 -25 callsubr
          525 -20 -86 callsubr
          181 939 -97 callgsubr
        </CharString>
        <CharString name="scaron">
          -290 -25 callsubr
          541 -20 -86 callsubr
          113 943 -99 callsubr
        </CharString>
        <CharString name="scedilla">
          -250 38 callsubr
          72 -17 callgsubr
          hstemhm
          66 callsubr
          253 167 -7 202 hintmask 01111010
          -91 callgsubr
          45 -691 -16 callgsubr
          hintmask 01111100
          -64 callgsubr
          hintmask 10111100
          14 callsubr
        </CharString>
        <CharString name="section">
          -197 -137 119 1418 118 hstemhm
          160 165 -130 168 406 172 -146 146 hintmask 11011000
          597 1518 rmoveto
          -261 -141 -118 -184 -104 39 -73 92 -68 hvcurveto
          hintmask 11101000
          -113 -52 -53 -77 -125 vvcurveto
          -171 121 -86 173 -85 vhcurveto
          176 -88 139 -38 -108 vvcurveto
          -105 -91 -54 -118 -158 -86 55 161 -51 vhcurveto
          -96 -11 rlineto
          -4 -76 -1 -66 -68 vvcurveto
          -61 58 206 -53 113 hhcurveto
          236 164 108 205 93 -44 94 -96 56 hvcurveto
          108 52 50 100 117 vvcurveto
          144 -59 71 -323 141 vhcurveto
          hintmask 11011000
          -156 69 -58 51 87 vvcurveto
          96 72 53 117 129 42 -37 -109 37 vhcurveto
          92 -19 37 207 rlineto
          51 -43 -97 25 -152 hhcurveto
          73 -1035 rmoveto
          -76 35 -77 34 -68 37 rrcurveto
          hintmask 11100100
          -92 48 -32 43 64 vvcurveto
          67 39 54 79 41 vhcurveto
          184 -80 168 -78 -100 vvcurveto
          -64 -41 -58 -84 -43 vhcurveto
          endchar
        </CharString>
        <CharString name="semicolon">
          -786 -295 -21 1095 276 hstemhm
          81 278 -199 199 hintmask 11100000
          186 1051 rmoveto
          -69 -13 -36 -47 -72 vvcurveto
          -80 42 -60 105 68 63 47 101 67 -54 61 -81 -15 -13 -1 -3 -10 vhcurveto
          -145 -1329 rmoveto
          -31 15 20 -7 37 hhcurveto
          6 5 1 1 4 hvcurveto
          111 90 106 187 166 vvcurveto
          69 -26 50 -112 -80 -45 -51 -68 -5 vhcurveto
          hintmask 11010000
          -65 42 -23 41 vhcurveto
          -7 -120 -49 -104 -63 -95 rrcurveto
          endchar
        </CharString>
        <CharString name="seven">
          -59 10 -21 1315 133 hstem
          156 1067 rmoveto
          115 hlineto
          26 214 rlineto
          17 45 69 6 89 hhcurveto
          437 hlineto
          -580 -1215 -11 -21 -9 -22 -7 -22 rlinecurve
          -23 14 31 -12 48 hhcurveto
          110 32 60 139 61 hvcurveto
          477 1097 rlineto
          75 -10 35 -16 42 vhcurveto
          -464 hlineto
          -268 -162 -17 -39 -72 hvcurveto
          endchar
        </CharString>
        <CharString name="six">
          -35 -37 124 674 126 450 121 hstem
          125 220 576 209 vstem
          345 577 rmoveto
          35 35 37 30 37 27 rrcurveto
          46 64 84 46 79 hhcurveto
          143 97 -113 -207 -227 -117 -127 -167 -193 -99 165 325 hvcurveto
          -12 137 rmoveto
          -1 8 0 7 8 vvcurveto
          232 62 368 296 60 64 -17 -39 72 vhcurveto
          32 -213 rlineto
          120 hlineto
          14 314 rlineto
          48 -61 -146 28 -138 hhcurveto
          -405 -177 -278 -520 -485 177 -212 324 307 197 199 283 275 -180 167 -235 -141 -124 -56 -117 -117 hvcurveto
          endchar
        </CharString>
        <CharString name="slash">
          -407 -136 -21 1675 -20 hstem
          701 1518 rmoveto
          -704 -1644 rlineto
          -21 14 28 -10 42 hhcurveto
          72 hlineto
          677 1589 13 28 10 31 rrcurveto
          18 -11 -28 9 -43 hhcurveto
          endchar
        </CharString>
        <CharString name="space">
          -728 endchar
        </CharString>
        <CharString name="sterling">
          -42 -7 125 580 107 536 127 hstemhm
          294 211 -149 195 hintmask 11101000
          356 375 rmoveto
          -157 -76 -70 -180 -56 vhcurveto
          -47 7 -26 43 -19 vhcurveto
          -3 115 251 -4 183 hhcurveto
          209 140 5 12 84 hvcurveto
          17 88 9 93 108 vvcurveto
          -79 34 rlineto
          -215 -93 -78 0 -206 hhcurveto
          -272 hlineto
          84 133 37 129 149 vvcurveto
          52 -3 53 -5 64 vhcurveto
          259 hlineto
          42 23 0 58 hvcurveto
          49 -337 vlineto
          -18 150 rlineto
          hintmask 11110000
          -5 40 -2 43 40 vvcurveto
          165 74 98 149 161 79 -64 -147 40 vhcurveto
          123 21 -4 76 0 76 -1 72 rlinecurve
          71 -53 -216 22 -119 hhcurveto
          -188 -256 -65 -310 -92 15 -100 16 -96 hvcurveto
          -133 hlineto
          -45 -16 -1 -56 hvcurveto
          -50 209 vlineto
          hintmask 11101000
          11 -117 5 -106 -100 vvcurveto
          endchar
        </CharString>
        <CharString name="summation">
          -36 -180 152 1371 65 hstem
          1138 207 rmoveto
          -57 16 rlineto
          -240 -88 -24 -11 -180 hhcurveto
          -549 hlineto
          467 713 -388 658 rlineto
          410 hlineto
          156 32 -17 -49 30 hvcurveto
          25 -43 24 -69 20 -104 56 13 rcurveline
          -13 134 -9 163 -3 37 rrcurveto
          -953 -51 hlineto
          457 -785 -471 -704 rlineto
          -48 967 vlineto
          endchar
        </CharString>
        <CharString name="t">
          -366 -11 111 -111 325 598 120 323 -20 hstem
          242 213 vstem
          -77 callgsubr
          endchar
        </CharString>
        <CharString name="tcaron">
          -85 -11 111 812 120 532 -20 hstemhm
          242 213 438 33 callgsubr
          hintmask 11111000
          -77 callgsubr
          652 -216 rmoveto
          -51 callgsubr
          hintmask 11110100
          -48 callsubr
          endchar
        </CharString>
        <CharString name="tcommaaccent">
          -366 -732 67 callsubr
          177 52 callsubr
          -73 271 hintmask 10111100
          -68 callsubr
          rlineto
          hintmask 10111010
          30 callgsubr
          hintmask 11011100
          -53 callsubr
          144 -1970 rmoveto
          hintmask 11011010
          -83 callgsubr
        </CharString>
        <CharString name="thorn">
          99 -467 -21 464 108 866 118 387 -20 134 -20 hstem
          221 212 557 226 vstem
          990 540 rmoveto
          -301 -115 -155 -179 -82 -154 21 28 -21 vhcurveto
          -4 99 -2 121 145 vvcurveto
          118 7 109 14 100 vhcurveto
          83 89 96 42 102 hhcurveto
          166 83 -137 -273 hvcurveto
          -768 -712 rmoveto
          -138 -7 -77 -100 -40 vhcurveto
          -42 vlineto
          -13 63 70 -6 77 hhcurveto
          77 70 6 13 63 hvcurveto
          42 vlineto
          -101 40 -1 78 137 vvcurveto
          223 vlineto
          -51 91 100 -24 125 hhcurveto
          248 219 203 368 328 -163 193 -260 -145 -113 -51 -104 -100 hvcurveto
          566 vlineto
          -3 33 0 29 -7 25 rrcurveto
          3 -15 -18 37 callsubr
          -87 96 vlineto
          35 28 -6 -8 24 hvcurveto
          5 -32 3 -35 -35 vvcurveto
          endchar
        </CharString>
        <CharString name="three">
          -60 -37 124 585 119 545 121 hstemhm
          879 151 -151 202 hintmask 11101000
          836 1097 rmoveto
          -215 -228 -91 -133 vhcurveto
          -66 -58 hlineto
          -61 41 vlineto
          267 162 -82 -201 -170 -113 -132 -189 -150 -162 65 221 20 callsubr
          19 -21 -108 -5 -57 -8 -61 rlinecurve
          -108 40 202 -95 227 hhcurveto
          296 195 159 256 217 -138 118 -267 35 hvcurveto
          hintmask 11110000
          234 53 120 153 141 vvcurveto
          279 -234 83 -229 -208 -206 -90 -176 -27 vhcurveto
          135 -111 rlineto
          166 27 154 90 139 hhcurveto
          133 122 -79 -160 hvcurveto
          endchar
        </CharString>
        <CharString name="threequarters">
          570 -19 -21 52 71 162 77 235 76 357 72 333 73 4 -20 hstemhm
          234 375 0 92 -92 123 707 120 hintmask 1111101100100000
          1288 1472 rmoveto
          -732 -1388 -24 -40 -18 -37 -17 -32 rlinecurve
          -10 10 19 -5 29 hhcurveto
          65 hlineto
          733 1387 20 37 19 36 15 33 rlinecurve
          13 -8 -21 6 -35 hhcurveto
          216 -1227 -57 callgsubr
          -857 927 0 callgsubr
          -3 -35 -3 -19 rlinecurve
          -3 -23 rlineto
          93 callgsubr
          hintmask 1111110001100000
          53 callgsubr
          hintmask 1111110010100000
          1 callgsubr
        </CharString>
        <CharString name="threesuperior">
          -385 557 76 357 72 333 73 hstemhm
          254 375 0 92 -92 123 hintmask 11110000
          602 1249 0 callgsubr
          -4 -36 -5 -41 rlinecurve
          93 callgsubr
          hintmask 11100100
          53 callgsubr
          hintmask 11101000
          1 callgsubr
        </CharString>
        <CharString name="tilde">
          -31 1275 15 callsubr
          hintmask 01000000
          467 1521 -72 callgsubr
          hintmask 10000000
          -79 callgsubr
          hintmask 01000000
          -4 callsubr
        </CharString>
        <CharString name="trademark">
          856 548 -21 809 51 hstemhm
          55 443 -149 149 -149 443 231 65 674 148 hintmask 11100110
          349 638 rmoveto
          -66 -45 -6 -61 vhcurveto
          -39 362 39 vlineto
          -63 -44 6 66 hvcurveto
          698 137 vlineto
          79 37 -57 -79 3 hvcurveto
          hintmask 11001110
          38 187 hlineto
          hintmask 11100110
          -737 -187 39 hlineto
          80 3 35 56 81 hhcurveto
          hintmask 11010110
          136 hlineto
          1413 -698 rmoveto
          -66 -40 -6 -66 vhcurveto
          -39 362 39 vlineto
          -74 -34 6 66 hvcurveto
          611 vlineto
          68 26 31 94 vhcurveto
          39 -226 vlineto
          -334 -658 -327 658 rlineto
          -258 -39 hlineto
          72 -3 42 -24 24 -60 rrcurveto
          -623 vlineto
          -66 -46 -6 -64 vhcurveto
          -39 286 39 vlineto
          -67 -44 6 66 hvcurveto
          532 4 vlineto
          316 -643 rlineto
          25 hlineto
          325 643 rlineto
          4 hlineto
          endchar
        </CharString>
        <CharString name="two">
          -9 0 144 1192 122 hstem
          843 210 vstem
          611 1336 rmoveto
          153 79 -84 -173 -96 -27 -108 -147 -168 hvcurveto
          -147 -167 -179 -183 -225 -223 rrcurveto
          -8 -33 -6 -28 -23 vvcurveto
          -35 13 21 -15 59 hhcurveto
          502 hlineto
          220 92 3 24 77 hvcurveto
          11 92 2 97 113 vvcurveto
          -15 -21 11 -27 hhcurveto
          -182 -78 -141 -14 -93 hhcurveto
          -397 hlineto
          557 493 167 188 244 vvcurveto
          234 -164 155 -294 -219 -215 -90 -176 -27 vhcurveto
          145 -121 rlineto
          173 27 161 92 144 hhcurveto
          endchar
        </CharString>
        <CharString name="twosuperior">
          -369 574 88 729 75 hstem
          592 128 vstem
          450 1391 -56 callgsubr
        </CharString>
        <CharString name="u">
          76 callsubr
          -6 callsubr
          hintmask 10111000
          -106 callgsubr
          hintmask 01111000
          -40 callgsubr
          hintmask 10111000
          -33 callsubr
          endchar
        </CharString>
        <CharString name="uacute">
          -90 callgsubr
          -588 995 -97 callgsubr
        </CharString>
        <CharString name="ucircumflex">
          -90 callgsubr
          -165 1013 -102 callgsubr
        </CharString>
        <CharString name="udieresis">
          40 -25 callgsubr
          247 225 25 callgsubr
          -84 16 callsubr
          -10 212 hintmask 10111001
          -106 callgsubr
          hintmask 01111010
          -40 callgsubr
          hintmask 10111001
          -33 callsubr
          hintmask 10110110
          -428 1142 -60 callgsubr
        </CharString>
        <CharString name="ugrave">
          -90 callgsubr
          -425 995 -59 callsubr
        </CharString>
        <CharString name="uhungarumlaut">
          93 -76 callsubr
          -703 995 -31 callsubr
        </CharString>
        <CharString name="underscore">
          -295 -339 128 hstem
          929 -339 rmoveto
          31 8 15 18 43 vvcurveto
          59 -882 vlineto
          -60 -43 0 -67 hvcurveto
          -61 vlineto
          endchar
        </CharString>
        <CharString name="uni0000">
          endchar
        </CharString>
        <CharString name="uni0002">
          endchar
        </CharString>
        <CharString name="uni0009">
          endchar
        </CharString>
        <CharString name="uni000A">
          endchar
        </CharString>
        <CharString name="uni000D">
          endchar
        </CharString>
        <CharString name="uni00A0">
          -669 endchar
        </CharString>
        <CharString name="uni00AD">
          -362 473 149 hstem
          682 473 rmoveto
          32 7 14 17 40 vvcurveto
          85 -478 vlineto
          -50 -30 -3 -58 hvcurveto
          -88 vlineto
          endchar
        </CharString>
        <CharString name="uni0200">
          247 -45 callsubr
          273 323 -104 callgsubr
          -684 1431 -102 callsubr
        </CharString>
        <CharString name="uni0201">
          -50 -44 callgsubr
          203 323 -100 callsubr
          -634 1245 -102 callsubr
        </CharString>
        <CharString name="uni0202">
          247 -45 callsubr
          460 138 -104 callgsubr
          -599 1618 -98 callsubr
        </CharString>
        <CharString name="uni0203">
          -50 -44 callgsubr
          397 138 -100 callsubr
          -589 1439 -98 callsubr
        </CharString>
        <CharString name="uni0204">
          78 -60 callsubr
          253 323 -107 callsubr
          -620 253 -102 callsubr
        </CharString>
        <CharString name="uni0205">
          -104 -23 callsubr
          203 323 -101 callgsubr
          -548 1097 -102 callsubr
        </CharString>
        <CharString name="uni0206">
          78 -60 callsubr
          447 138 -107 callsubr
          -573 447 -98 callsubr
        </CharString>
        <CharString name="uni0207">
          -104 -23 callsubr
          397 138 -101 callgsubr
          -440 1291 -98 callsubr
        </CharString>
        <CharString name="uni0208">
          -465 -27 callsubr
          273 323 72 callsubr
          hintmask 01111000
          79 -14 rmoveto
          hintmask 10111000
          -26 callgsubr
          hintmask 01111000
          58 callsubr
          hintmask 10111000
          -101 callsubr
          hintmask 01111000
          172 102 callgsubr
          -102 callsubr
        </CharString>
        <CharString name="uni0209">
          -572 24 callsubr
          211 323 -73 callsubr
          -54 425 -102 callsubr
        </CharString>
        <CharString name="uni020A">
          -465 -27 callsubr
          467 138 72 callsubr
          hintmask 01111000
          79 -14 rmoveto
          hintmask 10111000
          -26 callgsubr
          hintmask 01111000
          58 callsubr
          hintmask 10111000
          -101 callsubr
          hintmask 01111000
          283 1758 -98 callsubr
        </CharString>
        <CharString name="uni020B">
          -572 24 callsubr
          405 138 -73 callsubr
          27 619 -98 callsubr
        </CharString>
        <CharString name="uni020C">
          343 -20 callsubr
          232 323 -94 callgsubr
          -815 976 -102 callsubr
        </CharString>
        <CharString name="uni020D">
          -17 -52 callsubr
          199 745 -102 callsubr
        </CharString>
        <CharString name="uni020E">
          343 -20 callsubr
          418 138 -94 callgsubr
          -689 1162 -98 callsubr
        </CharString>
        <CharString name="uni020F">
          -17 -25 callsubr
          396 138 -97 callsubr
          244 939 -98 callsubr
        </CharString>
        <CharString name="uni0210">
          -7 callgsubr
          243 323 -99 callgsubr
          317 495 -102 callsubr
        </CharString>
        <CharString name="uni0211">
          -249 -14 callgsubr
          222 323 -92 callsubr
          -37 473 -102 callsubr
        </CharString>
        <CharString name="uni0212">
          -7 callgsubr
          429 138 -99 callgsubr
          361 681 -98 callsubr
        </CharString>
        <CharString name="uni0213">
          -249 -14 callgsubr
          416 138 -92 callsubr
          7 667 -98 callsubr
        </CharString>
        <CharString name="uni0214">
          271 21 callgsubr
          273 323 hstem
          240 219 736 170 vstem
          1365 45 callgsubr
          52 4 37 11 31 -50 callgsubr
          -76 -102 0 -117 hhcurveto
          -116 -90 -3 -11 -88 hvcurveto
          -111 90 -56 callsubr
          -604 vlineto
          -336 -118 -156 -253 -220 -145 137 279 vhcurveto
          680 vlineto
          51 5 40 9 29 -63 callgsubr
          -3 -11 -92 hvcurveto
          -111 -58 callsubr
          11 -27 34 callsubr
          -595 vlineto
          -379 154 -244 400 333 238 189 364 vhcurveto
          -685 1174 -102 callsubr
        </CharString>
        <CharString name="uni0215">
          98 -76 callsubr
          -617 995 -102 callsubr
        </CharString>
        <CharString name="uni0216">
          271 21 callgsubr
          467 138 hstem
          240 219 736 170 vstem
          1365 45 callgsubr
          52 4 37 11 31 -50 callgsubr
          -76 -102 0 -117 hhcurveto
          -116 -90 -3 -11 -88 hvcurveto
          -111 90 -56 callsubr
          -604 vlineto
          -336 -118 -156 -253 -220 -145 137 279 vhcurveto
          680 vlineto
          51 5 40 9 29 -63 callgsubr
          -3 -11 -92 hvcurveto
          -111 -58 callsubr
          11 -27 34 callsubr
          -595 vlineto
          -379 154 -244 400 333 238 189 364 vhcurveto
          -543 1368 -98 callsubr
        </CharString>
        <CharString name="uni0217">
          98 -25 callgsubr
          406 138 -105 callgsubr
          -490 1189 -98 callsubr
        </CharString>
        <CharString name="uni0218">
          -35 -699 67 callsubr
          118 0 121 1253 121 hstemhm
          125 217 144 271 137 227 hintmask 11011110
          528 -720 -9 callgsubr
          -186 1828 -61 callgsubr
          hintmask 10111110
          -66 callsubr
          endchar
        </CharString>
        <CharString name="uni0219">
          -250 -686 67 callsubr
          118 0 -17 callgsubr
          hstemhm
          66 callsubr
          60 271 82 202 hintmask 11011110
          407 -707 -9 callgsubr
          -266 1045 -93 callgsubr
          hintmask 10111110
          -37 callgsubr
          endchar
        </CharString>
        <CharString name="uni021A">
          51 71 callgsubr
          76 0 126 1186 77 callgsubr
          -219 252 -252 427 194 135 hintmask 1011110010000000
          -10 callsubr
          113 13 86 21 45 vhcurveto
          368 -1069 hlineto
          -46 -5 -36 -10 -26 -29 callgsubr
          89 callgsubr
          86 callsubr
          hintmask 1011100110000000
          88 90 -1 -13 104 hvcurveto
          76 callgsubr
          hintmask 1101110010000000
          69 callsubr
          21 -45 13 -86 -113 vvcurveto
          -598 -1709 rmoveto
          hintmask 1101101010000000
          -83 callgsubr
        </CharString>
        <CharString name="uni021B">
          -499 71 callgsubr
          65 52 callsubr
          hintmask 10111100
          -77 callgsubr
          14 -1858 rmoveto
          -39 callgsubr
          hintmask 11011100
          2 callgsubr
        </CharString>
        <CharString name="uni02C9">
          31 callsubr
        </CharString>
        <CharString name="uni030F">
          12 1264 323 hstem
          541 1264 -102 callsubr
        </CharString>
        <CharString name="uni0311">
          -1 1287 -21 192 138 hstem
          631 1458 -98 callsubr
        </CharString>
        <CharString name="uni0326">
          -704 71 callgsubr
          -20 hstem
          85 271 vstem
          127 -641 rmoveto
          -83 callgsubr
        </CharString>
        <CharString name="uni03A9">
          endchar
        </CharString>
        <CharString name="uni03BC">
          51 -436 -21 431 124 -98 98 815 95 17 -20 hstemhm
          239 180 472 178 hintmask 11010110
          691 913 rmoveto
          78 hlineto
          90 32 -32 -100 hvcurveto
          -105 -8 -137 -101 vvcurveto
          -220 -118 -120 -142 -138 -66 71 212 vhcurveto
          hintmask 11001110
          644 vlineto
          hintmask 11010110
          -13 -100 -124 -4 -125 hhcurveto
          -95 72 vlineto
          67 30 -26 -95 hvcurveto
          -1249 180 472 vlineto
          -31 44 62 -10 43 hhcurveto
          152 104 56 139 69 hvcurveto
          4 hlineto
          hintmask 10101110
          3 -56 -1 -66 3 -47 rrcurveto
          340 89 -44 hlineto
          -98 -31 15 141 hvcurveto
          780 vlineto
          hintmask 11010110
          -15 -53 -124 -2 -201 hhcurveto
          endchar
        </CharString>
        <CharString name="uni2215">
          -182 -70 -21 1569 -20 hstem
          -91 vmoveto
          124 hlineto
          954 1569 rlineto
          -123 hlineto
          endchar
        </CharString>
        <CharString name="uni2219">
          -633 475 247 hstem
          194 241 vstem
          316 475 rmoveto
          81 3 38 59 59 vvcurveto
          63 -42 63 -79 -80 -40 -64 -61 -61 39 -61 83 vhcurveto
          endchar
        </CharString>
        <CharString name="uring">
          76 callsubr
          183 99 callgsubr
          25 callgsubr
          8 100 callsubr
          7 212 hintmask 1011111110000000
          -106 callgsubr
          hintmask 0111111110000000
          -40 callgsubr
          hintmask 1011111110000000
          -33 callsubr
          -219 1191 -69 callsubr
        </CharString>
        <CharString name="v">
          59 13 -21 944 116 hstem
          710 157 rmoveto
          -73 173 -86 218 -103 287 -11 31 -15 28 -5 27 rrcurveto
          10 19 48 callsubr
          -108 -81 -5 -15 -47 hvcurveto
          16 101 callgsubr
          36 28 -4 -11 28 hvcurveto
          19 -27 15 -28 13 -31 344 -815 rcurveline
          -29 23 21 1 41 hhcurveto
          112 hlineto
          79 174 80 177 194 503 55 75 rlinecurve
          10 28 31 5 33 hhcurveto
          54 96 hlineto
          15 -43 -79 5 -97 hhcurveto
          -96 -76 -5 -15 -52 hvcurveto
          -11 101 callgsubr
          37 23 81 callsubr
          -8 -27 -7 -28 -12 -31 rrcurveto
          endchar
        </CharString>
        <CharString name="w">
          646 13 -21 944 116 hstem
          1360 133 rmoveto
          -272 836 rlineto
          32 -11 -33 3 -56 hhcurveto
          -55 hlineto
          -37 -116 -70 -214 -59 -185 -110 -343 rcurveline
          -255 775 rlineto
          10 17 48 callsubr
          -104 -77 -5 -15 -44 hvcurveto
          16 23 callsubr
          19 -27 17 -28 11 -31 286 -800 rcurveline
          -24 7 22 -19 79 hhcurveto
          115 hlineto
          74 199 109 305 72 214 212 -627 rcurveline
          -64 21 13 -27 88 hhcurveto
          115 hlineto
          41 114 149 420 144 395 rrcurveto
          10 27 30 5 35 -8 callsubr
          -11 101 callgsubr
          36 18 81 callsubr
          -12 -27 0 -28 -9 -31 rrcurveto
          endchar
        </CharString>
        <CharString name="x">
          -19 8 -21 34 -21 936 116 hstemhm
          hintmask 10100000
          753 559 rmoveto
          38 41 77 91 66 80 123 150 rcurveline
          10 31 32 5 34 hhcurveto
          43 hlineto
          34 96 rlineto
          15 -35 -72 5 -92 hhcurveto
          -100 -84 -5 -15 -60 hvcurveto
          -24 101 callgsubr
          37 15 -4 -11 16 hvcurveto
          -67 -97 -73 -106 -60 -76 -140 193 rcurveline
          -23 32 -24 27 -16 27 rrcurveto
          10 15 24 5 34 hhcurveto
          56 hlineto
          -17 96 rlineto
          15 -68 -107 5 -117 hhcurveto
          -117 -84 -5 -15 -44 hvcurveto
          27 -96 rlineto
          33 hlineto
          35 32 -5 -10 30 hvcurveto
          29 -28 27 -27 23 -31 233 -320 rcurveline
          -242 -294 -85 -104 -6 -30 -149 -16 rlinecurve
          -36 -84 rlineto
          hintmask 01100000
          8 40 92 5 89 hhcurveto
          hintmask 10100000
          83 77 -4 -9 35 hvcurveto
          34 84 rlineto
          -52 9 -22 12 23 vvcurveto
          25 26 38 47 64 vhcurveto
          139 192 149 -213 rlineto
          39 -56 23 -34 -19 vvcurveto
          -23 -25 -10 -61 -8 vhcurveto
          9 -84 rlineto
          hintmask 01100000
          9 45 90 4 93 hhcurveto
          hintmask 10100000
          107 108 -5 -8 46 hvcurveto
          -40 94 -108 16 -23 30 -63 95 rlinecurve
          endchar
        </CharString>
        <CharString name="y">
          57 49 callgsubr
          hstem
          -87 callgsubr
          endchar
        </CharString>
        <CharString name="yacute">
          -51 49 callgsubr
          102 callsubr
          hstem
          -87 callgsubr
          -499 429 -97 callgsubr
        </CharString>
        <CharString name="ydieresis">
          -103 49 callgsubr
          247 225 hstem
          278 226 247 226 vstem
          -87 callgsubr
          -219 576 -84 callgsubr
          -473 -81 callsubr
        </CharString>
        <CharString name="yen">
          364 78 callsubr
          308 100 108 101 730 115 hstemhm
          693 218 -218 493 hintmask 10111100
          1145 1228 rmoveto
          -35 -87 -151 -289 -112 -193 -326 563 -6 callgsubr
          -12 100 11 callsubr
          -2 -11 -84 hvcurveto
          24 -102 rlineto
          74 hlineto
          39 35 0 -11 33 hvcurveto
          24 -32 13 -37 31 -51 350 -599 rcurveline
          -102 hlineto
          -49 -32 -7 -27 -24 hvcurveto
          -67 262 vlineto
          5 -9 rlineto
          -99 -166 vlineto
          -48 -30 -6 -27 -23 hvcurveto
          -67 267 -42 vlineto
          -51 -5 -40 -10 -30 vhcurveto
          -9 -31 -33 13 callgsubr
          -89 hlineto
          hintmask 01111100
          -136 vlineto
          hintmask 10111100
          58 callgsubr
          hintmask 01111100
          100 100 -4 -15 117 hvcurveto
          hintmask 10111100
          136 -91 vlineto
          -39 -34 -44 callsubr
          39 208 vlineto
          hintmask 10111010
          45 22 0 60 hvcurveto
          40 vlineto
          hintmask 10111100
          -275 108 209 hlineto
          hintmask 10111010
          45 21 0 60 hvcurveto
          41 -226 vlineto
          117 191 122 200 112 207 -1 1 rlinecurve
          27 52 24 37 23 104 callgsubr
          35 34 10 callgsubr
          82 hlineto
          40 100 17 callsubr
          -2 -11 -89 hvcurveto
          -21 -102 -7 callsubr
          endchar
        </CharString>
        <CharString name="z">
          -165 46 callsubr
          5 -20 hstemhm
          hintmask 10100000
          295 -15 callgsubr
          hintmask 10010000
          -35 callgsubr
          hintmask 10100000
          -35 callsubr
          hintmask 01100000
          -47 callgsubr
          hintmask 10100000
          59 callgsubr
          endchar
        </CharString>
        <CharString name="zacute">
          -166 46 callsubr
          555 -58 callgsubr
          -232 1159 -97 callgsubr
        </CharString>
        <CharString name="zcaron">
          -154 46 callsubr
          571 -58 callgsubr
          -274 1163 -99 callsubr
        </CharString>
        <CharString name="zdotaccent">
          -166 46 callsubr
          297 271 hstemhm
          410 274 hintmask 10111000
          -68 callgsubr
          hintmask 01111000
          -47 callgsubr
          hintmask 10111000
          59 callgsubr
          -142 1224 1 callsubr
        </CharString>
        <CharString name="zero">
          17 -20 callsubr
          hstem
          92 221 650 222 vstem
          963 710 rmoveto
          -440 -111 -183 -214 -215 -110 186 437 445 113 182 212 215 110 -179 -448 vhcurveto
          -325 -747 rmoveto
          341 206 274 473 478 -199 270 -348 -347 -199 -270 -478 -472 202 -275 344 hvcurveto
          endchar
        </CharString>
      <CharString index="0">
        754 205 rmoveto
        -60 -80 -89 -44 -84 hhcurveto
        -112 -72 59 120 -76 callgsubr
        405 -104 rmoveto
        -160 -49 callsubr
        413 vlineto
        245 -131 134 -285 -256 -161 -109 -109 -19 vhcurveto
        139 -88 rlineto
        103 61 87 97 161 hhcurveto
        142 50 -85 -199 -65 callgsubr
        -196 135 -99 190 144 100 67 72 80 hvcurveto
        2 -20 rlineto
        return
      </CharString>
      <CharString index="1">
        1128 17 callgsubr
        -31 -50 -86 callgsubr
        23 hvcurveto
        8 -26 4 -32 -38 vvcurveto
        -298 vlineto
        -21 callgsubr
        -7 -2 -148 -97 -133 hhcurveto
        -176 -4 113 138 hvcurveto
        680 vlineto
        15 -32 -49 -86 callgsubr
        34 callgsubr
        4 -30 -39 vvcurveto
        -530 vlineto
        -212 89 -111 203 192 95 68 60 81 vhcurveto
        15 11 rlineto
        -34 vlineto
        return
      </CharString>
      <CharString index="2">
        -6 callsubr
        hintmask 10111100
        -106 callgsubr
        hintmask 01111100
        -40 callgsubr
        hintmask 10111100
        -33 callsubr
        return
      </CharString>
      <CharString index="3">
        -106 callsubr
        hintmask 10111000
        -71 callsubr
        return
      </CharString>
      <CharString index="4">
        140 -21 callsubr
        -8 -34 callgsubr
        928 vlineto
        52 6 31 -91 callsubr
        -31 -52 vvcurveto
        -931 vlineto
        -46 callsubr
        -34 26 callsubr
        return
      </CharString>
      <CharString index="5">
        rmoveto
        -5 13 -7 9 -9 15 -205 268 rcurveline
        -199 hlineto
        -204 -268 -11 -15 -4 -9 -7 -13 rlinecurve
        -12 8 19 -6 29 hhcurveto
        77 hlineto
        194 192 190 -192 rlineto
        81 hlineto
        27 18 6 12 8 hvcurveto
        endchar
      </CharString>
      <CharString index="6">
        hstem
        113 217 523 -104 callsubr
        return
      </CharString>
      <CharString index="7">
        1172 518 rmoveto
        343 -232 201 -297 -298 -232 -201 -343 -347 232 -195 298 287 242 185 357 vhcurveto
        -830 1 rmoveto
        278 87 149 213 208 93 -142 -285 -288 -84 -144 -217 -207 -93 136 296 vhcurveto
        return
      </CharString>
      <CharString index="8">
        15 callgsubr
        hintmask 10111110
        -79 callsubr
        -12 callsubr
        -89 hlineto
        hintmask 01111110
        19 callgsubr
        hintmask 10111110
        -31 callgsubr
        hintmask 01111110
        5 callsubr
        hintmask 10111110
        -61 callsubr
        hintmask 01111110
        -9 callsubr
        hlineto
        95 callsubr
        -56 vlineto
        -85 callsubr
        return
      </CharString>
      <CharString index="9">
        356 711 -26 callsubr
        273 153 -208 -415 -427 -154 -200 -272 -13 callsubr
        vhcurveto
        1094 3 rmoveto
        475 -258 269 -408 -59 callgsubr
        -13 callgsubr
        vhcurveto
        return
      </CharString>
      <CharString index="10">
        rmoveto
        250 261 53 61 1 vvcurveto
        -251 hlineto
        -37 -55 -42 -80 -110 -187 rrcurveto
        -1 6 0 131 vhcurveto
        endchar
      </CharString>
      <CharString index="11">
        759 1259 rmoveto
        246 -733 rlineto
        -506 hlineto
        251 733 rlineto
        161 162 rmoveto
        11 -32 -30 5 -60 hhcurveto
        -92 hlineto
        -208 -524 -109 -274 -115 -296 -32 -87 rlinecurve
        -19 -51 -19 -39 -23 -31 rrcurveto
        -9 -29 -31 0 -36 hhcurveto
        -46 hlineto
        return
      </CharString>
      <CharString index="12">
        16 -60 callsubr
        576 -20 -107 callsubr
        return
      </CharString>
      <CharString index="13">
        hstem
        115 241 854 -96 callsubr
        return
      </CharString>
      <CharString index="14">
        rmoveto
        -49 -260 rlineto
        -49 70 170 -53 161 hhcurveto
        246 181 105 215 138 -97 79 -211 75 hvcurveto
        -102 36 rlineto
        -115 40 -90 43 101 vvcurveto
        85 58 53 129 89 66 -4 -31 56 vhcurveto
        3 -33 2 -51 3 -60 100 -17 rcurveline
        19 104 24 111 32 vvcurveto
        37 -57 -108 28 -141 hhcurveto
        -273 -158 -117 -182 -173 107 -55 213 -83 hvcurveto
        86 -33 rlineto
        117 -45 78 -46 -84 vvcurveto
        return
      </CharString>
      <CharString index="15">
        592 1437 rmoveto
        -201 -184 -6 -24 -129 hvcurveto
        -108 83 callsubr
        35 31 1 -11 25 hvcurveto
        11 -28 6 -36 -51 vvcurveto
        -918 vlineto
        -53 -5 -40 -11 -28 -29 callgsubr
        hlineto
        return
      </CharString>
      <CharString index="16">
        141 338 -93 callgsubr
        -37 callgsubr
        return
      </CharString>
      <CharString index="17">
        40 -25 callgsubr
        102 callsubr
        -105 callgsubr
        return
      </CharString>
      <CharString index="18">
        -107 -44 callgsubr
        526 -20 -100 callsubr
        return
      </CharString>
      <CharString index="19">
        68 -34 44 -108 -57 -64 -26 -111 -8 vhcurveto
        -36 38 -35 46 vhcurveto
        -3 -38 -9 -109 -42 -97 -45 -64 rlinecurve
        13 -31 rlineto
        -12 9 14 -6 21 hhcurveto
        return
      </CharString>
      <CharString index="20">
        706 171 rmoveto
        -145 365 -72 184 -75 186 -3 14 rlinecurve
        11 19 31 4 35 hhcurveto
        55 hlineto
        -15 96 rlineto
        15 -65 -106 6 -121 hhcurveto
        -105 -84 -6 -15 -47 hvcurveto
        17 23 callsubr
        20 -27 14 -28 13 -31 373 -881 rcurveline
        -271 -117 -48 -31 -121 hhcurveto
        -40 -61 9 19 -51 hvcurveto
        -22 -139 rlineto
        -15 15 68 -13 72 hhcurveto
        173 123 60 232 101 hvcurveto
        415 957 59 133 10 22 5 5 rlinecurve
        11 27 28 4 37 -8 callsubr
        -12 -96 rlineto
        56 hlineto
        36 23 81 callsubr
        -7 -27 -10 -28 -9 -31 rrcurveto
        return
      </CharString>
      <CharString index="21">
        5 -51 hhcurveto
        -112 -110 -12 -8 -35 hvcurveto
        -96 -41 callgsubr
        return
      </CharString>
      <CharString index="22">
        rmoveto
        -67 callgsubr
        -738 vlineto
        -182 -10 -174 -93 -19 -26 3 3 -23 vhcurveto
        -41 6 -3 17 -2 17 -2 19 rlinecurve
        -3 31 -4 42 40 vvcurveto
        -65 10 -41 8 -47 -277 27 -8 28 -7 29 -6 rlinecurve
        -11 49 65 -9 61 hhcurveto
        217 116 153 307 hvcurveto
        return
      </CharString>
      <CharString index="23">
        rmoveto
        -95 callsubr
        return
      </CharString>
      <CharString index="24">
        -89 callsubr
        endchar
      </CharString>
      <CharString index="25">
        988 184 rmoveto
        -56 -92 -99 -27 -125 hhcurveto
        -186 -154 136 323 228 129 159 181 124 80 -57 -125 64 hvcurveto
        72 hlineto
        17 201 rlineto
        59 -72 -129 36 -135 hhcurveto
        -314 -236 -200 -356 -339 223 -190 312 137 129 26 52 88 hvcurveto
        return
      </CharString>
      <CharString index="26">
        11 352 18 483 360 vvcurveto
        59 callsubr
        9 29 35 2 39 hhcurveto
        80 -37 callsubr
        -72 -105 0 -108 hhcurveto
        -117 -95 -3 -12 -89 20 callsubr
        101 vlineto
        39 35 -2 -9 -29 callsubr
        -164 14 -541 -211 vvcurveto
        -224 378 -269 424 -232 357 rrcurveto
        13 -51 -56 0 -72 hhcurveto
        -108 -67 -7 -8 -99 20 callsubr
        111 -56 callsubr
        return
      </CharString>
      <CharString index="27">
        -95 callsubr
        endchar
      </CharString>
      <CharString index="28">
        91 99 -108 131 hhcurveto
        92 74 73 129 68 hvcurveto
        19 -33 -34 9 -35 hhcurveto
        -22 -14 -46 -69 -62 hhcurveto
        return
      </CharString>
      <CharString index="29">
        219 281 rmoveto
        -64 callsubr
        1274 -47 callsubr
        7 -32 2 -35 -35 vvcurveto
        return
      </CharString>
      <CharString index="30">
        -68 callsubr
        30 callgsubr
        -53 callsubr
        return
      </CharString>
      <CharString index="31">
        137 104 72 191 hvcurveto
        158 hlineto
        -124 -8 -88 -8 -72 vhcurveto
        return
      </CharString>
      <CharString index="32">
        hstem
        113 219 vstem
        -82 callgsubr
        return
      </CharString>
      <CharString index="33">
        -9 40 -8 52 76 vvcurveto
        return
      </CharString>
      <CharString index="34">
        -15 callsubr
        116 vvcurveto
        529 vlineto
        85 67 132 85 107 hhcurveto
        96 77 -73 -212 hvcurveto
        -362 vlineto
        -84 -6 -66 -65 vvcurveto
        -71 68 -16 56 111 89 8 17 67 vhcurveto
        return
      </CharString>
      <CharString index="35">
        rmoveto
        -71 -96 -35 -166 -75 hvcurveto
        -20 32 31 -7 35 hhcurveto
        19 16 47 71 60 hhcurveto
        return
      </CharString>
      <CharString index="36">
        rmoveto
        -115 -61 -148 -115 -129 vvcurveto
        -110 77 -45 114 76 73 20 40 56 vhcurveto
        -3 33 -8 25 -13 16 rrcurveto
        -9 -23 -38 -19 -49 hhcurveto
        -46 -50 24 76 68 54 83 100 80 hvcurveto
        endchar
      </CharString>
      <CharString index="37">
        126 -119 -21 return
      </CharString>
      <CharString index="38">
        -348 -81 callsubr
      </CharString>
      <CharString index="39">
        297 -15 callgsubr
        -35 callgsubr
        -35 callsubr
        return
      </CharString>
      <CharString index="40">
        15 -37 -11 callgsubr
        -108 -12 -8 -33 hvcurveto
        105 callgsubr
        33 88 callsubr
        24 hvcurveto
        5 -23 2 -29 -27 vvcurveto
        return
      </CharString>
      <CharString index="41">
        69 callgsubr
        88 7 17 69 vhcurveto
        return
      </CharString>
      <CharString index="42">
        hvcurveto
        -68 -147 vlineto
        -351 -170 -111 -221 return
      </CharString>
      <CharString index="43">
        148 110 71 155 128 -87 40 -138 8 hvcurveto
        56 107 rlineto
        -101 hlineto
        -85 -174 17 -8 18 -4 16 -11 rlinecurve
        4 15 11 4 11 hhcurveto
        60 -9 40 -32 -72 vvcurveto
        return
      </CharString>
      <CharString index="44">
        -51 callsubr
        -81 -113 6 callgsubr
        return
      </CharString>
      <CharString index="45">
        rmoveto
        122 hlineto
        35 13 3 41 hvcurveto
        33 -170 514 vlineto
        37 -8 9 -48 vhcurveto
        -54 hlineto
        -35 -37 -102 -144 -259 -371 -9 -12 -6 -11 -3 -9 rrcurveto
        -23 8 -17 16 -13 vhcurveto
        380 -83 hlineto
        -31 -3 -25 -7 -18 vhcurveto
        -5 -17 -21 0 -24 hhcurveto
        -54 return
      </CharString>
      <CharString index="46">
        rmoveto
        137 111 92 176 207 58 -54 -195 vhcurveto
        131 -9 29 235 0 22 3 24 rlinecurve
        67 -45 -169 31 -165 hhcurveto
        -364 -189 -163 -219 -204 149 -111 224 -88 hvcurveto
        240 -96 161 -82 -168 vvcurveto
        return
      </CharString>
      <CharString index="47">
        -84 callgsubr
        -69 callgsubr
      </CharString>
      <CharString index="48">
        -22 callgsubr
        -469 257 -282 412 return
      </CharString>
      <CharString index="49">
        -20 hstemhm
        hintmask 10110000
        -68 callgsubr
        hintmask 01110000
        -47 callgsubr
        hintmask 10110000
        59 callgsubr
        return
      </CharString>
      <CharString index="50">
        -62 callgsubr
        -83 hlineto
        8 65 59 4 68 hhcurveto
        56 58 -3 -9 65 hvcurveto
        -30 callgsubr
        return
      </CharString>
      <CharString index="51">
        rmoveto
        95 47 -52 -105 -59 -16 -67 -91 -101 hvcurveto
        -89 -103 -108 -111 -140 -137 rrcurveto
        -4 -20 -4 -18 -13 vvcurveto
        -21 8 13 -10 36 hhcurveto
        307 hlineto
        134 56 1 16 48 hvcurveto
        7 56 1 59 69 vvcurveto
        -9 -14 7 -16 hhcurveto
        -112 -48 -85 -8 -58 hhcurveto
        -243 hlineto
        341 301 102 116 149 vvcurveto
        143 -100 95 -180 -133 -133 -55 -108 -16 vhcurveto
        89 -74 rlineto
        108 16 98 54 89 hhcurveto
        endchar
      </CharString>
      <CharString index="52">
        -74 callsubr
        409 -691 rcurveline
        14 callgsubr
        -89 hlineto
        return
      </CharString>
      <CharString index="53">
        vhcurveto
        11 31 -5 callsubr
        return
      </CharString>
      <CharString index="54">
        -2 -8 -10 -1 -11 hhcurveto
        -59 -78 29 35 -29 hvcurveto
        -370 421 343 306 rlineto
        29 32 78 35 56 hhcurveto
        38 96 -433 -96 hlineto
        25 13 -6 -12 hvcurveto
        -1 -21 -38 -46 -76 -73 -264 -255 rcurveline
        return
      </CharString>
      <CharString index="55">
        -53 callgsubr
        933 -28 callgsubr
        -1136 vlineto
        32 callsubr
        return
      </CharString>
      <CharString index="56">
        135 103 95 187 160 vvcurveto
        68 -31 45 -112 -56 -70 -27 -108 vhcurveto
        return
      </CharString>
      <CharString index="57">
        vhcurveto
        11 28 35 0 40 5 callgsubr
        return
      </CharString>
      <CharString index="58">
        0 callsubr
        502 114 352 106 return
      </CharString>
      <CharString index="59">
        11 -7 -8 7 -23 hhcurveto
        -69 -102 -40 -27 -78 hvcurveto
        11 -57 58 11 rlineto
        1 12 12 2 11 hhcurveto
        25 17 -6 -12 16 hvcurveto
        -601 vlineto
        -32 -5 -22 -5 -19 vhcurveto
        -5 -13 -17 -1 -17 hhcurveto
        -69 return
      </CharString>
      <CharString index="60">
        119 166 1 -11 84 hvcurveto
        80 vlineto
        -1 11 0 15 -1 19 -6 168 rcurveline
        -32 -32 -1 -3 -32 hvcurveto
        -42 -152 rlineto
        return
      </CharString>
      <CharString index="61">
        -90 vlineto
        -39 -35 -44 callsubr
        return
      </CharString>
      <CharString index="62">
        -96 113 vlineto
        31 20 81 callsubr
        5 -23 2 -26 -27 vvcurveto
        -639 -20 callgsubr
        -3 -85 rlineto
        return
      </CharString>
      <CharString index="63">
        -24 -49 callgsubr
        return
      </CharString>
      <CharString index="64">
        8 4 callsubr
        92 return
      </CharString>
      <CharString index="65">
        -32 rmoveto
        hintmask 11111011
        -48 callgsubr
        -82 hlineto
        8 65 61 4 65 hhcurveto
        57 60 -3 -9 68 hvcurveto
        20 callgsubr
        return
      </CharString>
      <CharString index="66">
        83 vlineto
        31 28 -3 -8 return
      </CharString>
      <CharString index="67">
        -86 41 -8 102 108 87 11 17 69 vhcurveto
        return
      </CharString>
      <CharString index="68">
        124 108 105 164 181 vvcurveto
        return
      </CharString>
      <CharString index="69">
        -29 hvcurveto
        -9 -34 callgsubr
        return
      </CharString>
      <CharString index="70">
        -84 -62 -73 -144 -116 -73 14 31 -60 vhcurveto
        -7 56 -4 57 -7 80 rrcurveto
        return
      </CharString>
      <CharString index="71">
        hstem
        219 211 vstem
        -78 callgsubr
        return
      </CharString>
      <CharString index="72">
        -89 -137 5 -71 hhcurveto
        -93 vlineto
        -32 1 -56 7 -107 vhcurveto
        32 32 1 3 32 hvcurveto
        42 152 rlineto
        return
      </CharString>
      <CharString index="73">
        31 -6 12 callgsubr
        return
      </CharString>
      <CharString index="74">
        -234 -78 -33 -88 vhcurveto
        -510 hlineto
        834 1180 rlineto
        56 vlineto
        31 -17 31 -25 13 vhcurveto
        -467 hlineto
        -279 -167 -12 -20 -72 hvcurveto
        return
      </CharString>
      <CharString index="75">
        125 386 117 346 111 return
      </CharString>
      <CharString index="76">
        13 120 108 1 123 hhcurveto
        return
      </CharString>
      <CharString index="77">
        83 -54 vlineto
        -24 -21 1 4 -17 hvcurveto
        -7 19 -2 23 33 vvcurveto
        -408 159 rmoveto
        11 20 275 388 2 -29 rlineto
        -379 vlineto
        return
      </CharString>
      <CharString index="78">
        vhcurveto
        -9 -28 -35 26 callsubr
        -89 return
      </CharString>
      <CharString index="79">
        vlineto
        52 -6 35 -44 29 vhcurveto
        -136 -5 -145 -10 -74 -16 rrcurveto
        61 callsubr
        27 101 callsubr
        7 -33 1 -34 -36 vvcurveto
        return
      </CharString>
      <CharString index="80">
        -72 callgsubr
        hintmask 11101100
        -79 callgsubr
        hintmask 11011100
        -4 callsubr
      </CharString>
      <CharString index="81">
        13 121 110 1 83 callgsubr
        return
      </CharString>
      <CharString index="82">
        25 callsubr
        949 116 return
      </CharString>
      <CharString index="83">
        -74 callgsubr
        763 vlineto
        -67 callgsubr
        -561 vlineto
        -66 callgsubr
        return
      </CharString>
      <CharString index="84">
        hhcurveto
        -259 -169 -125 -315 hvcurveto
        -92 -119 vlineto
        -53 -35 -10 -35 -19 hvcurveto
        -75 226 -712 vlineto
        -92 -1 -21 return
      </CharString>
      <CharString index="85">
        -412 -257 -269 -475 return
      </CharString>
      <CharString index="86">
        -121 -2 -116 -15 -89 vhcurveto
        return
      </CharString>
      <CharString index="87">
        vlineto
        -96 0 -22 -125 -16 vhcurveto
        return
      </CharString>
      <CharString index="88">
        89 -1 -13 104 hvcurveto
        return
      </CharString>
      <CharString index="89">
        rmoveto
        -53 18 callsubr
        -27 vhcurveto
        -12 callsubr
        -89 hlineto
        return
      </CharString>
      <CharString index="90">
        111 859 116 return
      </CharString>
</ttFont>
